<svg width="100" height="100" viewBox="0 0 100 100" fill="none" xmlns="http://www.w3.org/2000/svg">
<circle cx="50" cy="50" r="49.5" fill="white" stroke="#485C78"/>
<path d="M30.7422 29.7578C31.5391 29.7578 32.1302 29.6172 32.5156 29.3359C32.901 29.0547 33.0938 28.6146 33.0938 28.0156C33.0938 27.4635 32.9375 27.0703 32.625 26.8359C32.3125 26.5964 31.8307 26.4766 31.1797 26.4766H29.6875V29.7578H30.7422ZM28.1406 25.0703H31.3359C31.888 25.0703 32.375 25.1354 32.7969 25.2656C33.224 25.3906 33.5807 25.5755 33.8672 25.8203C34.1536 26.0651 34.3698 26.3646 34.5156 26.7188C34.6667 27.0729 34.7422 27.474 34.7422 27.9219C34.7422 28.4896 34.6094 28.9609 34.3438 29.3359C34.0833 29.7057 33.6771 29.9922 33.125 30.1953C33.9323 30.388 34.5495 30.7318 34.9766 31.2266C35.4089 31.7161 35.625 32.3151 35.625 33.0234C35.625 33.4661 35.5417 33.8698 35.375 34.2344C35.2083 34.599 34.9661 34.9141 34.6484 35.1797C34.3307 35.4401 33.9427 35.6432 33.4844 35.7891C33.026 35.9297 32.5078 36 31.9297 36H28.1406V25.0703ZM29.6875 34.5781H31.7656C32.5052 34.5781 33.0547 34.4479 33.4141 34.1875C33.7786 33.9271 33.9609 33.5026 33.9609 32.9141C33.9609 32.3047 33.7578 31.8646 33.3516 31.5938C32.9505 31.3229 32.3385 31.1875 31.5156 31.1875H29.6875V34.5781ZM42.0234 31.6172C41.9974 31.3516 41.9349 31.112 41.8359 30.8984C41.737 30.6849 41.6068 30.5026 41.4453 30.3516C41.2891 30.2005 41.1042 30.0833 40.8906 30C40.6823 29.9167 40.4531 29.875 40.2031 29.875C39.651 29.875 39.2057 30.0234 38.8672 30.3203C38.5286 30.612 38.3073 31.0443 38.2031 31.6172H42.0234ZM43.4844 35.2344C43 35.5469 42.5052 35.7786 42 35.9297C41.5 36.0807 40.9766 36.1562 40.4297 36.1562C39.8516 36.1562 39.3307 36.0625 38.8672 35.875C38.4089 35.6875 38.0156 35.4245 37.6875 35.0859C37.3646 34.7474 37.1146 34.3385 36.9375 33.8594C36.7656 33.3802 36.6797 32.8516 36.6797 32.2734C36.6797 31.737 36.7656 31.2474 36.9375 30.8047C37.1094 30.3568 37.349 29.974 37.6562 29.6562C37.9688 29.3333 38.3411 29.0833 38.7734 28.9062C39.2109 28.7292 39.6927 28.6406 40.2188 28.6406C40.7292 28.6406 41.1927 28.7266 41.6094 28.8984C42.026 29.0703 42.3828 29.3203 42.6797 29.6484C42.9766 29.9714 43.2057 30.3672 43.3672 30.8359C43.5286 31.3047 43.6094 31.8359 43.6094 32.4297V32.6406H38.2031C38.224 32.9844 38.2917 33.2917 38.4062 33.5625C38.5208 33.8281 38.6771 34.0547 38.875 34.2422C39.0729 34.4297 39.3099 34.5729 39.5859 34.6719C39.862 34.7656 40.1693 34.8125 40.5078 34.8125C41.4297 34.8125 42.4219 34.4714 43.4844 33.7891V35.2344ZM49.0078 33.0547C48.638 33.1589 48.3203 33.224 48.0547 33.25C47.7891 33.2708 47.5469 33.2812 47.3281 33.2812C47.1615 33.2812 46.9844 33.276 46.7969 33.2656C46.6146 33.25 46.4323 33.2188 46.25 33.1719C46.0677 33.125 45.888 33.0573 45.7109 32.9688C45.5391 32.8802 45.3802 32.7604 45.2344 32.6094C45.0938 32.4688 44.9818 32.3203 44.8984 32.1641C44.8203 32.0078 44.7604 31.849 44.7188 31.6875C44.6771 31.5208 44.651 31.3542 44.6406 31.1875C44.6302 31.0208 44.625 30.8594 44.625 30.7031V28.7812H46.0625V30.7031C46.0625 30.776 46.0651 30.8594 46.0703 30.9531C46.0807 31.0417 46.099 31.1354 46.125 31.2344C46.151 31.3281 46.1875 31.4219 46.2344 31.5156C46.2865 31.6094 46.3568 31.6953 46.4453 31.7734C46.5234 31.8411 46.6146 31.8958 46.7188 31.9375C46.8229 31.974 46.9271 32.0026 47.0312 32.0234C47.1354 32.0391 47.2344 32.0495 47.3281 32.0547C47.4271 32.0599 47.5078 32.0625 47.5703 32.0625C47.7786 32.0625 48.0104 32.0443 48.2656 32.0078C48.526 31.9714 48.7734 31.9167 49.0078 31.8438V28.7812H50.4453V36H49.0078V33.0547ZM52.3672 28.7812H53.8047V31.6797H57.1953V28.7812H58.6406V36H57.1953V33.0234H53.8047V36H52.3672V28.7812ZM64.125 35.4062C63.7708 35.6562 63.4297 35.8385 63.1016 35.9531C62.7786 36.0677 62.4245 36.125 62.0391 36.125C61.7057 36.125 61.4115 36.0833 61.1562 36C60.901 35.9167 60.6849 35.7995 60.5078 35.6484C60.3359 35.4974 60.2031 35.3151 60.1094 35.1016C60.0208 34.888 59.9766 34.6484 59.9766 34.3828C59.9766 33.3724 60.7708 32.599 62.3594 32.0625L64.0703 31.4844C64.0807 31.4271 64.0859 31.375 64.0859 31.3281C64.0859 31.2812 64.0859 31.2344 64.0859 31.1875C64.0859 30.75 63.9792 30.4375 63.7656 30.25C63.5573 30.0625 63.2109 29.9688 62.7266 29.9688C62.3255 29.9688 61.9115 30.0521 61.4844 30.2188C61.0625 30.3854 60.6354 30.638 60.2031 30.9766V29.5547C60.5781 29.2474 60.9948 29.0182 61.4531 28.8672C61.9167 28.7161 62.401 28.6406 62.9062 28.6406C63.3802 28.6406 63.7865 28.6927 64.125 28.7969C64.4635 28.901 64.737 29.0599 64.9453 29.2734C65.1589 29.4818 65.3151 29.75 65.4141 30.0781C65.513 30.4062 65.5625 30.7917 65.5625 31.2344V34.2891C65.5625 34.5234 65.5807 34.7005 65.6172 34.8203C65.6589 34.9349 65.737 34.9922 65.8516 34.9922C65.9714 34.9922 66.0885 34.9557 66.2031 34.8828C66.3177 34.8099 66.4505 34.7135 66.6016 34.5938V35.4688C66.3359 35.6979 66.0703 35.8646 65.8047 35.9688C65.5391 36.0729 65.2656 36.125 64.9844 36.125C64.7083 36.125 64.5026 36.0703 64.3672 35.9609C64.2318 35.8516 64.151 35.6667 64.125 35.4062ZM64.0703 32.4141C63.6432 32.5495 63.2682 32.6797 62.9453 32.8047C62.6276 32.9245 62.362 33.0521 62.1484 33.1875C61.9401 33.3229 61.7812 33.4688 61.6719 33.625C61.5677 33.776 61.5156 33.9479 61.5156 34.1406C61.5156 34.4375 61.6094 34.6667 61.7969 34.8281C61.9896 34.9896 62.2578 35.0703 62.6016 35.0703C62.8516 35.0703 63.099 35.026 63.3438 34.9375C63.5885 34.849 63.8307 34.7135 64.0703 34.5312V32.4141ZM71.6328 36V33.2188H70.9297C70.7786 33.2188 70.625 33.2318 70.4688 33.2578C70.3125 33.2786 70.1667 33.3281 70.0312 33.4062C69.8802 33.4948 69.7526 33.6146 69.6484 33.7656C69.5495 33.9115 69.4583 34.0599 69.375 34.2109L68.4062 36H66.7422L68.1016 33.7266C68.1953 33.5651 68.3177 33.3984 68.4688 33.2266C68.6198 33.0547 68.8333 32.9115 69.1094 32.7969C68.9583 32.776 68.8203 32.7448 68.6953 32.7031C68.5703 32.6562 68.4609 32.6094 68.3672 32.5625C68.2786 32.5104 68.2057 32.4635 68.1484 32.4219C68.0911 32.375 68.0521 32.3411 68.0312 32.3203C67.9688 32.263 67.9036 32.1927 67.8359 32.1094C67.7734 32.026 67.7135 31.9297 67.6562 31.8203C67.6042 31.7057 67.5599 31.5781 67.5234 31.4375C67.4922 31.2917 67.4766 31.1276 67.4766 30.9453C67.4766 30.5911 67.5495 30.2734 67.6953 29.9922C67.8411 29.7057 68.0234 29.4792 68.2422 29.3125C68.4036 29.1823 68.5755 29.0807 68.7578 29.0078C68.9453 28.9349 69.1302 28.8828 69.3125 28.8516C69.4948 28.8151 69.6719 28.7943 69.8438 28.7891C70.0208 28.7839 70.1797 28.7812 70.3203 28.7812H73.0781V36H71.6328ZM71.6328 29.9688H70.1953C70.0443 29.9688 69.888 29.9792 69.7266 30C69.5651 30.0156 69.4115 30.0807 69.2656 30.1953C69.1875 30.2578 69.125 30.3281 69.0781 30.4062C69.0312 30.4844 68.9948 30.5625 68.9688 30.6406C68.9479 30.7188 68.9323 30.7917 68.9219 30.8594C68.9167 30.9271 68.9141 30.9818 68.9141 31.0234C68.9141 31.1224 68.9297 31.2396 68.9609 31.375C68.9922 31.5104 69.0677 31.6328 69.1875 31.7422C69.3021 31.8464 69.4505 31.9219 69.6328 31.9688C69.8151 32.0104 70.0026 32.0312 70.1953 32.0312H71.6328V29.9688ZM25.6875 53.7578C24.974 54.013 24.2786 54.1406 23.6016 54.1406C23.0078 54.1406 22.4635 54.0469 21.9688 53.8594C21.474 53.6719 21.0469 53.4115 20.6875 53.0781C20.3333 52.7396 20.0573 52.3411 19.8594 51.8828C19.6667 51.4245 19.5703 50.9245 19.5703 50.3828C19.5703 49.862 19.6667 49.3724 19.8594 48.9141C20.0573 48.4557 20.3307 48.0573 20.6797 47.7188C21.0339 47.3802 21.4531 47.1146 21.9375 46.9219C22.4271 46.724 22.9609 46.625 23.5391 46.625C23.8828 46.625 24.2214 46.6615 24.5547 46.7344C24.8932 46.8073 25.2318 46.9193 25.5703 47.0703V48.6094C25.2318 48.4115 24.901 48.263 24.5781 48.1641C24.2552 48.0651 23.9245 48.0156 23.5859 48.0156C23.2057 48.0156 22.862 48.0755 22.5547 48.1953C22.2474 48.3151 21.9844 48.4818 21.7656 48.6953C21.5469 48.9036 21.3776 49.1536 21.2578 49.4453C21.138 49.7318 21.0781 50.0443 21.0781 50.3828C21.0781 50.7266 21.138 51.0443 21.2578 51.3359C21.3776 51.6276 21.5495 51.8828 21.7734 52.1016C21.9974 52.3151 22.2682 52.4818 22.5859 52.6016C22.9036 52.7214 23.2604 52.7812 23.6562 52.7812C24.0104 52.7812 24.3542 52.7422 24.6875 52.6641C25.026 52.5807 25.3594 52.4557 25.6875 52.2891V53.7578ZM31.9609 49.6172C31.9349 49.3516 31.8724 49.112 31.7734 48.8984C31.6745 48.6849 31.5443 48.5026 31.3828 48.3516C31.2266 48.2005 31.0417 48.0833 30.8281 48C30.6198 47.9167 30.3906 47.875 30.1406 47.875C29.5885 47.875 29.1432 48.0234 28.8047 48.3203C28.4661 48.612 28.2448 49.0443 28.1406 49.6172H31.9609ZM33.4219 53.2344C32.9375 53.5469 32.4427 53.7786 31.9375 53.9297C31.4375 54.0807 30.9141 54.1562 30.3672 54.1562C29.7891 54.1562 29.2682 54.0625 28.8047 53.875C28.3464 53.6875 27.9531 53.4245 27.625 53.0859C27.3021 52.7474 27.0521 52.3385 26.875 51.8594C26.7031 51.3802 26.6172 50.8516 26.6172 50.2734C26.6172 49.737 26.7031 49.2474 26.875 48.8047C27.0469 48.3568 27.2865 47.974 27.5938 47.6562C27.9062 47.3333 28.2786 47.0833 28.7109 46.9062C29.1484 46.7292 29.6302 46.6406 30.1562 46.6406C30.6667 46.6406 31.1302 46.7266 31.5469 46.8984C31.9635 47.0703 32.3203 47.3203 32.6172 47.6484C32.9141 47.9714 33.1432 48.3672 33.3047 48.8359C33.4661 49.3047 33.5469 49.8359 33.5469 50.4297V50.6406H28.1406C28.1615 50.9844 28.2292 51.2917 28.3438 51.5625C28.4583 51.8281 28.6146 52.0547 28.8125 52.2422C29.0104 52.4297 29.2474 52.5729 29.5234 52.6719C29.7995 52.7656 30.1068 52.8125 30.4453 52.8125C31.3672 52.8125 32.3594 52.4714 33.4219 51.7891V53.2344ZM34.9453 46.7812H36.0938L38.5 49.6797L40.8984 46.7812H42.0469V54H40.6094V48.9922L38.5 51.5078L36.3828 48.9922V54H34.9453V46.7812ZM48.8047 49.6172C48.7786 49.3516 48.7161 49.112 48.6172 48.8984C48.5182 48.6849 48.388 48.5026 48.2266 48.3516C48.0703 48.2005 47.8854 48.0833 47.6719 48C47.4635 47.9167 47.2344 47.875 46.9844 47.875C46.4323 47.875 45.987 48.0234 45.6484 48.3203C45.3099 48.612 45.0885 49.0443 44.9844 49.6172H48.8047ZM50.2656 53.2344C49.7812 53.5469 49.2865 53.7786 48.7812 53.9297C48.2812 54.0807 47.7578 54.1562 47.2109 54.1562C46.6328 54.1562 46.112 54.0625 45.6484 53.875C45.1901 53.6875 44.7969 53.4245 44.4688 53.0859C44.1458 52.7474 43.8958 52.3385 43.7188 51.8594C43.5469 51.3802 43.4609 50.8516 43.4609 50.2734C43.4609 49.737 43.5469 49.2474 43.7188 48.8047C43.8906 48.3568 44.1302 47.974 44.4375 47.6562C44.75 47.3333 45.1224 47.0833 45.5547 46.9062C45.9922 46.7292 46.474 46.6406 47 46.6406C47.5104 46.6406 47.974 46.7266 48.3906 46.8984C48.8073 47.0703 49.1641 47.3203 49.4609 47.6484C49.7578 47.9714 49.987 48.3672 50.1484 48.8359C50.3099 49.3047 50.3906 49.8359 50.3906 50.4297V50.6406H44.9844C45.0052 50.9844 45.0729 51.2917 45.1875 51.5625C45.3021 51.8281 45.4583 52.0547 45.6562 52.2422C45.8542 52.4297 46.0911 52.5729 46.3672 52.6719C46.6432 52.7656 46.9505 52.8125 47.2891 52.8125C48.2109 52.8125 49.2031 52.4714 50.2656 51.7891V53.2344ZM53.2266 46.7812V51.8203L57.0078 46.7812H58.2812V54H56.8438V48.9609L53.0703 54H51.7891V46.7812H53.2266ZM54.0156 43.3438C54.0156 43.4635 54.0339 43.5938 54.0703 43.7344C54.112 43.8698 54.1771 43.9896 54.2656 44.0938C54.3854 44.2292 54.5182 44.3177 54.6641 44.3594C54.8099 44.3958 54.9349 44.4141 55.0391 44.4141C55.1432 44.4141 55.2656 44.3958 55.4062 44.3594C55.5521 44.3177 55.6849 44.2292 55.8047 44.0938C55.8932 43.9896 55.9583 43.8698 56 43.7344C56.0417 43.5938 56.0625 43.4635 56.0625 43.3438H57.2422C57.2266 43.6823 57.1536 43.987 57.0234 44.2578C56.8932 44.5286 56.737 44.7474 56.5547 44.9141C56.362 45.0964 56.1328 45.2344 55.8672 45.3281C55.6016 45.4219 55.3255 45.4688 55.0391 45.4688C54.7474 45.4688 54.4688 45.4219 54.2031 45.3281C53.9375 45.2344 53.7083 45.0964 53.5156 44.9141C53.3333 44.7474 53.1771 44.5286 53.0469 44.2578C52.9167 43.987 52.8438 43.6823 52.8281 43.3438H54.0156ZM60.2109 46.7812H61.6484V49.6797H65.0391V46.7812H66.4844V54H65.0391V51.0234H61.6484V54H60.2109V46.7812ZM71.9688 53.4062C71.6146 53.6562 71.2734 53.8385 70.9453 53.9531C70.6224 54.0677 70.2682 54.125 69.8828 54.125C69.5495 54.125 69.2552 54.0833 69 54C68.7448 53.9167 68.5286 53.7995 68.3516 53.6484C68.1797 53.4974 68.0469 53.3151 67.9531 53.1016C67.8646 52.888 67.8203 52.6484 67.8203 52.3828C67.8203 51.3724 68.6146 50.599 70.2031 50.0625L71.9141 49.4844C71.9245 49.4271 71.9297 49.375 71.9297 49.3281C71.9297 49.2812 71.9297 49.2344 71.9297 49.1875C71.9297 48.75 71.8229 48.4375 71.6094 48.25C71.401 48.0625 71.0547 47.9688 70.5703 47.9688C70.1693 47.9688 69.7552 48.0521 69.3281 48.2188C68.9062 48.3854 68.4792 48.638 68.0469 48.9766V47.5547C68.4219 47.2474 68.8385 47.0182 69.2969 46.8672C69.7604 46.7161 70.2448 46.6406 70.75 46.6406C71.224 46.6406 71.6302 46.6927 71.9688 46.7969C72.3073 46.901 72.5807 47.0599 72.7891 47.2734C73.0026 47.4818 73.1589 47.75 73.2578 48.0781C73.3568 48.4062 73.4062 48.7917 73.4062 49.2344V52.2891C73.4062 52.5234 73.4245 52.7005 73.4609 52.8203C73.5026 52.9349 73.5807 52.9922 73.6953 52.9922C73.8151 52.9922 73.9323 52.9557 74.0469 52.8828C74.1615 52.8099 74.2943 52.7135 74.4453 52.5938V53.4688C74.1797 53.6979 73.9141 53.8646 73.6484 53.9688C73.3828 54.0729 73.1094 54.125 72.8281 54.125C72.5521 54.125 72.3464 54.0703 72.2109 53.9609C72.0755 53.8516 71.9948 53.6667 71.9688 53.4062ZM71.9141 50.4141C71.487 50.5495 71.112 50.6797 70.7891 50.8047C70.4714 50.9245 70.2057 51.0521 69.9922 51.1875C69.7839 51.3229 69.625 51.4688 69.5156 51.625C69.4115 51.776 69.3594 51.9479 69.3594 52.1406C69.3594 52.4375 69.4531 52.6667 69.6406 52.8281C69.8333 52.9896 70.1016 53.0703 70.4453 53.0703C70.6953 53.0703 70.9427 53.026 71.1875 52.9375C71.4323 52.849 71.6745 52.7135 71.9141 52.5312V50.4141ZM79.4766 54V51.2188H78.7734C78.6224 51.2188 78.4688 51.2318 78.3125 51.2578C78.1562 51.2786 78.0104 51.3281 77.875 51.4062C77.724 51.4948 77.5964 51.6146 77.4922 51.7656C77.3932 51.9115 77.3021 52.0599 77.2188 52.2109L76.25 54H74.5859L75.9453 51.7266C76.0391 51.5651 76.1615 51.3984 76.3125 51.2266C76.4635 51.0547 76.6771 50.9115 76.9531 50.7969C76.8021 50.776 76.6641 50.7448 76.5391 50.7031C76.4141 50.6562 76.3047 50.6094 76.2109 50.5625C76.1224 50.5104 76.0495 50.4635 75.9922 50.4219C75.9349 50.375 75.8958 50.3411 75.875 50.3203C75.8125 50.263 75.7474 50.1927 75.6797 50.1094C75.6172 50.026 75.5573 49.9297 75.5 49.8203C75.4479 49.7057 75.4036 49.5781 75.3672 49.4375C75.3359 49.2917 75.3203 49.1276 75.3203 48.9453C75.3203 48.5911 75.3932 48.2734 75.5391 47.9922C75.6849 47.7057 75.8672 47.4792 76.0859 47.3125C76.2474 47.1823 76.4193 47.0807 76.6016 47.0078C76.7891 46.9349 76.974 46.8828 77.1562 46.8516C77.3385 46.8151 77.5156 46.7943 77.6875 46.7891C77.8646 46.7839 78.0234 46.7812 78.1641 46.7812H80.9219V54H79.4766ZM79.4766 47.9688H78.0391C77.888 47.9688 77.7318 47.9792 77.5703 48C77.4089 48.0156 77.2552 48.0807 77.1094 48.1953C77.0312 48.2578 76.9688 48.3281 76.9219 48.4062C76.875 48.4844 76.8385 48.5625 76.8125 48.6406C76.7917 48.7188 76.776 48.7917 76.7656 48.8594C76.7604 48.9271 76.7578 48.9818 76.7578 49.0234C76.7578 49.1224 76.7734 49.2396 76.8047 49.375C76.8359 49.5104 76.9115 49.6328 77.0312 49.7422C77.1458 49.8464 77.2943 49.9219 77.4766 49.9688C77.6589 50.0104 77.8464 50.0312 78.0391 50.0312H79.4766V47.9688ZM34.2734 71.7578C33.5599 72.013 32.8646 72.1406 32.1875 72.1406C31.5938 72.1406 31.0495 72.0469 30.5547 71.8594C30.0599 71.6719 29.6328 71.4115 29.2734 71.0781C28.9193 70.7396 28.6432 70.3411 28.4453 69.8828C28.2526 69.4245 28.1562 68.9245 28.1562 68.3828C28.1562 67.862 28.2526 67.3724 28.4453 66.9141C28.6432 66.4557 28.9167 66.0573 29.2656 65.7188C29.6198 65.3802 30.0391 65.1146 30.5234 64.9219C31.013 64.724 31.5469 64.625 32.125 64.625C32.4688 64.625 32.8073 64.6615 33.1406 64.7344C33.4792 64.8073 33.8177 64.9193 34.1562 65.0703V66.6094C33.8177 66.4115 33.487 66.263 33.1641 66.1641C32.8411 66.0651 32.5104 66.0156 32.1719 66.0156C31.7917 66.0156 31.4479 66.0755 31.1406 66.1953C30.8333 66.3151 30.5703 66.4818 30.3516 66.6953C30.1328 66.9036 29.9635 67.1536 29.8438 67.4453C29.724 67.7318 29.6641 68.0443 29.6641 68.3828C29.6641 68.7266 29.724 69.0443 29.8438 69.3359C29.9635 69.6276 30.1354 69.8828 30.3594 70.1016C30.5833 70.3151 30.8542 70.4818 31.1719 70.6016C31.4896 70.7214 31.8464 70.7812 32.2422 70.7812C32.5964 70.7812 32.9401 70.7422 33.2734 70.6641C33.612 70.5807 33.9453 70.4557 34.2734 70.2891V71.7578ZM37.1562 64.7812V67.7109H37.6875C37.8177 67.7109 37.9349 67.6927 38.0391 67.6562C38.1484 67.6198 38.2396 67.5703 38.3125 67.5078C38.375 67.4505 38.4401 67.3698 38.5078 67.2656C38.5807 67.1562 38.6693 66.9948 38.7734 66.7812L39.0938 66.1094C39.151 65.9896 39.2031 65.8776 39.25 65.7734C39.3021 65.6641 39.3568 65.5625 39.4141 65.4688C39.4714 65.3698 39.5365 65.276 39.6094 65.1875C39.6823 65.099 39.7708 65.013 39.875 64.9297C40.0208 64.8151 40.1667 64.737 40.3125 64.6953C40.4635 64.6484 40.6484 64.625 40.8672 64.625C40.9661 64.625 41.0833 64.6354 41.2188 64.6562C41.3594 64.6771 41.5104 64.7188 41.6719 64.7812V66.0312C41.6198 66.0052 41.5391 65.974 41.4297 65.9375C41.3255 65.8958 41.1979 65.875 41.0469 65.875C40.901 65.875 40.7786 65.8958 40.6797 65.9375C40.5807 65.974 40.4948 66.0286 40.4219 66.1016C40.3542 66.1693 40.2943 66.2526 40.2422 66.3516C40.1901 66.4453 40.138 66.5469 40.0859 66.6562L39.8438 67.1719C39.7865 67.2969 39.7292 67.4141 39.6719 67.5234C39.6146 67.6328 39.5495 67.7344 39.4766 67.8281C39.4089 67.9219 39.3281 68.0078 39.2344 68.0859C39.1458 68.1589 39.0391 68.2266 38.9141 68.2891C39.013 68.3151 39.112 68.349 39.2109 68.3906C39.3099 68.4271 39.3984 68.474 39.4766 68.5312C39.5599 68.5885 39.6432 68.6589 39.7266 68.7422C39.8099 68.8203 39.8906 68.9036 39.9688 68.9922C40.0469 69.0807 40.1198 69.1719 40.1875 69.2656C40.2552 69.3542 40.3125 69.4349 40.3594 69.5078L41.9297 72H40.2656L39.125 70.1562C38.9479 69.875 38.7995 69.6615 38.6797 69.5156C38.5599 69.3698 38.4479 69.2604 38.3438 69.1875C38.2083 69.0885 38.0781 69.026 37.9531 69C37.8333 68.974 37.7057 68.9609 37.5703 68.9609H37.1562V72H35.7188V64.7812H37.1562ZM44.5156 64.7812V69.8203L48.2969 64.7812H49.5703V72H48.1328V66.9609L44.3594 72H43.0781V64.7812H44.5156ZM57.7734 64.7812V70.6562H58.7656V74.0781H57.4844V72H51.8203V74.0781H50.5391V70.6562H51.1797C51.4036 70.3438 51.6068 70.0156 51.7891 69.6719C51.9766 69.3229 52.1354 68.9688 52.2656 68.6094C52.4583 68.0729 52.5807 67.5729 52.6328 67.1094C52.6901 66.6406 52.7188 66.2292 52.7188 65.875V64.7812H57.7734ZM53.9922 66.125C53.9661 66.5469 53.9219 66.987 53.8594 67.4453C53.8021 67.9036 53.6979 68.3542 53.5469 68.7969C53.4271 69.1562 53.2917 69.4896 53.1406 69.7969C52.9948 70.1042 52.8411 70.3906 52.6797 70.6562H56.3281V66.125H53.9922ZM61.3906 64.7812V67.7109H61.9219C62.0521 67.7109 62.1693 67.6927 62.2734 67.6562C62.3828 67.6198 62.474 67.5703 62.5469 67.5078C62.6094 67.4505 62.6745 67.3698 62.7422 67.2656C62.8151 67.1562 62.9036 66.9948 63.0078 66.7812L63.3281 66.1094C63.3854 65.9896 63.4375 65.8776 63.4844 65.7734C63.5365 65.6641 63.5911 65.5625 63.6484 65.4688C63.7057 65.3698 63.7708 65.276 63.8438 65.1875C63.9167 65.099 64.0052 65.013 64.1094 64.9297C64.2552 64.8151 64.401 64.737 64.5469 64.6953C64.6979 64.6484 64.8828 64.625 65.1016 64.625C65.2005 64.625 65.3177 64.6354 65.4531 64.6562C65.5938 64.6771 65.7448 64.7188 65.9062 64.7812V66.0312C65.8542 66.0052 65.7734 65.974 65.6641 65.9375C65.5599 65.8958 65.4323 65.875 65.2812 65.875C65.1354 65.875 65.013 65.8958 64.9141 65.9375C64.8151 65.974 64.7292 66.0286 64.6562 66.1016C64.5885 66.1693 64.5286 66.2526 64.4766 66.3516C64.4245 66.4453 64.3724 66.5469 64.3203 66.6562L64.0781 67.1719C64.0208 67.2969 63.9635 67.4141 63.9062 67.5234C63.849 67.6328 63.7839 67.7344 63.7109 67.8281C63.6432 67.9219 63.5625 68.0078 63.4688 68.0859C63.3802 68.1589 63.2734 68.2266 63.1484 68.2891C63.2474 68.3151 63.3464 68.349 63.4453 68.3906C63.5443 68.4271 63.6328 68.474 63.7109 68.5312C63.7943 68.5885 63.8776 68.6589 63.9609 68.7422C64.0443 68.8203 64.125 68.9036 64.2031 68.9922C64.2812 69.0807 64.3542 69.1719 64.4219 69.2656C64.4896 69.3542 64.5469 69.4349 64.5938 69.5078L66.1641 72H64.5L63.3594 70.1562C63.1823 69.875 63.0339 69.6615 62.9141 69.5156C62.7943 69.3698 62.6823 69.2604 62.5781 69.1875C62.4427 69.0885 62.3125 69.026 62.1875 69C62.0677 68.974 61.9401 68.9609 61.8047 68.9609H61.3906V72H59.9531V64.7812H61.3906ZM70.8672 71.4062C70.513 71.6562 70.1719 71.8385 69.8438 71.9531C69.5208 72.0677 69.1667 72.125 68.7812 72.125C68.4479 72.125 68.1536 72.0833 67.8984 72C67.6432 71.9167 67.4271 71.7995 67.25 71.6484C67.0781 71.4974 66.9453 71.3151 66.8516 71.1016C66.763 70.888 66.7188 70.6484 66.7188 70.3828C66.7188 69.3724 67.513 68.599 69.1016 68.0625L70.8125 67.4844C70.8229 67.4271 70.8281 67.375 70.8281 67.3281C70.8281 67.2812 70.8281 67.2344 70.8281 67.1875C70.8281 66.75 70.7214 66.4375 70.5078 66.25C70.2995 66.0625 69.9531 65.9688 69.4688 65.9688C69.0677 65.9688 68.6536 66.0521 68.2266 66.2188C67.8047 66.3854 67.3776 66.638 66.9453 66.9766V65.5547C67.3203 65.2474 67.737 65.0182 68.1953 64.8672C68.6589 64.7161 69.1432 64.6406 69.6484 64.6406C70.1224 64.6406 70.5286 64.6927 70.8672 64.7969C71.2057 64.901 71.4792 65.0599 71.6875 65.2734C71.901 65.4818 72.0573 65.75 72.1562 66.0781C72.2552 66.4062 72.3047 66.7917 72.3047 67.2344V70.2891C72.3047 70.5234 72.3229 70.7005 72.3594 70.8203C72.401 70.9349 72.4792 70.9922 72.5938 70.9922C72.7135 70.9922 72.8307 70.9557 72.9453 70.8828C73.0599 70.8099 73.1927 70.7135 73.3438 70.5938V71.4688C73.0781 71.6979 72.8125 71.8646 72.5469 71.9688C72.2812 72.0729 72.0078 72.125 71.7266 72.125C71.4505 72.125 71.2448 72.0703 71.1094 71.9609C70.974 71.8516 70.8932 71.6667 70.8672 71.4062ZM70.8125 68.4141C70.3854 68.5495 70.0104 68.6797 69.6875 68.8047C69.3698 68.9245 69.1042 69.0521 68.8906 69.1875C68.6823 69.3229 68.5234 69.4688 68.4141 69.625C68.3099 69.776 68.2578 69.9479 68.2578 70.1406C68.2578 70.4375 68.3516 70.6667 68.5391 70.8281C68.7318 70.9896 69 71.0703 69.3438 71.0703C69.5938 71.0703 69.8411 71.026 70.0859 70.9375C70.3307 70.849 70.5729 70.7135 70.8125 70.5312V68.4141Z" fill="#2E4058"/>
</svg>
