<svg width="18" height="25" viewBox="0 0 18 25" fill="none" xmlns="http://www.w3.org/2000/svg">
<path d="M1.45898 14.1028L1.87962 13.8325C0.814449 12.1749 0.343273 10.1957 0.546024 8.22682C0.74877 6.25796 1.61289 4.42072 2.99204 3.02265C4.47871 1.51599 6.46196 0.622112 8.55861 0.51162C10.6552 0.40113 12.7188 1.08171 14.3512 2.4236C15.9837 3.76565 17.0693 5.67438 17.3965 7.78222C17.7237 9.8901 17.2689 12.0456 16.1209 13.8325L1.45898 14.1028ZM1.45898 14.1028L1.87962 13.8325L8.13672 23.5695C8.23123 23.7165 8.35997 23.8366 8.51075 23.9195C8.66148 24.0023 8.82975 24.0455 9.00038 24.0455C9.17101 24.0455 9.33929 24.0023 9.49002 23.9195C9.64079 23.8366 9.76953 23.7166 9.86404 23.5695C9.86404 23.5695 9.86405 23.5695 9.86405 23.5695L16.1209 13.8325L1.45898 14.1028Z" stroke="#485C78"/>
<circle cx="9.00009" cy="9.00009" r="3.59091" stroke="#485C78"/>
</svg>
