<svg width="31" height="31" viewBox="0 0 31 31" fill="none" xmlns="http://www.w3.org/2000/svg">
<path d="M8.25 1C3.9 1 1 5.35 1 9.7C1 12.7595 2.45 16.95 3.9 18.4C5.35 19.85 6.8 30 9.7 30C16.283 30 12.6 19.85 15.5 19.85C18.4 19.85 14.717 30 21.3 30C24.2 30 25.65 19.85 27.1 18.4C28.55 16.95 30 12.7595 30 9.7C30 5.35 27.1 1 22.75 1C18.4 1 18.4 2.45 15.5 2.45C12.6 2.45 12.6 1 8.25 1Z" stroke="#485C78" stroke-width="2"/>
<path d="M22.0311 3.70803C22.1922 3.27272 22.8078 3.27272 22.9689 3.70802L23.8972 6.2166C24.0491 6.62718 24.3728 6.95089 24.7834 7.10282L27.292 8.03107C27.7273 8.19215 27.7273 8.80785 27.292 8.96893L24.7834 9.89718C24.3728 10.0491 24.0491 10.3728 23.8972 10.7834L22.9689 13.292C22.8078 13.7273 22.1922 13.7273 22.0311 13.292L21.1028 10.7834C20.9509 10.3728 20.6272 10.0491 20.2166 9.89718L17.708 8.96893C17.2727 8.80785 17.2727 8.19215 17.708 8.03107L20.2166 7.10282C20.6272 6.95089 20.9509 6.62717 21.1028 6.2166L22.0311 3.70803Z" stroke="#485C78"/>
</svg>
