<svg width="63" height="46" viewBox="0 0 63 46" fill="none" xmlns="http://www.w3.org/2000/svg">
<path d="M24.5249 16C20.1749 16 17.2749 20.35 17.2749 24.7C17.2749 27.7595 18.7249 31.95 20.1749 33.4C21.6249 34.85 23.0749 45 25.9749 45C32.5579 45 28.8749 34.85 31.7749 34.85C34.6749 34.85 30.9919 45 37.5749 45C40.4749 45 41.9249 34.85 43.3749 33.4C44.8249 31.95 46.2749 27.7595 46.2749 24.7C46.2749 20.35 43.3749 16 39.0249 16C34.6749 16 34.6749 17.45 31.7749 17.45C28.8749 17.45 28.8749 16 24.5249 16Z" stroke="#485C78" stroke-width="2"/>
<line x1="8.92549" y1="25.6436" x2="1.33163" y2="23.3102" stroke="#485C78" stroke-linecap="round"/>
<line x1="0.5" y1="-0.5" x2="8.44427" y2="-0.5" transform="matrix(0.955891 -0.293721 -0.293721 -0.955891 54.2754 25.3125)" stroke="#485C78" stroke-linecap="round"/>
<line x1="15.2545" y1="11.8571" x2="10.8787" y2="5.22659" stroke="#485C78" stroke-linecap="round"/>
<line x1="0.5" y1="-0.5" x2="8.44427" y2="-0.5" transform="matrix(0.550811 -0.83463 -0.83463 -0.550811 49.2754 11.999)" stroke="#485C78" stroke-linecap="round"/>
<line x1="26.086" y1="8.59213" x2="24.7242" y2="0.765455" stroke="#485C78" stroke-linecap="round"/>
<line x1="0.5" y1="-0.5" x2="8.44427" y2="-0.5" transform="matrix(0.171421 -0.985198 -0.985198 -0.171421 38.2754 8.81079)" stroke="#485C78" stroke-linecap="round"/>
</svg>
