<svg width="39" height="31" viewBox="0 0 39 31" fill="none" xmlns="http://www.w3.org/2000/svg">
<path d="M12.25 1C7.9 1 5 5.35 5 9.7C5 12.7595 6.45 16.95 7.9 18.4C9.35 19.85 10.8 30 13.7 30C20.283 30 16.6 19.85 19.5 19.85C22.4 19.85 18.717 30 25.3 30C28.2 30 29.65 19.85 31.1 18.4C32.55 16.95 34 12.7595 34 9.7C34 5.35 31.1 1 26.75 1C22.4 1 22.4 2.45 19.5 2.45C16.6 2.45 16.6 1 12.25 1Z" stroke="#485C78" stroke-width="2"/>
<rect x="16.5" y="6.5" width="6" height="4" rx="0.5" stroke="#485C78"/>
<line x1="19.5" y1="6.5" x2="19.5" y2="10.5" stroke="#485C78" stroke-linecap="round"/>
<line x1="0.5" y1="8.5" x2="38.5" y2="8.5" stroke="#485C78" stroke-linecap="round"/>
</svg>
