<svg width="31" height="31" viewBox="0 0 31 31" fill="none" xmlns="http://www.w3.org/2000/svg">
<path d="M8.25 1C3.9 1 1 5.35 1 9.7C1 12.7595 2.45 16.95 3.9 18.4C5.35 19.85 6.8 30 9.7 30C16.283 30 12.6 19.85 15.5 19.85C18.4 19.85 14.717 30 21.3 30C24.2 30 25.65 19.85 27.1 18.4C28.55 16.95 30 12.7595 30 9.7C30 5.35 27.1 1 22.75 1C18.4 1 18.4 2.45 15.5 2.45C12.6 2.45 12.6 1 8.25 1Z" stroke="#485C78" stroke-width="2"/>
<path d="M12.5 10.5L15.5 14L21 6" stroke="#485C78" stroke-width="2" stroke-linecap="round" stroke-linejoin="round"/>
</svg>
