<svg width="48" height="48" viewBox="0 0 48 48" fill="none" xmlns="http://www.w3.org/2000/svg">
<path d="M33 40.7717L29.115 36.8867L27 39.0017L33 45.0017L45 33.0017L42.885 30.8867L33 40.7717Z" fill="#485C78"/>
<path d="M22.5 42.0005H12V6.00051H24V15.0005C24.0024 15.7954 24.3192 16.5571 24.8813 17.1192C25.4434 17.6813 26.2051 17.9981 27 18.0005H36V27.0005H39V15.0005C39.0053 14.8034 38.9678 14.6074 38.8901 14.4262C38.8124 14.2449 38.6964 14.0826 38.55 13.9505L28.05 3.45051C27.9179 3.30403 27.7557 3.18794 27.5744 3.11025C27.3931 3.03256 27.1971 2.99512 27 3.00051H12C11.2051 3.00288 10.4434 3.31972 9.8813 3.88181C9.31921 4.44391 9.00237 5.20559 9 6.00051V42.0005C9.00237 42.7954 9.31921 43.5571 9.8813 44.1192C10.4434 44.6813 11.2051 44.9981 12 45.0005H22.5V42.0005ZM27 6.60051L35.4 15.0005H27V6.60051Z" fill="#485C78"/>
</svg>
