<svg width="32" height="40" viewBox="0 0 32 40" fill="none" xmlns="http://www.w3.org/2000/svg">
<path d="M20.1251 2.125L30.2084 12.2083M7.75008 19.0833H24.2501M7.75008 27.3333H24.2501M30.2084 12.2083H21.9584C21.4722 12.2083 21.0059 12.0152 20.6621 11.6714C20.3182 11.3275 20.1251 10.8612 20.1251 10.375V2.125H3.62508C3.13885 2.125 2.67254 2.31815 2.32872 2.66197C1.9849 3.00579 1.79175 3.4721 1.79175 3.95833V36.0417C1.79175 36.5279 1.9849 36.9942 2.32872 37.338C2.67254 37.6818 3.13885 37.875 3.62508 37.875H28.3751C28.8613 37.875 29.3276 37.6818 29.6714 37.338C30.0153 36.9942 30.2084 36.5279 30.2084 36.0417V12.2083Z" stroke="#485C78" stroke-width="3" stroke-linecap="round" stroke-linejoin="round"/>
</svg>
