<svg width="42" height="40" viewBox="0 0 42 40" fill="none" xmlns="http://www.w3.org/2000/svg">
<path d="M12.3999 0.799805C11.1269 0.799805 9.90596 1.30552 9.00579 2.20569C8.10562 3.10587 7.5999 4.32677 7.5999 5.5998V22.3998H9.9999V5.5998C9.9999 4.96329 10.2528 4.35284 10.7028 3.90275C11.1529 3.45266 11.7634 3.1998 12.3999 3.1998H29.1999C29.8364 3.1998 30.4469 3.45266 30.897 3.90275C31.347 4.35284 31.5999 4.96329 31.5999 5.5998V31.9998H24.3999V34.3998H33.9999C35.9095 34.3998 37.7408 33.6412 39.0911 32.291C40.4413 30.9407 41.1999 29.1094 41.1999 27.1998V22.3998H33.9999V5.5998C33.9999 4.32677 33.4942 3.10587 32.594 2.20569C31.6938 1.30552 30.4729 0.799805 29.1999 0.799805H12.3999ZM38.7999 27.1998C38.7999 28.4728 38.2942 29.6937 37.394 30.5939C36.4938 31.4941 35.2729 31.9998 33.9999 31.9998V24.7998H38.7999V27.1998ZM15.9999 7.9998C15.6816 7.9998 15.3764 8.12623 15.1514 8.35128C14.9263 8.57632 14.7999 8.88155 14.7999 9.19981C14.7999 9.51807 14.9263 9.82329 15.1514 10.0483C15.3764 10.2734 15.6816 10.3998 15.9999 10.3998H25.5999C25.9182 10.3998 26.2234 10.2734 26.4484 10.0483C26.6735 9.82329 26.7999 9.51807 26.7999 9.19981C26.7999 8.88155 26.6735 8.57632 26.4484 8.35128C26.2234 8.12623 25.9182 7.9998 25.5999 7.9998H15.9999ZM14.7999 13.9998C14.7999 13.6815 14.9263 13.3763 15.1514 13.1513C15.3764 12.9262 15.6816 12.7998 15.9999 12.7998H25.5999C25.9182 12.7998 26.2234 12.9262 26.4484 13.1513C26.6735 13.3763 26.7999 13.6815 26.7999 13.9998C26.7999 14.3181 26.6735 14.6233 26.4484 14.8483C26.2234 15.0734 25.9182 15.1998 25.5999 15.1998H15.9999C15.6816 15.1998 15.3764 15.0734 15.1514 14.8483C14.9263 14.6233 14.7999 14.3181 14.7999 13.9998ZM18.3999 24.7998C19.3547 24.7998 20.2704 25.1791 20.9455 25.8542C21.6206 26.5294 21.9999 27.445 21.9999 28.3998V35.5998C21.9999 36.5546 21.6206 37.4703 20.9455 38.1454C20.2704 38.8205 19.3547 39.1998 18.3999 39.1998H3.9999C3.04512 39.1998 2.12945 38.8205 1.45432 38.1454C0.779187 37.4703 0.399902 36.5546 0.399902 35.5998V28.3998C0.399902 27.445 0.779187 26.5294 1.45432 25.8542C2.12945 25.1791 3.04512 24.7998 3.9999 24.7998H18.3999ZM19.5999 35.5998V33.1998C18.6451 33.1998 17.7294 33.5791 17.0543 34.2542C16.3792 34.9294 15.9999 35.845 15.9999 36.7998H18.3999C18.3999 36.4815 18.5263 36.1763 18.7514 35.9513C18.9764 35.7262 19.2816 35.5998 19.5999 35.5998ZM19.5999 28.3998C19.2816 28.3998 18.9764 28.2734 18.7514 28.0483C18.5263 27.8233 18.3999 27.5181 18.3999 27.1998H15.9999C15.9999 28.1546 16.3792 29.0703 17.0543 29.7454C17.7294 30.4205 18.6451 30.7998 19.5999 30.7998V28.3998ZM3.9999 27.1998C3.9999 27.5181 3.87347 27.8233 3.64843 28.0483C3.42339 28.2734 3.11816 28.3998 2.7999 28.3998V30.7998C3.75468 30.7998 4.67036 30.4205 5.34549 29.7454C6.02062 29.0703 6.3999 28.1546 6.3999 27.1998H3.9999ZM2.7999 35.5998C3.11816 35.5998 3.42339 35.7262 3.64843 35.9513C3.87347 36.1763 3.9999 36.4815 3.9999 36.7998H6.3999C6.3999 35.845 6.02062 34.9294 5.34549 34.2542C4.67036 33.5791 3.75468 33.1998 2.7999 33.1998V35.5998ZM11.1999 28.3998C10.2451 28.3998 9.32945 28.7791 8.65432 29.4542C7.97919 30.1294 7.5999 31.045 7.5999 31.9998C7.5999 32.9546 7.97919 33.8703 8.65432 34.5454C9.32945 35.2205 10.2451 35.5998 11.1999 35.5998C12.1547 35.5998 13.0704 35.2205 13.7455 34.5454C14.4206 33.8703 14.7999 32.9546 14.7999 31.9998C14.7999 31.045 14.4206 30.1294 13.7455 29.4542C13.0704 28.7791 12.1547 28.3998 11.1999 28.3998Z" fill="#485C78"/>
</svg>
