<svg width="46" height="40" viewBox="0 0 46 40" fill="none" xmlns="http://www.w3.org/2000/svg">
<path d="M45.011 15.8003C45.0605 15.6233 45.119 15.4508 45.161 15.2708C45.17 15.2348 45.173 15.1988 45.182 15.1628C45.6105 13.4331 45.6088 11.6247 45.1771 9.89582C44.7454 8.1669 43.8968 6.57004 42.7055 5.24479C41.607 3.76764 40.1757 2.57027 38.5278 1.74983C36.8799 0.9294 35.0618 0.509015 33.221 0.522789H33.143C32.993 0.522789 32.825 0.533289 32.666 0.537789H32.4845C29.3144 0.712698 26.1633 1.14107 23.0615 1.81879L16.346 0.746289H16.2935C13.095 0.19369 9.80347 0.721426 6.93801 2.24629C5.32369 3.2192 3.93738 4.52776 2.87301 6.08329L2.81151 6.16579L2.77401 6.21829C1.36589 8.30714 0.600188 10.7626 0.571399 13.2815C0.542611 15.8005 1.252 18.2728 2.61201 20.3933C2.58351 20.4443 2.56701 20.5013 2.54001 20.5538C2.41 20.8138 2.2992 21.0831 2.20851 21.3593C2.16051 21.5093 2.12451 21.6683 2.09001 21.8243C2.06301 21.9518 2.03601 22.0778 2.01801 22.2053C1.9995 22.3642 1.98848 22.5239 1.98501 22.6838C1.98501 22.8128 1.97001 22.9388 1.97601 23.0663C1.98651 23.2343 2.00601 23.4008 2.03301 23.5673C2.05101 23.6858 2.06001 23.8043 2.08701 23.9213C2.13201 24.1058 2.19201 24.2873 2.26101 24.4643C2.29551 24.5588 2.31801 24.6563 2.36001 24.7493C2.48301 25.0238 2.63301 25.2833 2.81001 25.5263C3.48867 26.498 4.49005 27.1975 5.63601 27.5003C5.59325 28.1399 5.69971 28.7807 5.94701 29.3722C6.19431 29.9636 6.57568 30.4895 7.06101 30.9083C7.92057 31.6614 8.97478 32.1573 10.103 32.3393C10.3355 33.0938 10.7435 33.7823 11.2925 34.3493C12.0415 35.1614 13.0538 35.6822 14.15 35.8193C14.411 36.7088 14.906 37.5128 15.584 38.1443C16.4195 38.9663 17.5385 39.4343 18.71 39.4493C19.5716 39.4452 20.4178 39.2211 21.1685 38.7983C22.2845 39.4373 23.5925 39.6533 24.8555 39.4073C25.5184 39.286 26.1465 39.0203 26.6953 38.6292C27.2441 38.238 27.7001 37.7309 28.031 37.1438C28.0625 37.0943 28.0805 37.0508 28.109 37.0013C29.384 37.2623 30.7115 37.0328 31.826 36.3593C32.8061 35.806 33.5522 34.9159 33.926 33.8543C35.267 33.8723 36.566 33.3893 37.5665 32.4968C38.1147 32.0176 38.5404 31.4143 38.8081 30.7372C39.0759 30.0601 39.1778 29.3288 39.1055 28.6043C39.1055 28.5623 39.095 28.5293 39.092 28.4888C39.8749 28.2542 40.5791 27.8108 41.129 27.2063C41.84 26.4566 42.2977 25.5026 42.4377 24.4789C42.5776 23.4551 42.3927 22.4133 41.909 21.5003C43.2575 19.9421 44.2779 18.1279 44.909 16.1663C44.945 16.0508 44.975 15.9248 45.011 15.8003ZM42.443 13.2503C42.3682 14.0045 42.2025 14.7469 41.9495 15.4613L41.9015 15.6113C41.4031 16.9457 40.6841 18.187 39.7745 19.2833C35.069 15.1763 28.2245 9.18229 27.662 8.64529C27.0123 8.02341 26.1494 7.67351 25.25 7.66729C24.9711 7.66488 24.6934 7.70484 24.4265 7.78579C23.4755 8.08579 21.1385 8.83579 19.0985 9.59329C18.3185 9.88279 17.4275 9.14329 17.156 8.51329C16.976 8.13529 16.946 7.70329 17.069 7.30429C17.3135 6.86179 17.7245 6.53329 18.2105 6.39229C22.8248 4.77022 27.6458 3.81066 32.5295 3.54229H32.711C32.8775 3.54229 33.0425 3.53029 33.1955 3.52729C34.3158 3.50886 35.4281 3.71968 36.464 4.14679C38.0002 4.84701 39.3489 5.9007 40.4 7.22179C41.3382 8.28366 41.9944 9.56444 42.308 10.9463L42.3215 11.0153C42.3937 11.3845 42.4393 11.7585 42.458 12.1343C42.4625 12.2558 42.47 12.4088 42.47 12.5438C42.47 12.7613 42.47 12.9773 42.4445 13.1918L42.443 13.2503ZM5.01051 23.2388C5.00001 23.1743 5.00001 23.1038 5.00001 23.0363C4.98346 22.8918 4.98346 22.7458 5.00001 22.6013C5.01656 22.5161 5.0381 22.432 5.06451 22.3493C5.09451 22.2158 5.13951 22.0853 5.19351 21.9608C5.24301 21.8708 5.30001 21.7838 5.36301 21.7028C5.45228 21.5565 5.56075 21.4228 5.68551 21.3053L5.69451 21.2978L8.51601 18.9053C8.70347 18.7609 8.91755 18.6549 9.14601 18.5934C9.37446 18.5318 9.61281 18.5159 9.84742 18.5466C10.082 18.5772 10.3083 18.6538 10.5133 18.772C10.7183 18.8902 10.8979 19.0476 11.042 19.2353C11.1469 19.3889 11.215 19.5646 11.241 19.7488C11.2671 19.933 11.2503 20.1206 11.192 20.2973L6.76701 24.6083C6.46154 24.6138 6.15988 24.5399 5.89146 24.394C5.62303 24.2481 5.39703 24.0351 5.23551 23.7758C5.12404 23.6143 5.04741 23.4315 5.01051 23.2388ZM8.78451 26.8313L13.64 22.1003L13.6175 22.0778C13.8907 21.9417 14.1993 21.8935 14.501 21.9398C14.8865 22.0448 15.2345 22.2608 15.5 22.5608C15.764 22.7858 15.941 23.0948 16.001 23.4368C16.0233 23.7833 15.9474 24.129 15.782 24.4343C15.7667 24.476 15.7537 24.5186 15.743 24.5618L10.8365 29.3423C10.4922 29.3573 10.1488 29.2981 9.8294 29.1687C9.51003 29.0393 9.22222 28.8427 8.98551 28.5923C8.79071 28.3469 8.66861 28.0518 8.63308 27.7405C8.59756 27.4293 8.65001 27.1143 8.78451 26.8313ZM12.962 31.4588L18.032 26.5253C18.3545 26.5898 18.65 26.7548 18.875 26.9963C19.186 27.2685 19.4024 27.6326 19.493 28.0358C19.5167 28.2092 19.5091 28.3855 19.4705 28.5563L15.086 32.8238C14.7935 32.8781 14.492 32.857 14.2098 32.7625C13.9277 32.6681 13.6743 32.5033 13.4735 32.2838C13.2392 32.0538 13.0638 31.7709 12.962 31.4588ZM17.6675 35.9768C17.3962 35.7372 17.182 35.4399 17.0405 35.1068L21.182 31.0763C21.4775 31.1738 21.7475 31.3343 21.974 31.5458C22.1855 31.7147 22.3451 31.9398 22.4345 32.1953C22.4854 32.3844 22.4854 32.5837 22.4345 32.7728C22.2471 33.3779 21.9349 33.9369 21.518 34.4138L20.384 35.7338H20.393C20.3555 35.7578 20.3135 35.7683 20.279 35.7953C19.8561 36.1813 19.3119 36.4078 18.74 36.4358C18.3362 36.429 17.9512 36.2642 17.6675 35.9768ZM24.3785 36.4373C24.1565 36.4718 23.933 36.4823 23.7095 36.4673L23.8205 36.3383L23.8565 36.2948L23.858 36.2963C24.3126 35.7344 24.6975 35.1194 25.004 34.4648L25.667 35.1668C25.6127 35.3081 25.5475 35.445 25.472 35.5763C25.3651 35.792 25.2115 35.9812 25.0223 36.1301C24.8332 36.279 24.6133 36.3839 24.3785 36.4373ZM33.9785 30.8498L31.31 27.8933C31.0809 27.6252 30.7645 27.4465 30.4166 27.3887C30.0687 27.3308 29.7115 27.3976 29.408 27.5771C29.1044 27.7567 28.8739 28.0375 28.7571 28.3703C28.6402 28.703 28.6444 29.0663 28.769 29.3963C28.8384 29.5834 28.9445 29.7547 29.081 29.9003L31.235 32.3003C31.22 32.4533 31.1885 32.6048 31.1405 32.7503C31.0156 33.1752 30.7306 33.535 30.3455 33.7538C29.8765 34.0614 29.3074 34.1774 28.7555 34.0778L26.9555 32.1668C26.7612 31.9624 26.5128 31.8174 26.2393 31.7486C25.9658 31.6799 25.6784 31.6901 25.4105 31.7783C25.3873 31.6326 25.3557 31.4884 25.316 31.3463C25.0684 30.5625 24.6077 29.8629 23.9855 29.3258C23.5496 28.9281 23.0502 28.6061 22.508 28.3733C22.5184 28.0942 22.5009 27.8148 22.4555 27.5393C22.2621 26.5178 21.7489 25.5843 20.99 24.8738C20.4384 24.3152 19.7564 23.9028 19.0055 23.6738C19.013 23.4728 19.0055 23.2733 18.983 23.0738C18.8428 22.0635 18.3599 21.132 17.615 20.4353C16.9367 19.7252 16.0654 19.2293 15.1085 19.0088C14.783 18.9459 14.451 18.9233 14.12 18.9413C14.0023 18.3841 13.7642 17.8594 13.4225 17.4038C13.0374 16.9037 12.5575 16.4845 12.0102 16.1701C11.4628 15.8557 10.8589 15.6524 10.2329 15.5717C9.60689 15.491 8.97112 15.5346 8.36199 15.7C7.75285 15.8653 7.1823 16.1492 6.68301 16.5353L6.63051 16.5773L4.77801 18.1373C3.90937 16.5555 3.49376 14.7648 3.57685 12.9621C3.65995 11.1594 4.23854 9.41448 5.24901 7.91929L5.28051 7.87429C6.10181 6.64971 7.17911 5.61796 8.43801 4.85029C10.7345 3.6543 13.364 3.2579 15.911 3.72379L16.607 3.83479C15.5787 4.29814 14.7573 5.12432 14.3 6.15529C14.0789 6.72094 13.9738 7.32525 13.9908 7.93234C14.0078 8.53942 14.1466 9.1369 14.399 9.68929C14.8483 10.7761 15.6863 11.6566 16.7495 12.1591C17.8128 12.6616 19.0251 12.7501 20.15 12.4073C22.13 11.6738 24.401 10.9373 25.25 10.6688C25.3175 10.6666 25.3847 10.6796 25.4465 10.7068C25.5083 10.7341 25.5631 10.7749 25.607 10.8263C26.3405 11.5163 35.195 19.2668 38.894 22.4903L39.194 22.7468C39.4269 23.1241 39.5265 23.5686 39.4767 24.0092C39.427 24.4498 39.2307 24.861 38.9195 25.1768C38.7058 25.4071 38.425 25.5646 38.117 25.6268L35.5175 22.9913C35.2346 22.722 34.8581 22.5731 34.4675 22.5761C34.0769 22.5792 33.7028 22.7338 33.4241 23.0075C33.1453 23.2811 32.9838 23.6524 32.9737 24.0429C32.9635 24.4333 33.1054 24.8125 33.3695 25.1003L35.8535 27.6173C35.864 27.6623 35.876 27.7073 35.8895 27.7508L35.9075 27.7973C36.0201 28.1175 36.0883 28.4516 36.11 28.7903C36.1517 29.0475 36.1295 29.3109 36.0456 29.5576C35.9616 29.8042 35.8184 30.0264 35.6285 30.2048C35.18 30.6248 34.5875 30.8558 33.974 30.8498H33.9785Z" fill="#485C78"/>
</svg>
