<svg width="39" height="39" viewBox="0 0 39 39" fill="none" xmlns="http://www.w3.org/2000/svg">
<path d="M10.75 2C5.5 2 2 7.25 2 12.5C2 16.1925 3.75 21.25 5.5 23C7.25 24.75 9 37 12.5 37C20.445 37 16 24.75 19.5 24.75C23 24.75 18.555 37 26.5 37C30 37 31.75 24.75 33.5 23C35.25 21.25 37 16.1925 37 12.5C37 7.25 33.5 2 28.25 2C23 2 23 3.75 19.5 3.75C16 3.75 16 2 10.75 2Z" stroke="#485C78" stroke-width="3"/>
<path d="M15.8793 13.4652L19.5 17.6894L26.1379 8.03418" stroke="#485C78" stroke-width="3" stroke-linecap="round" stroke-linejoin="round"/>
</svg>
