<svg width="36" height="44" viewBox="0 0 36 44" fill="none" xmlns="http://www.w3.org/2000/svg">
<path d="M33.0938 22.0424L33.0815 22.0713L33.0704 22.1008C32.4228 23.8207 31.4411 25.4195 30.1702 26.8156L29.7794 27.2449V27.8254V41.2793C29.7794 41.6167 29.4522 41.8572 29.1303 41.7566L18.3226 38.378L17.875 38.2381L17.4274 38.378L6.61975 41.7566C6.29777 41.8572 5.97056 41.6167 5.97056 41.2793V27.8254V27.2267L5.55834 26.7925C2.92388 24.0179 1.48931 20.4472 1.50241 16.7682L1.50247 16.7521L1.50218 16.736C1.46673 14.7568 1.86404 12.7892 2.67264 10.9536C3.4814 9.11763 4.68593 7.44957 6.21751 6.05547L6.23549 6.03911L6.25292 6.02218C7.74518 4.57273 9.54392 3.42025 11.5408 2.64079C13.5377 1.86129 15.687 1.47279 17.8552 1.50148L17.875 1.50174L17.8948 1.50148C20.063 1.47279 22.2123 1.86129 24.2093 2.64079C26.2061 3.42025 28.0048 4.57273 29.4971 6.02218L29.5145 6.03911L29.5325 6.05547C31.0641 7.44957 32.2686 9.11763 33.0774 10.9536C33.8854 12.7879 34.2827 14.754 34.2479 16.7318C34.2043 18.5499 33.8142 20.3482 33.0938 22.0424Z" stroke="#485C78" stroke-width="3"/>
<circle cx="17.875" cy="16.9583" r="7.20833" stroke="#485C78" stroke-width="3"/>
</svg>
