<svg width="15" height="20" viewBox="0 0 15 20" fill="none" xmlns="http://www.w3.org/2000/svg">
<path d="M0.751244 18.4615H14.2488C14.4361 18.4612 14.6169 18.5328 14.7553 18.6623C14.8938 18.7918 14.98 18.9698 14.9969 19.1613C15.0139 19.3527 14.9603 19.5437 14.8468 19.6967C14.7333 19.8496 14.5681 19.9534 14.3837 19.9877L14.2488 20H0.751244C0.56386 20.0004 0.383136 19.9287 0.244663 19.7992C0.106189 19.6697 0.0199999 19.4917 0.00306878 19.3003C-0.0138623 19.1088 0.0396913 18.9178 0.153184 18.7649C0.266676 18.6119 0.431882 18.5081 0.616269 18.4738L0.751244 18.4615ZM7.36502 0.0123078L7.5 4.27851e-08C7.67551 -5.99786e-05 7.84547 0.063033 7.9803 0.178291C8.11513 0.29355 8.20627 0.453671 8.23786 0.630769L8.24986 0.769231V14.2954L12.2721 10.1708C12.3962 10.0433 12.5599 9.96461 12.7348 9.94831C12.9096 9.932 13.0845 9.97915 13.2289 10.0815L13.3339 10.1708C13.4579 10.2982 13.5344 10.4663 13.55 10.6457C13.5656 10.825 13.5194 11.0043 13.4194 11.1523L13.3324 11.2585L8.0309 16.6985C7.90664 16.8257 7.74282 16.9041 7.56798 16.9201C7.39313 16.9361 7.21835 16.8887 7.07408 16.7862L6.9691 16.6985L1.66758 11.2585C1.53472 11.1228 1.45623 10.941 1.44756 10.7489C1.43889 10.5568 1.50068 10.3683 1.62075 10.2206C1.74081 10.073 1.91045 9.97676 2.09622 9.95101C2.282 9.92527 2.47043 9.97183 2.6244 10.0815L2.72788 10.1708L6.75014 14.2954V0.769231C6.75008 0.589191 6.81158 0.414835 6.92394 0.276525C7.0363 0.138215 7.19239 0.0447148 7.36502 0.0123078Z" fill="#3B3B3B"/>
</svg>
