<svg width="52" height="62" viewBox="0 0 52 62" fill="none" xmlns="http://www.w3.org/2000/svg">
<path d="M6.45658 0.142578C4.81982 0.142578 3.25009 0.792781 2.09273 1.95015C0.935359 3.10752 0.285156 4.67724 0.285156 6.31401V55.6854C0.285156 57.3222 0.935359 58.8919 2.09273 60.0493C3.25009 61.2067 4.81982 61.8569 6.45658 61.8569H45.5423C47.1791 61.8569 48.7488 61.2067 49.9062 60.0493C51.0635 58.8919 51.7137 57.3222 51.7137 55.6854V24.7717C51.7137 22.8972 50.968 21.0997 49.6437 19.7729L31.8212 1.95029C30.6638 0.792908 29.0942 0.142655 27.4574 0.142578H6.45658ZM4.1423 6.31401C4.1423 5.70022 4.38612 5.11157 4.82014 4.67756C5.25415 4.24355 5.8428 3.99972 6.45658 3.99972H25.9994V20.714C25.9994 22.078 26.5413 23.3861 27.5058 24.3506C28.4702 25.315 29.7783 25.8569 31.1423 25.8569H47.8566V55.6854C47.8566 56.2992 47.6128 56.8879 47.1787 57.3219C46.7447 57.7559 46.1561 57.9997 45.5423 57.9997H6.45658C5.8428 57.9997 5.25415 57.7559 4.82014 57.3219C4.38612 56.8879 4.1423 56.2992 4.1423 55.6854V6.31401ZM46.4166 21.9997H31.1423C30.8013 21.9997 30.4743 21.8643 30.2332 21.6231C29.992 21.382 29.8566 21.055 29.8566 20.714V5.43972L46.4166 21.9997Z" fill="#485C78"/>
</svg>
