<svg width="49" height="49" viewBox="0 0 49 49" fill="none" xmlns="http://www.w3.org/2000/svg">
<path d="M22.6773 2.03573C23.3859 0.466691 25.6141 0.466685 26.3227 2.03572L32.4339 15.5666C32.6343 16.0103 32.9897 16.3657 33.4334 16.5661L46.9643 22.6773C48.5333 23.3859 48.5333 25.6141 46.9643 26.3227L33.4334 32.4339C32.9897 32.6343 32.6343 32.9897 32.4339 33.4334L26.3227 46.9643C25.6141 48.5333 23.3859 48.5333 22.6773 46.9643L16.5661 33.4334C16.3657 32.9897 16.0103 32.6343 15.5666 32.4339L2.03573 26.3227C0.466691 25.6141 0.466685 23.3859 2.03572 22.6773L15.5666 16.5661C16.0103 16.3657 16.3657 16.0103 16.5661 15.5666L22.6773 2.03573Z" fill="#39A0A6"/>
</svg>
