<svg width="44" height="44" viewBox="0 0 44 44" fill="none" xmlns="http://www.w3.org/2000/svg">
<path d="M43.5979 41.6385L30.2376 28.1964C32.7277 25.2141 34.2285 21.3771 34.2285 17.1875C34.2285 7.69519 26.5333 0 17.041 0C7.5487 0 -0.146484 7.69519 -0.146484 17.1875C-0.146484 26.6798 7.5487 34.375 17.041 34.375C21.3537 34.375 25.2931 32.7827 28.3112 30.1579L41.6528 43.5834C42.1898 44.1204 43.0609 44.1204 43.5978 43.5834C44.1341 43.0464 44.1341 42.1761 43.5978 41.6385H43.5979ZM17.041 31.6477C9.05502 31.6477 2.58083 25.1735 2.58083 17.1875C2.58083 9.2015 9.05502 2.72731 17.041 2.72731C25.027 2.72731 31.5012 9.2015 31.5012 17.1875C31.5012 25.1735 25.027 31.6477 17.041 31.6477Z" fill="#39A0A6"/>
</svg>
