<svg width="49" height="48" viewBox="0 0 49 48" fill="none" xmlns="http://www.w3.org/2000/svg">
<path d="M10.9386 0C11.3331 0 11.7115 0.158035 11.9904 0.43934C12.2694 0.720644 12.4261 1.10218 12.4261 1.5V3H36.2255V1.5C36.2255 1.10218 36.3822 0.720644 36.6612 0.43934C36.9402 0.158035 37.3185 0 37.713 0C38.1075 0 38.4858 0.158035 38.7648 0.43934C39.0437 0.720644 39.2005 1.10218 39.2005 1.5V3H42.1754C43.7534 3 45.2668 3.63214 46.3826 4.75736C47.4984 5.88258 48.1253 7.4087 48.1253 9V42C48.1253 43.5913 47.4984 45.1174 46.3826 46.2426C45.2668 47.3679 43.7534 48 42.1754 48H6.47623C4.89823 48 3.38486 47.3679 2.26904 46.2426C1.15323 45.1174 0.526367 43.5913 0.526367 42V9C0.526367 7.4087 1.15323 5.88258 2.26904 4.75736C3.38486 3.63214 4.89823 3 6.47623 3H9.45116V1.5C9.45116 1.10218 9.60787 0.720644 9.88683 0.43934C10.1658 0.158035 10.5441 0 10.9386 0V0ZM3.5013 12V42C3.5013 42.7957 3.81473 43.5587 4.37263 44.1213C4.93054 44.6839 5.68723 45 6.47623 45H42.1754C42.9644 45 43.7211 44.6839 44.279 44.1213C44.8369 43.5587 45.1503 42.7957 45.1503 42V12H3.5013Z" fill="#1B7076"/>
</svg>
