<svg width="46" height="46" viewBox="0 0 46 46" fill="none" xmlns="http://www.w3.org/2000/svg">
<path d="M22.0886 2.44733C22.443 1.66281 23.557 1.66282 23.9114 2.44733L29.5558 14.9449C29.8564 15.6105 30.3895 16.1436 31.0551 16.4442L43.5527 22.0886C44.3372 22.443 44.3372 23.557 43.5527 23.9114L31.0551 29.5558C30.3895 29.8564 29.8564 30.3895 29.5558 31.0551L23.9114 43.5527C23.557 44.3372 22.443 44.3372 22.0886 43.5527L16.4442 31.0551C16.1436 30.3895 15.6105 29.8564 14.9449 29.5558L2.44733 23.9114C1.66281 23.557 1.66282 22.443 2.44733 22.0886L14.9449 16.4442C15.6105 16.1435 16.1435 15.6105 16.4442 14.9449L22.0886 2.44733Z" stroke="#39A0A6" stroke-width="2"/>
</svg>
