<svg width="38" height="38" viewBox="0 0 38 38" fill="none" xmlns="http://www.w3.org/2000/svg">
<path d="M17.1773 2.03572C17.8859 0.466688 20.1141 0.466686 20.8227 2.03572L25.2227 11.7778C25.4231 12.2215 25.7785 12.5769 26.2222 12.7773L35.9643 17.1773C37.5333 17.8859 37.5333 20.1141 35.9643 20.8227L26.2222 25.2227C25.7785 25.4231 25.4231 25.7785 25.2227 26.2222L20.8227 35.9643C20.1141 37.5333 17.8859 37.5333 17.1773 35.9643L12.7773 26.2222C12.5769 25.7785 12.2215 25.4231 11.7778 25.2227L2.03572 20.8227C0.466688 20.1141 0.466686 17.8859 2.03572 17.1773L11.7778 12.7773C12.2215 12.5769 12.5769 12.2215 12.7773 11.7778L17.1773 2.03572Z" fill="#39A0A6"/>
</svg>
