<svg width="24" height="24" viewBox="0 0 24 24" fill="none" xmlns="http://www.w3.org/2000/svg">
<path d="M10.1773 2.03572C10.8859 0.466685 13.1141 0.466686 13.8227 2.03572L16.0448 6.9557C16.2452 7.39941 16.6006 7.75479 17.0443 7.95519L21.9643 10.1773C23.5333 10.8859 23.5333 13.1141 21.9643 13.8227L17.0443 16.0448C16.6006 16.2452 16.2452 16.6006 16.0448 17.0443L13.8227 21.9643C13.1141 23.5333 10.8859 23.5333 10.1773 21.9643L7.95519 17.0443C7.75479 16.6006 7.39941 16.2452 6.9557 16.0448L2.03572 13.8227C0.466685 13.1141 0.466686 10.8859 2.03572 10.1773L6.9557 7.95519C7.39941 7.75479 7.75479 7.39941 7.95519 6.9557L10.1773 2.03572Z" fill="#31C0C9"/>
</svg>
