<svg width="20" height="20" viewBox="0 0 20 20" fill="none" xmlns="http://www.w3.org/2000/svg">
<path d="M12.793 6.82617L13.4053 5.59082H14.8232L13.2549 11.7783C13.2262 11.8929 13.2048 12.0039 13.1904 12.1113C13.1761 12.2188 13.1689 12.319 13.1689 12.4121C13.1689 12.7415 13.2585 12.9922 13.4375 13.1641C13.6237 13.3359 13.8923 13.4219 14.2432 13.4219C14.5869 13.4219 14.9521 13.3288 15.3389 13.1426C15.7327 12.9492 16.1159 12.6771 16.4883 12.3262C17.0612 11.7819 17.5088 11.1159 17.8311 10.3281C18.1533 9.5332 18.3145 8.69531 18.3145 7.81445C18.3145 5.95964 17.6305 4.45573 16.2627 3.30273C14.902 2.14974 13.1152 1.57324 10.9023 1.57324C9.94987 1.57324 9.06901 1.6735 8.25977 1.87402C7.45052 2.07454 6.69499 2.38249 5.99316 2.79785C4.62533 3.61426 3.56543 4.68848 2.81348 6.02051C2.06152 7.34538 1.68555 8.8099 1.68555 10.4141C1.68555 11.6816 1.90397 12.7845 2.34082 13.7227C2.78483 14.6608 3.47591 15.4844 4.41406 16.1934C5.13021 16.7448 5.97526 17.1673 6.94922 17.4609C7.93034 17.7617 8.96159 17.9121 10.043 17.9121C11.2533 17.9121 12.4277 17.7367 13.5664 17.3857C14.7122 17.0348 15.7614 16.5299 16.7139 15.8711L17.3047 16.752C16.2448 17.5469 15.1169 18.1449 13.9209 18.5459C12.7321 18.9469 11.4824 19.1475 10.1719 19.1475C8.8112 19.1475 7.5651 18.9792 6.43359 18.6426C5.30208 18.306 4.29948 17.8047 3.42578 17.1387C2.32292 16.2936 1.49935 15.3125 0.955078 14.1953C0.410807 13.0781 0.138672 11.8105 0.138672 10.3926C0.138672 9.21094 0.32487 8.09017 0.697266 7.03027C1.06966 5.97038 1.61035 5.00716 2.31934 4.14062C3.36491 2.86589 4.62174 1.89909 6.08984 1.24023C7.5651 0.58138 9.19792 0.251953 10.9883 0.251953C12.1556 0.251953 13.2656 0.413086 14.3184 0.735352C15.3711 1.05762 16.277 1.51237 17.0361 2.09961C17.9671 2.81576 18.6725 3.6429 19.1523 4.58105C19.6393 5.51921 19.8828 6.53255 19.8828 7.62109C19.8828 8.87435 19.6536 10.0023 19.1953 11.0049C18.7441 12.0075 18.0853 12.8525 17.2188 13.54C16.7318 13.9268 16.1947 14.224 15.6074 14.4316C15.0273 14.6393 14.4329 14.7432 13.8242 14.7432C13.1152 14.7432 12.5781 14.6035 12.2129 14.3242C11.8548 14.0378 11.6758 13.6152 11.6758 13.0566V12.8525C11.2819 13.4899 10.82 13.9626 10.29 14.2705C9.76009 14.5713 9.14421 14.7217 8.44238 14.7217C7.34668 14.7217 6.50879 14.4173 5.92871 13.8086C5.35579 13.1999 5.06934 12.3154 5.06934 11.1553C5.06934 9.47233 5.56348 8.06152 6.55176 6.92285C7.54004 5.78418 8.75391 5.21484 10.1934 5.21484C10.8021 5.21484 11.3213 5.35091 11.751 5.62305C12.1878 5.88802 12.5352 6.28906 12.793 6.82617ZM11.7832 10.8975L12.417 8.3623C12.2952 7.7321 12.0482 7.24512 11.6758 6.90137C11.3105 6.55762 10.8486 6.38574 10.29 6.38574C9.30176 6.38574 8.47103 6.85124 7.79785 7.78223C7.12467 8.71322 6.78809 9.85547 6.78809 11.209C6.78809 11.9609 6.95996 12.541 7.30371 12.9492C7.65462 13.3574 8.14876 13.5615 8.78613 13.5615C9.48079 13.5615 10.1038 13.3145 10.6553 12.8203C11.2139 12.3262 11.5898 11.6852 11.7832 10.8975Z" fill="#485C78"/>
</svg>
