<svg width="22" height="21" viewBox="0 0 22 21" fill="none" xmlns="http://www.w3.org/2000/svg">
<path d="M17.0142 20.5L17.0128 20.5C16.8335 20.4995 16.6547 20.4803 16.4796 20.4427L16.4796 20.4427L16.4737 20.4415C12.5831 19.6558 9.00017 17.8143 6.13657 15.1304C3.33826 12.4429 1.39861 9.02329 0.550233 5.28542C0.466759 4.89409 0.487558 4.48841 0.610846 4.10686C0.734442 3.72436 0.957233 3.37798 1.25911 3.10168L1.25913 3.10171L1.26389 3.09724L3.80897 0.705998C3.88723 0.634121 3.98079 0.578387 4.08394 0.543082C4.18612 0.508105 4.29496 0.49413 4.40339 0.50224C4.51571 0.514402 4.62347 0.550033 4.71931 0.606162C4.81655 0.663117 4.89882 0.739582 4.96099 0.829461L4.96126 0.829849L8.14223 5.41923C8.20006 5.50683 8.22713 5.60869 8.2211 5.71034C8.21501 5.81304 8.1753 5.91269 8.10563 5.99435C8.10559 5.9944 8.10555 5.99444 8.10551 5.99449L6.50796 7.85838L6.29892 8.10228L6.43385 8.39379C7.09699 9.82647 8.03546 11.1207 9.19771 12.2066C10.3527 13.3301 11.7168 14.2268 13.2161 14.8486L13.4844 14.9599L13.714 14.7819L15.6933 13.2474C15.6934 13.2473 15.6935 13.2472 15.6936 13.2472C15.7801 13.1805 15.8867 13.1402 15.9995 13.1331C16.1101 13.1261 16.2195 13.1516 16.3135 13.205L21.1126 16.2329L21.12 16.2376L21.1276 16.2421C21.2282 16.3007 21.3128 16.3801 21.3758 16.4737C21.4388 16.5672 21.4788 16.6725 21.4936 16.7818C21.5083 16.8911 21.4976 17.0023 21.462 17.1074C21.4268 17.2112 21.368 17.307 21.289 17.3874L18.8098 19.7826L18.8088 19.7836C18.574 20.0117 18.2947 20.1928 17.9865 20.316C17.6784 20.4392 17.3479 20.5018 17.0142 20.5Z" stroke="white"/>
</svg>
