<svg width="37" height="38" viewBox="0 0 37 38" fill="none" xmlns="http://www.w3.org/2000/svg">
<path d="M28.0001 0.5V6.5C25.2281 6.5 22.5806 6.998 20.1011 7.865L19.3106 6.143L20.6636 5.5385L19.4456 2.7965L13.9676 5.234L15.1856 7.976L16.5686 7.361L17.3366 9.02C15.7076 9.8388 14.1764 10.8392 12.7721 12.002L11.5931 10.748L12.6836 9.746L10.6571 7.532L6.23811 11.5925L8.26611 13.8065L9.37911 12.7805L10.5866 14.0525C9.14501 15.5813 7.91137 17.2936 6.91761 19.145L5.29461 18.3425L5.96961 17.018L3.29661 15.6575L0.578613 21.008L3.25011 22.367L3.93561 21.014L5.65311 21.869C4.7644 24.151 4.23217 26.5561 4.07511 29H1.00011V38H37.0001V0.5H28.0001ZM31.0001 3.5H34.0001V29H7.07511C7.84461 18.0905 16.8926 9.5 28.0001 9.5H31.0001V3.5ZM22.0001 13.9295C21.3389 13.929 20.6961 14.1469 20.1714 14.5493C19.6468 14.9517 19.2697 15.516 19.0987 16.1547C18.9277 16.7934 18.9723 17.4707 19.2258 18.0814C19.4792 18.6921 19.9271 19.202 20.5001 19.532V26H28.0001V23H23.5001V19.526C24.0728 19.1966 24.5207 18.6872 24.774 18.077C25.0273 17.4669 25.0719 16.7901 24.9008 16.1519C24.7297 15.5138 24.3525 14.95 23.828 14.5484C23.3034 14.1468 22.6608 13.9297 22.0001 13.931V13.9295ZM4.00011 32H34.0001V35H4.00011V32Z" fill="#485C78"/>
</svg>
