<svg width="48" height="48" viewBox="0 0 48 48" fill="none" xmlns="http://www.w3.org/2000/svg">
<g clip-path="url(#clip0_766_118)">
<path d="M20 10.666H32V13.3327H20V10.666Z" fill="#31C0C9"/>
<path d="M20 16H32V18.6667H20V16Z" fill="#31C0C9"/>
<path d="M20 21.334H32V24.0007H20V21.334Z" fill="#31C0C9"/>
<path d="M20 26.666H32V29.3327H20V26.666Z" fill="#31C0C9"/>
<path d="M20 32H32V34.6667H20V32Z" fill="#31C0C9"/>
<path d="M14.6666 10.666H17.3333V13.3327H14.6666V10.666Z" fill="#31C0C9"/>
<path d="M14.6666 16H17.3333V18.6667H14.6666V16Z" fill="#31C0C9"/>
<path d="M14.6666 21.334H17.3333V24.0007H14.6666V21.334Z" fill="#31C0C9"/>
<path d="M14.6666 26.666H17.3333V29.3327H14.6666V26.666Z" fill="#31C0C9"/>
<path d="M14.6666 32H17.3333V34.6667H14.6666V32Z" fill="#31C0C9"/>
<path d="M37.3333 2.66602H10.6667C9.95942 2.66602 9.28115 2.94697 8.78105 3.44706C8.28095 3.94716 8 4.62544 8 5.33268V42.666C8 43.3733 8.28095 44.0515 8.78105 44.5516C9.28115 45.0517 9.95942 45.3327 10.6667 45.3327H37.3333C38.0406 45.3327 38.7189 45.0517 39.219 44.5516C39.719 44.0515 40 43.3733 40 42.666V5.33268C40 4.62544 39.719 3.94716 39.219 3.44706C38.7189 2.94697 38.0406 2.66602 37.3333 2.66602ZM37.3333 42.666H10.6667V5.33268H37.3333V42.666Z" fill="#31C0C9"/>
</g>
<defs>
<clipPath id="clip0_766_118">
<rect width="48" height="48" fill="white"/>
</clipPath>
</defs>
</svg>
