<svg width="44" height="33" viewBox="0 0 44 33" fill="none" xmlns="http://www.w3.org/2000/svg">
<path d="M30.7857 24.8333L36.6429 24.8333C38.1963 24.8333 39.6861 24.4821 40.7845 23.857C41.8829 23.2319 42.5 22.3841 42.5 21.5L42.5 4.83333C42.5 3.94928 41.8829 3.10143 40.7845 2.47631C39.6861 1.85119 38.1963 1.5 36.6429 1.5L19.0714 1.5C17.518 1.5 16.0282 1.85119 14.9298 2.47631C13.8314 3.10143 13.2143 3.94928 13.2143 4.83333L13.2143 8.16667M1.5 11.5L1.5 28.1667C1.5 29.0507 2.11709 29.8986 3.21552 30.5237C4.31394 31.1488 5.80373 31.5 7.35714 31.5L24.9286 31.5C26.482 31.5 27.9718 31.1488 29.0702 30.5237C30.1686 29.8986 30.7857 29.0507 30.7857 28.1667L30.7857 11.5C30.7857 10.6159 30.1686 9.7681 29.0702 9.14298C27.9718 8.51786 26.482 8.16667 24.9286 8.16667L7.35714 8.16666C5.80373 8.16666 4.31395 8.51785 3.21552 9.14298C2.11709 9.7681 1.5 10.6159 1.5 11.5ZM16.1429 23.1667C14.5894 23.1667 13.0997 22.8155 12.0012 22.1904C10.9028 21.5652 10.2857 20.7174 10.2857 19.8333C10.2857 18.9493 10.9028 18.1014 12.0012 17.4763C13.0997 16.8512 14.5894 16.5 16.1429 16.5C17.6963 16.5 19.1861 16.8512 20.2845 17.4763C21.3829 18.1014 22 18.9493 22 19.8333C22 20.7174 21.3829 21.5652 20.2845 22.1904C19.1861 22.8155 17.6963 23.1667 16.1429 23.1667Z" stroke="#485C78" stroke-width="3" stroke-linecap="round" stroke-linejoin="round"/>
</svg>
