<svg width="59" height="46" viewBox="0 0 59 46" fill="none" xmlns="http://www.w3.org/2000/svg">
<path d="M37.9688 32.7812C37.9688 34.8229 38.6771 36.5521 40.0938 37.9688C41.5312 39.3646 43.2812 40.0625 45.3438 40.0625C47.3646 40.0625 49.0833 39.3646 50.5 37.9688C51.9167 36.5521 52.625 34.8229 52.625 32.7812C52.625 30.7396 51.9167 29 50.5 27.5625C49.0833 26.125 47.3646 25.4062 45.3438 25.4062C43.3021 25.4062 41.5625 26.125 40.125 27.5625C38.6875 29 37.9688 30.7396 37.9688 32.7812ZM32.2812 32.7812C32.2812 29.1354 33.5417 26.0521 36.0625 23.5312C38.6042 20.9896 41.6979 19.7188 45.3438 19.7188C48.9688 19.7188 52.0417 20.9896 54.5625 23.5312C57.0833 26.0521 58.3438 29.1354 58.3438 32.7812C58.3438 36.3854 57.0729 39.4583 54.5312 42C52.0104 44.5208 48.9479 45.7812 45.3438 45.7812C41.6979 45.7812 38.6042 44.5208 36.0625 42C33.5417 39.4792 32.2812 36.4062 32.2812 32.7812ZM12.125 45.7812L41.625 0.53125H46.875L17.25 45.7812H12.125ZM6.3125 13.5625C6.3125 15.625 7.01042 17.375 8.40625 18.8125C9.82292 20.2292 11.5521 20.9375 13.5938 20.9375C15.6146 20.9375 17.3333 20.2292 18.75 18.8125C20.1875 17.375 20.9062 15.625 20.9062 13.5625C20.9062 11.5417 20.1875 9.82292 18.75 8.40625C17.3333 6.98958 15.6146 6.28125 13.5938 6.28125C11.5521 6.28125 9.82292 6.98958 8.40625 8.40625C7.01042 9.80208 6.3125 11.5208 6.3125 13.5625ZM0.59375 13.625C0.59375 9.97917 1.84375 6.89583 4.34375 4.375C6.86458 1.85417 9.94792 0.59375 13.5938 0.59375C17.2188 0.59375 20.3021 1.86458 22.8438 4.40625C25.3854 6.92708 26.6562 10 26.6562 13.625C26.6562 17.25 25.3854 20.3229 22.8438 22.8438C20.3021 25.3646 17.2188 26.625 13.5938 26.625C9.96875 26.625 6.89583 25.375 4.375 22.875C1.85417 20.3542 0.59375 17.2708 0.59375 13.625Z" fill="#6C88AE"/>
</svg>
