<svg width="34" height="34" viewBox="0 0 34 34" fill="none" xmlns="http://www.w3.org/2000/svg">
<path d="M17.6835 31.4498C17.4178 32.0382 16.5822 32.0381 16.3165 31.4498L12.5388 23.0854C12.2131 22.3644 11.6356 21.7869 10.9146 21.4612L2.55024 17.6835C1.96185 17.4178 1.96185 16.5822 2.55024 16.3165L10.9146 12.5388C11.6356 12.2131 12.2131 11.6356 12.5388 10.9146L16.3165 2.55023C16.5822 1.96185 17.4178 1.96185 17.6835 2.55023L21.4612 10.9146C21.7869 11.6356 22.3644 12.2131 23.0854 12.5388L31.4498 16.3165C32.0382 16.5822 32.0382 17.4178 31.4498 17.6835L23.0854 21.4612C22.3644 21.7869 21.7869 22.3644 21.4612 23.0854L17.6835 31.4498Z" stroke="#485C78" stroke-width="2.5"/>
</svg>
