<svg width="43" height="54" viewBox="0 0 43 54" fill="none" xmlns="http://www.w3.org/2000/svg">
<path d="M21.0762 3.31282C23.0655 3.31282 24.9734 4.1854 26.38 5.73858C27.7867 7.29177 28.5769 9.39835 28.5769 11.5949V13.2513H13.5755V11.5949C13.5755 9.39835 14.3657 7.29177 15.7724 5.73858C17.1791 4.1854 19.0869 3.31282 21.0762 3.31282ZM31.5772 13.2513V11.5949C31.5772 8.51973 30.4709 5.57053 28.5015 3.39606C26.5322 1.2216 23.8612 0 21.0762 0C18.2912 0 15.6202 1.2216 13.6509 3.39606C11.6816 5.57053 10.5752 8.51973 10.5752 11.5949V13.2513H0.0742188V46.3795C0.0742188 48.1368 0.70642 49.822 1.83174 51.0646C2.95707 52.3071 4.48334 53.0052 6.07479 53.0052H36.0776C37.6691 53.0052 39.1953 52.3071 40.3207 51.0646C41.446 49.822 42.0782 48.1368 42.0782 46.3795V13.2513H31.5772ZM3.0745 16.5641H39.0779V46.3795C39.0779 47.2582 38.7618 48.1008 38.1992 48.7221C37.6365 49.3433 36.8734 49.6924 36.0776 49.6924H6.07479C5.27906 49.6924 4.51593 49.3433 3.95327 48.7221C3.3906 48.1008 3.0745 47.2582 3.0745 46.3795V16.5641Z" fill="#31C0C9"/>
<path d="M23.0885 31.8349H22.0884V30.7306C22.0884 30.4378 21.983 30.1569 21.7954 29.9498C21.6079 29.7427 21.3535 29.6264 21.0883 29.6264C20.823 29.6264 20.5686 29.7427 20.3811 29.9498C20.1935 30.1569 20.0882 30.4378 20.0882 30.7306V31.8349H19.0881C18.8228 31.8349 18.5685 31.9512 18.3809 32.1583C18.1933 32.3654 18.088 32.6463 18.088 32.9392C18.088 33.232 18.1933 33.5129 18.3809 33.72C18.5685 33.9271 18.8228 34.0434 19.0881 34.0434H20.0882V35.1477C20.0882 35.4406 20.1935 35.7215 20.3811 35.9286C20.5686 36.1357 20.823 36.252 21.0883 36.252C21.3535 36.252 21.6079 36.1357 21.7954 35.9286C21.983 35.7215 22.0884 35.4406 22.0884 35.1477V34.0434H23.0885C23.3537 34.0434 23.6081 33.9271 23.7956 33.72C23.9832 33.5129 24.0885 33.232 24.0885 32.9392C24.0885 32.6463 23.9832 32.3654 23.7956 32.1583C23.6081 31.9512 23.3537 31.8349 23.0885 31.8349ZM29.249 25.2093C28.1826 24.0439 26.7741 23.3378 25.2777 23.2183C23.7812 23.0989 22.2954 23.5739 21.0883 24.5577C19.8158 23.5127 18.232 23.0388 16.6558 23.2315C15.0795 23.4243 13.628 24.2693 12.5934 25.5964C11.5589 26.9235 11.0181 28.6342 11.0801 30.3839C11.1421 32.1336 11.8022 33.7924 12.9275 35.0263L18.9281 41.7071C19.4906 42.3275 20.2532 42.676 21.0483 42.676C21.8433 42.676 22.6059 42.3275 23.1685 41.7071L29.169 35.0263C29.76 34.3887 30.2311 33.6285 30.5551 32.7893C30.8791 31.95 31.0498 31.0484 31.0572 30.1361C31.0647 29.2238 30.9087 28.319 30.5984 27.4734C30.2881 26.6279 29.8295 25.8584 29.249 25.2093ZM27.8389 33.4471L21.8383 40.0728C21.7454 40.1763 21.6347 40.2584 21.5129 40.3145C21.391 40.3706 21.2603 40.3994 21.1283 40.3994C20.9962 40.3994 20.8655 40.3706 20.7437 40.3145C20.6218 40.2584 20.5112 40.1763 20.4182 40.0728L14.4176 33.4471C13.6333 32.5619 13.1941 31.3727 13.1941 30.1343C13.1941 28.8959 13.6333 27.7067 14.4176 26.8215C15.2169 25.9502 16.2948 25.4617 17.4179 25.4617C18.541 25.4617 19.619 25.9502 20.4182 26.8215C20.5112 26.925 20.6218 27.0071 20.7437 27.0632C20.8655 27.1193 20.9962 27.1481 21.1283 27.1481C21.2603 27.1481 21.391 27.1193 21.5129 27.0632C21.6347 27.0071 21.7454 26.925 21.8383 26.8215C22.6376 25.9502 23.7155 25.4617 24.8386 25.4617C25.9617 25.4617 27.0397 25.9502 27.8389 26.8215C28.6292 27.7077 29.0722 28.9016 29.0722 30.1454C29.0722 31.3891 28.6292 32.583 27.8389 33.4692V33.4471Z" fill="#31C0C9"/>
</svg>
