<svg width="41" height="41" viewBox="0 0 41 41" fill="none" xmlns="http://www.w3.org/2000/svg">
<path fill-rule="evenodd" clip-rule="evenodd" d="M13.277 26.0968C12.9319 26.1173 12.7383 26.1675 12.6654 26.1993C11.9433 26.5296 9.57328 27.3895 7.97312 27.9624V36.0486C8.79313 36.011 9.71564 35.9791 10.2338 35.9996C12.5367 36.0919 14.2758 36.6283 15.901 37.1442L16.0445 37.1898C17.6139 37.6886 19.0786 38.1544 21.0045 38.3002C21.5955 38.3458 22.1115 38.397 22.5944 38.446C23.1682 38.5095 23.7435 38.5585 24.3198 38.5929C25.2993 38.643 26.0509 38.5895 26.6591 38.3663C27.4108 38.0906 30.1214 36.823 32.8434 35.4416C34.1 34.809 35.3425 34.1487 36.5699 33.461C37.0196 33.2094 37.462 32.9451 37.8967 32.6683C38.2691 32.4257 38.449 32.2811 38.498 32.231C38.7007 32.0226 38.8454 31.4474 38.58 30.9292C38.3955 30.5682 37.8807 30.0397 36.4343 30.2789C34.7601 30.5557 32.7693 31.3722 30.8138 32.174C29.8651 32.5635 28.921 32.9496 28.0862 33.2287C27.2844 33.4963 26.4234 33.7229 25.6854 33.6785C24.6148 33.6136 22.7288 33.3312 21.1639 33.076C20.266 32.9296 19.3693 32.7762 18.4738 32.6159L18.2996 32.5852L18.2392 32.5738L18.4431 31.4531L18.2381 32.5738L18.4567 30.3142L24.5613 30.3882C24.5669 30.3882 24.5749 30.3882 24.5863 30.386C24.6273 30.3825 24.7093 30.3723 24.8278 30.3415C25.0601 30.2812 25.4428 30.14 25.9165 29.8006C26.0806 29.6833 26.281 29.4794 26.4621 29.2152C26.6101 28.9988 26.7206 28.7812 26.7855 28.5967C25.9543 28.5636 25.1279 28.455 24.3164 28.2721C23.925 28.1865 23.5368 28.087 23.1524 27.9738L23.1 27.9578L15.622 26.2802H15.6197C15.5009 26.2591 15.3816 26.2401 15.2621 26.2233C14.9528 26.1779 14.6421 26.1426 14.3305 26.1173C13.9801 26.0875 13.6282 26.0807 13.277 26.0968ZM15.8486 25.1629L16.0571 24.0445L16.0776 24.048L23.6945 25.7563L23.7412 25.7723L23.7549 25.7768L23.8073 25.7928L24.0214 25.8543C24.2093 25.9066 24.4804 25.9761 24.8027 26.0467C25.4564 26.1902 26.281 26.3223 27.0509 26.3223C27.7616 26.3223 28.4962 26.5877 28.8891 27.3075C29.2262 27.9248 29.1476 28.6036 29.0212 29.0728C28.864 29.6582 28.5383 30.2732 28.1249 30.796C28.7363 30.5612 29.3445 30.3182 29.9494 30.0671L30.0895 30.0101C31.9379 29.2505 34.1292 28.3507 36.0619 28.0318C38.2714 27.6663 39.8784 28.468 40.6073 29.8905C41.2564 31.157 41.1061 32.8187 40.1289 33.8198C39.8841 34.0715 39.5105 34.3357 39.1358 34.5783C38.6636 34.8805 38.1828 35.1691 37.694 35.4438C36.4358 36.1485 35.1622 36.8252 33.8741 37.4734C31.1737 38.8435 28.3424 40.176 27.4427 40.5051C26.3994 40.8867 25.2788 40.9231 24.2025 40.8673C23.5529 40.8269 22.9043 40.7719 22.2573 40.7021C21.7832 40.6531 21.3086 40.6095 20.8336 40.5712C18.6378 40.4049 16.9522 39.8685 15.4011 39.3753L15.212 39.315C13.6096 38.8059 12.1187 38.3549 10.1427 38.2751C9.47078 38.2489 7.80001 38.3355 6.90027 38.3879L5.69531 38.4585V26.3554L6.45268 26.0866C7.9959 25.5376 10.9878 24.4614 11.7201 24.1277C12.178 23.9193 12.7075 23.8486 13.146 23.8225C13.5997 23.8004 14.0544 23.8084 14.507 23.8464C15.0135 23.8868 15.5178 23.9506 16.0183 24.0377L16.0457 24.0423L16.0525 24.0434H16.0571L15.8486 25.1641V25.1629Z" fill="#00C2FF"/>
<path fill-rule="evenodd" clip-rule="evenodd" d="M0 26.0879C0 25.4838 0.239983 24.9044 0.667154 24.4772C1.09433 24.0501 1.6737 23.8101 2.27781 23.8101H5.69452C6.29863 23.8101 6.878 24.0501 7.30517 24.4772C7.73234 24.9044 7.97233 25.4838 7.97233 26.0879V38.6113C7.97233 39.2154 7.73234 39.7948 7.30517 40.2219C6.878 40.6491 6.29863 40.8891 5.69452 40.8891H2.27781C1.6737 40.8891 1.09433 40.6491 0.667154 40.2219C0.239983 39.7948 0 39.2154 0 38.6113V26.089V26.0879ZM2.27781 26.0879V38.6113H5.69452V26.089H2.27781V26.0879ZM15.1463 14.7877L15.1691 14.7649C15.306 14.627 15.3826 14.4404 15.382 14.246C15.3814 14.0516 15.3035 13.8655 15.1656 13.7285C15.0278 13.5915 14.8411 13.5149 14.6467 13.5156C14.4524 13.5162 14.2662 13.594 14.1292 13.7319L11.897 15.979C11.6851 16.1921 11.4331 16.3613 11.1555 16.4766C10.878 16.5919 10.5803 16.6512 10.2797 16.6509H7.33568C7.14146 16.6509 6.95519 16.7281 6.81785 16.8654C6.68052 17.0028 6.60336 17.189 6.60336 17.3832C6.60336 17.5775 6.68052 17.7637 6.81785 17.9011C6.95519 18.0384 7.14146 18.1156 7.33568 18.1156H10.4791C10.9375 18.1156 11.3913 18.0233 11.8133 17.8443C12.2354 17.6652 12.617 17.4031 12.9357 17.0735L15.1451 14.7877H15.1463ZM10.2809 14.372H7.33454C6.53606 14.372 5.77027 14.6892 5.20566 15.2538C4.64105 15.8184 4.32385 16.5842 4.32385 17.3827C4.32385 18.1812 4.64105 18.9469 5.20566 19.5116C5.77027 20.0762 6.53606 20.3934 7.33454 20.3934H10.4779C11.2419 20.3935 11.9981 20.2399 12.7015 19.9417C13.4049 19.6435 14.0411 19.2069 14.5723 18.6577L16.7817 16.3719C17.3448 15.8058 17.6599 15.0393 17.6578 14.2409C17.6556 13.4425 17.3364 12.6777 16.7704 12.1147C16.2043 11.5516 15.4378 11.2365 14.6394 11.2387C13.841 11.2408 13.0762 11.56 12.5131 12.1261L10.2797 14.372H10.2809ZM30.4543 7.86315C30.8348 7.87391 31.2137 7.80826 31.5684 7.67007C31.9231 7.53188 32.2465 7.32397 32.5195 7.05861C32.7924 6.79326 33.0094 6.47587 33.1576 6.1252C33.3057 5.77453 33.3821 5.39771 33.3821 5.01703C33.3821 4.63634 33.3057 4.25952 33.1576 3.90885C33.0094 3.55819 32.7924 3.24079 32.5195 2.97544C32.2465 2.71009 31.9231 2.50217 31.5684 2.36398C31.2137 2.22579 30.8348 2.16014 30.4543 2.17091C29.7134 2.19187 29.0099 2.50092 28.4932 3.03238C27.9766 3.56385 27.6876 4.27583 27.6876 5.01703C27.6876 5.75822 27.9766 6.47021 28.4932 7.00167C29.0099 7.53313 29.7134 7.84219 30.4543 7.86315ZM35.5794 5.01703C35.5937 5.699 35.4718 6.37699 35.2208 7.01124C34.9697 7.64549 34.5946 8.22324 34.1174 8.71064C33.6402 9.19803 33.0704 9.58525 32.4416 9.84961C31.8128 10.114 31.1376 10.2501 30.4554 10.2501C29.7733 10.2501 29.098 10.114 28.4692 9.84961C27.8404 9.58525 27.2707 9.19803 26.7935 8.71064C26.3162 8.22324 25.9411 7.64549 25.6901 7.01124C25.439 6.37699 25.3171 5.699 25.3315 5.01703C25.3598 3.67678 25.912 2.40096 26.8699 1.4631C27.8277 0.525237 29.1149 0 30.4554 0C31.796 0 33.0832 0.525237 34.041 1.4631C34.9988 2.40096 35.5511 3.67678 35.5794 5.01703ZM27.0125 19.5893L27.0957 19.6713C27.597 20.1428 28.2641 20.3974 28.9521 20.3797L28.9965 20.3831C29.0111 20.3859 29.026 20.3874 29.0409 20.3877L32.6137 20.3831C33.4192 20.3824 34.1915 20.0616 34.7606 19.4915C35.3297 18.9213 35.649 18.1484 35.6483 17.3428C35.6475 16.5372 35.3268 15.7649 34.7566 15.1958C34.1864 14.6267 33.4135 14.3075 32.608 14.3082H30.3803C30.1525 14.3082 28.5011 12.5691 27.2711 11.2366C26.8384 10.7658 26.313 10.3896 25.728 10.1317C25.1429 9.87374 24.5108 9.73963 23.8714 9.73778H18.3409L18.8739 20.3865H22.3852C23.0959 20.3858 23.7993 20.2421 24.4534 19.964C25.1071 19.685 26.1094 18.849 26.1914 18.767C26.2688 18.6896 26.9362 19.4971 27.0068 19.5825L27.0125 19.5893ZM23.5594 17.8696L23.6129 17.8411C23.808 17.725 23.997 17.5988 24.1789 17.463C24.3357 17.3463 24.4892 17.2251 24.639 17.0997C25.4135 16.3742 26.3303 16.4585 26.6891 16.5348C27.0626 16.6145 27.328 16.7694 27.4248 16.8275C27.5887 16.9277 27.7424 17.0437 27.8838 17.1737C28.0523 17.3252 28.2141 17.5006 28.3223 17.6201C28.443 17.7534 28.5557 17.8844 28.6355 17.9789L28.681 18.0336C28.7046 18.0522 28.7307 18.0675 28.7585 18.0791M23.5594 17.8684C23.1869 18.0267 22.7872 18.1076 22.3829 18.1099H21.0401L20.736 12.0156H23.8714C24.5138 12.0156 25.1413 12.2889 25.5969 12.7821C26.2176 13.454 26.959 14.2444 27.5831 14.8742C27.8906 15.1852 28.1958 15.4836 28.4555 15.7159C28.5808 15.8264 28.7345 15.9596 28.8974 16.0769C28.976 16.1339 29.1035 16.2216 29.2641 16.3058L29.271 16.3093C29.3644 16.3594 29.7949 16.586 30.3803 16.586H32.608C32.8094 16.5857 33.0028 16.6655 33.1454 16.8077C33.2881 16.95 33.3684 17.1431 33.3687 17.3445C33.369 17.546 33.2893 17.7393 33.1471 17.882C33.0048 18.0247 32.8117 18.105 32.6102 18.1053L29.148 18.1087C29.0828 18.1039 29.0174 18.1016 28.9521 18.1019H28.8929C28.847 18.1036 28.8012 18.0959 28.7585 18.0791" fill="#00C2FF"/>
</svg>
