<svg width="40" height="23" viewBox="0 0 40 23" fill="none" xmlns="http://www.w3.org/2000/svg">
<path fill-rule="evenodd" clip-rule="evenodd" d="M20 1.18199C11.2 -2.74601 3 5.54499 0 11C3 15.364 11.2 23 20 23C28.8 23 37 15.364 40 11C37 5.54499 29 -3.18201 20 1.18199ZM37.604 10.876C36.14 8.55599 33.87 5.88099 31.146 4.07599C28.036 2.01699 24.548 1.19899 20.872 2.98099C20.6098 3.10813 20.3229 3.17643 20.0315 3.18109C19.7401 3.18575 19.4512 3.12667 19.185 3.00799C15.592 1.40499 12.066 2.22599 8.905 4.25599C6.158 6.01999 3.86 8.60799 2.4 10.88C3.871 12.74 6.172 15.046 8.969 16.994C12.31 19.322 16.162 21 20 21C23.838 21 27.69 19.322 31.032 16.995C33.832 15.045 36.134 12.737 37.604 10.875V10.876Z" fill="#485C78"/>
<path fill-rule="evenodd" clip-rule="evenodd" d="M8.55484 10.958C11.6828 11.992 15.7448 13 19.9998 13C24.1958 13 28.2038 11.963 31.3338 10.923C28.1548 9.912 24.0658 9 19.9998 9C15.8858 9 11.7478 9.934 8.55484 10.958ZM5.03384 10.098C8.44784 8.73 14.2018 7 19.9998 7C25.6998 7 31.3598 8.672 34.7928 10.03C35.6208 10.357 35.5698 11.523 34.7358 11.836C31.4138 13.079 25.9188 15 19.9998 15C13.9598 15 8.36384 13.106 5.06484 11.826C4.26084 11.514 4.23284 10.42 5.03384 10.099V10.098Z" fill="#485C78"/>
</svg>
