<svg width="32" height="43" viewBox="0 0 32 43" fill="none" xmlns="http://www.w3.org/2000/svg">
<path d="M10.1336 6.65381H6.13319C5.07223 6.65381 4.05471 7.10023 3.3045 7.89486C2.55428 8.68949 2.13281 9.76724 2.13281 10.891V36.3143C2.13281 37.4381 2.55428 38.5158 3.3045 39.3105C4.05471 40.1051 5.07223 40.5515 6.13319 40.5515H26.1351C27.1961 40.5515 28.2136 40.1051 28.9638 39.3105C29.714 38.5158 30.1355 37.4381 30.1355 36.3143V10.891C30.1355 9.76724 29.714 8.68949 28.9638 7.89486C28.2136 7.10023 27.1961 6.65381 26.1351 6.65381H22.1347" stroke="#485C78" stroke-width="3" stroke-linecap="round" stroke-linejoin="round"/>
<path d="M18.1345 2.4165H14.1342C11.9248 2.4165 10.1338 4.31357 10.1338 6.65372C10.1338 8.99386 11.9248 10.8909 14.1342 10.8909H18.1345C20.3439 10.8909 22.1349 8.99386 22.1349 6.65372C22.1349 4.31357 20.3439 2.4165 18.1345 2.4165Z" stroke="#485C78" stroke-width="3" stroke-linecap="round" stroke-linejoin="round"/>
<path d="M12.1338 25.7211H20.1345M16.1342 21.4839V29.9583" stroke="#485C78" stroke-width="3" stroke-linecap="round" stroke-linejoin="round"/>
</svg>
