<svg width="45" height="40" viewBox="0 0 45 40" fill="none" xmlns="http://www.w3.org/2000/svg">
<path d="M38.3803 15.7983C37.2723 13.1961 35.5425 10.9058 33.3427 9.12822C31.1429 7.35067 28.5404 6.14029 25.7636 5.60334L28.272 1.59L25.728 0L22.4182 5.29575C19.0467 5.31139 15.7537 6.31443 12.946 8.18093C10.1383 10.0474 7.93896 12.6956 6.61969 15.7983C4.85256 15.8319 3.16914 16.5574 1.9313 17.819C0.693452 19.0806 0 20.7775 0 22.545C0 24.3125 0.693452 26.0094 1.9313 27.271C3.16914 28.5326 4.85256 29.2581 6.61969 29.2917C7.94457 32.4071 10.1566 35.064 12.9802 36.9316C15.8039 38.7992 19.1146 39.795 22.5 39.795C25.8854 39.795 29.1961 38.7992 32.0198 36.9316C34.8435 35.064 37.0554 32.4071 38.3803 29.2917C40.1475 29.2581 41.8309 28.5326 43.0687 27.271C44.3066 26.0094 45 24.3125 45 22.545C45 20.7775 44.3066 19.0806 43.0687 17.819C41.8309 16.5574 40.1475 15.8319 38.3803 15.7983ZM40.9258 25.1709C40.2397 25.8727 39.3046 26.2756 38.3233 26.2923L36.3803 26.3292L35.6198 28.1174C34.5254 30.6915 32.698 32.8867 30.3652 34.4299C28.0323 35.973 25.2971 36.7958 22.5001 36.7958C19.703 36.7958 16.9678 35.973 14.6349 34.4299C12.3021 32.8867 10.4747 30.6915 9.38035 28.1174L8.61966 26.3292L6.67669 26.2923C5.695 26.2739 4.75971 25.871 4.07195 25.1703C3.38419 24.4695 2.99889 23.5269 2.99889 22.545C2.99889 21.5631 3.38419 20.6205 4.07195 19.9197C4.75971 19.219 5.695 18.8161 6.67669 18.7977L8.61966 18.7608L9.38035 16.9726C10.4747 14.3986 12.3021 12.2033 14.635 10.6602C16.9678 9.11716 19.703 8.29439 22.5001 8.29439C25.2971 8.29439 28.0323 9.11716 30.3651 10.6602C32.698 12.2033 34.5254 14.3986 35.6198 16.9726L36.3803 18.7608L38.3233 18.7977C39.0555 18.8116 39.7676 19.0396 40.3716 19.4537C40.9756 19.8679 41.4451 20.4499 41.7219 21.1279C41.9988 21.8059 42.0709 22.5501 41.9295 23.2686C41.788 23.9872 41.439 24.6485 40.9258 25.1709Z" fill="#00C2FF"/>
<path d="M14.25 18.7949H18V22.5449H14.25V18.7949ZM27 18.7949H30.75V22.5449H27V18.7949ZM22.5 33.0449C23.4849 33.0449 24.4602 32.8509 25.3701 32.474C26.2801 32.0971 27.1069 31.5447 27.8033 30.8482C28.4997 30.1518 29.0522 29.325 29.4291 28.415C29.806 27.5051 30 26.5298 30 25.5449H15C15 26.5298 15.194 27.5051 15.5709 28.415C15.9478 29.325 16.5003 30.1518 17.1967 30.8482C18.6032 32.2547 20.5109 33.0449 22.5 33.0449Z" fill="#00C2FF"/>
</svg>
