<svg width="39" height="37" viewBox="0 0 39 37" fill="none" xmlns="http://www.w3.org/2000/svg">
<path d="M1.33163e-06 8.40474C1.33163e-06 11.1623 1.3296 13.6079 3.3768 15.1391C2.72925 16.8191 2.39808 18.6043 2.4 20.4047C2.4 29.1095 10.0128 36.0047 19.2 36.0047C28.3872 36.0047 36 29.1095 36 20.4047C36.0016 18.6034 35.6696 16.8172 35.0208 15.1367C36.0517 14.3661 36.8918 13.3688 37.4761 12.2219C38.0604 11.075 38.3733 9.80914 38.3906 8.5221C38.408 7.23505 38.1293 5.96124 37.5762 4.79899C37.0231 3.63675 36.2102 2.61717 35.2004 1.81897C34.1907 1.02077 33.0109 0.46531 31.7524 0.195468C30.4938 -0.0743744 29.1901 -0.0513771 27.9418 0.262684C26.6936 0.576745 25.5342 1.17347 24.5532 2.00678C23.5722 2.8401 22.7958 3.88771 22.284 5.06874C20.2416 4.71531 18.1536 4.71531 16.1112 5.06874C15.3446 3.29433 13.9896 1.83857 12.2746 0.946991C10.5596 0.0554142 8.58958 -0.217424 6.69682 0.174493C4.80405 0.56641 3.10437 1.5991 1.88442 3.09839C0.664469 4.59768 -0.00108659 6.47183 1.33163e-06 8.40474ZM8.4 2.40474C9.50129 2.40445 10.5814 2.70728 11.5221 3.28004C12.4627 3.8528 13.2275 4.6734 13.7328 5.65194C9.768 6.91914 6.4512 9.53034 4.4496 12.9239C3.52955 12.1204 2.87667 11.0552 2.5782 9.87075C2.27974 8.68625 2.34993 7.43887 2.77938 6.29533C3.20882 5.15179 3.97708 4.16656 4.98145 3.47133C5.98583 2.77611 7.17848 2.404 8.4 2.40474ZM24.6648 5.65194C25.0698 4.86753 25.6428 4.18214 26.3431 3.64466C27.0434 3.10717 27.8536 2.73083 28.716 2.54247C29.5785 2.35411 30.4719 2.35838 31.3325 2.55497C32.1931 2.75156 32.9997 3.13563 33.6948 3.67978C34.3899 4.22394 34.9564 4.91477 35.3538 5.70301C35.7512 6.49125 35.9698 7.35748 35.994 8.23992C36.0182 9.12235 35.8474 9.99925 35.4937 10.8081C35.14 11.6169 34.6123 12.3377 33.948 12.9191C31.9464 9.52794 28.6296 6.91914 24.6648 5.64954V5.65194ZM19.2 7.20474C27.2448 7.20474 33.6 13.2047 33.6 20.4047C33.6 23.3615 32.5296 26.1167 30.7104 28.3343C29.5622 26.2916 27.8907 24.5915 25.8677 23.4088C23.8448 22.226 21.5433 21.6034 19.2 21.6047C16.8568 21.604 14.5557 22.2273 12.5332 23.4104C10.5107 24.5935 8.83972 26.2939 7.692 28.3367C5.8704 26.1167 4.8 23.3639 4.8 20.4047C4.8 13.2047 11.1552 7.20474 19.2 7.20474ZM28.9392 30.1247C26.3904 32.2823 22.9824 33.6047 19.2 33.6047C15.42 33.6047 12.0144 32.2799 9.4632 30.1295C10.1088 28.7886 11.0237 27.5951 12.151 26.6235C13.2783 25.6519 14.5937 24.923 16.0152 24.4823C16.3206 25.0628 16.7788 25.5489 17.3403 25.8879C17.9018 26.227 18.5453 26.4062 19.2012 26.4062C19.8571 26.4062 20.5006 26.227 21.0621 25.8879C21.6236 25.5489 22.0818 25.0628 22.3872 24.4823C23.8085 24.9227 25.1238 25.6512 26.251 26.6224C27.3783 27.5936 28.2934 28.7867 28.9392 30.1271V30.1247Z" fill="#00C2FF"/>
<circle cx="14" cy="19" r="2" fill="#00C2FF"/>
<circle cx="25" cy="19" r="2" fill="#00C2FF"/>
</svg>
