<svg width="46" height="39" viewBox="0 0 46 39" fill="none" xmlns="http://www.w3.org/2000/svg">
<path d="M25.9518 35.0831C25.9518 36.0235 25.5962 36.9254 24.9632 37.5904C24.3302 38.2554 23.4717 38.629 22.5765 38.629C21.6813 38.629 20.8228 38.2554 20.1898 37.5904C19.5568 36.9254 19.2012 36.0235 19.2012 35.0831C19.2012 34.1426 19.5568 33.2407 20.1898 32.5757C20.8228 31.9107 21.6813 31.5371 22.5765 31.5371C23.4717 31.5371 24.3302 31.9107 24.9632 32.5757C25.5962 33.2407 25.9518 34.1426 25.9518 35.0831Z" fill="#485C78"/>
<path fill-rule="evenodd" clip-rule="evenodd" d="M27.5358 3.67407C25.8735 3.93978 24.2195 4.26025 22.5763 4.63503C20.9332 4.26024 19.2792 3.93976 17.6169 3.67407C19.0176 4.25325 20.4409 4.94707 21.9429 5.70945C22.1327 5.80603 22.2928 5.9568 22.4048 6.14452C22.5169 6.33224 22.5763 6.54931 22.5763 6.77088C22.5763 6.31818 22.8216 5.90566 23.2098 5.70945C24.7118 4.94707 26.1351 4.25206 27.5358 3.67407ZM22.5763 33.193C22.5763 33.8762 22.0442 34.375 21.4512 34.3833V34.6161C14.398 33.362 9.41486 33.2828 2.32443 34.5901V6.75433C3.07139 6.57471 3.8216 6.41039 4.57465 6.26144V3.85846C3.42029 4.07595 2.21192 4.34544 0.925927 4.67167C0.682695 4.73376 0.466427 4.88003 0.311933 5.08693C0.15744 5.29383 0.0737103 5.54932 0.0742211 5.81229V35.999C0.0742211 36.7472 0.730158 37.3051 1.42885 37.1657C9.3901 35.57 14.3957 35.6645 22.3603 37.1834C22.5032 37.2109 22.6495 37.2109 22.7924 37.1834C30.757 35.6645 35.7626 35.57 43.7239 37.1657C43.888 37.199 44.0572 37.1939 44.2193 37.1508C44.3814 37.1077 44.5324 37.0277 44.6617 36.9163C44.7911 36.8049 44.8954 36.665 44.9675 36.5065C45.0395 36.3479 45.0774 36.1747 45.0785 35.999V5.81229C45.079 5.54932 44.9953 5.29383 44.8408 5.08693C44.6863 4.88003 44.47 4.73376 44.2268 4.67167C43.0185 4.36268 41.8017 4.09149 40.5781 3.85846V6.26144C41.3026 6.40328 42.0497 6.56876 42.8283 6.75433V34.5901C35.7378 33.2828 30.7547 33.3608 23.7015 34.6161V34.3833C23.1085 34.3738 22.5763 33.875 22.5763 33.193Z" fill="#485C78"/>
<path fill-rule="evenodd" clip-rule="evenodd" d="M5.69943 3.76874V30.4202C5.70132 30.4239 5.70402 30.4272 5.70731 30.4296C5.71555 30.4366 5.72518 30.4417 5.73549 30.4443C5.7458 30.447 5.75654 30.4472 5.76694 30.445C11.775 29.2866 16.2901 30.705 21.4228 33.199C21.4257 33.2002 21.4287 33.201 21.4318 33.2014H21.434C21.4388 33.201 21.4435 33.1993 21.4475 33.1967C21.4487 33.196 21.4499 33.1952 21.4509 33.1943V6.77217C15.8479 3.93067 11.6242 2.18606 5.69943 3.76874ZM5.10763 1.4875C11.8796 -0.333939 16.7491 1.76172 22.432 4.64459C22.8126 4.83798 23.1335 5.14018 23.358 5.51651C23.5825 5.89284 23.7014 6.32805 23.7011 6.77217V33.1919C23.7011 34.9495 21.9606 36.0618 20.4788 35.3431C15.5509 32.9496 11.5342 31.7357 6.1731 32.77C4.81172 33.0335 3.44922 31.9674 3.44922 30.4202V3.75101C3.44922 2.71086 4.10516 1.757 5.10763 1.4875Z" fill="#485C78"/>
<path fill-rule="evenodd" clip-rule="evenodd" d="M39.4529 3.76874V30.4202C39.4508 30.4242 39.4477 30.4274 39.4439 30.4296C39.4358 30.4365 39.4263 30.4414 39.4162 30.4441C39.4061 30.4467 39.3956 30.447 39.3854 30.445C33.3773 29.2866 28.8634 30.705 23.7295 33.199C23.7266 33.2002 23.7236 33.201 23.7205 33.2014H23.7183C23.7135 33.201 23.7088 33.1993 23.7048 33.1967L23.7014 33.1919V6.77098C29.3044 3.92949 33.5281 2.18488 39.4529 3.76874ZM40.0447 1.4875C33.2727 -0.333939 28.4032 1.76172 22.7203 4.64459C22.3399 4.8382 22.0191 5.14045 21.7946 5.51674C21.5702 5.89302 21.4511 6.3281 21.4512 6.77217V33.1943C21.4512 34.9519 23.1917 36.0642 24.6735 35.3443C29.6014 32.9508 33.6181 31.7369 38.9792 32.7711C40.3406 33.0335 41.7031 31.9686 41.7031 30.4202V3.75101C41.7052 3.23381 41.5434 2.73059 41.2431 2.32073C40.9428 1.91088 40.5211 1.61772 40.0447 1.4875Z" fill="#485C78"/>
<path fill-rule="evenodd" clip-rule="evenodd" d="M31.5763 7.89746C31.8747 7.89746 32.1609 8.02199 32.3718 8.24366C32.5828 8.46532 32.7014 8.76597 32.7014 9.07945V18.5353C32.7014 18.8488 32.5828 19.1495 32.3718 19.3711C32.1609 19.5928 31.8747 19.7173 31.5763 19.7173C31.2779 19.7173 30.9917 19.5928 30.7807 19.3711C30.5697 19.1495 30.4512 18.8488 30.4512 18.5353V9.07945C30.4512 8.76597 30.5697 8.46532 30.7807 8.24366C30.9917 8.02199 31.2779 7.89746 31.5763 7.89746Z" fill="#485C78"/>
<path fill-rule="evenodd" clip-rule="evenodd" d="M32.2079 14.2094C31.0491 14.5285 29.834 15.0805 28.1778 16.0273C27.9166 16.1679 27.6134 16.1956 27.333 16.1047C27.0525 16.0137 26.817 15.8113 26.6767 15.5405C26.5364 15.2696 26.5023 14.952 26.5818 14.6551C26.6613 14.3583 26.848 14.1059 27.1022 13.9517C28.8315 12.9624 30.2278 12.3111 31.6364 11.9222C33.054 11.5322 34.4289 11.4223 36.0941 11.4471C36.3925 11.4515 36.677 11.5802 36.885 11.805C37.0931 12.0297 37.2076 12.3321 37.2034 12.6456C37.1992 12.9591 37.0767 13.258 36.8627 13.4766C36.6488 13.6951 36.361 13.8154 36.0626 13.8111C34.5133 13.7874 33.3601 13.8914 32.2079 14.2094ZM8.52446 23.8544C11.8053 23.8213 13.6268 24.1463 17.1113 25.5494L17.9168 23.3414C14.1815 21.8379 12.0798 21.4538 8.50195 21.4904L8.52446 23.8544ZM8.52446 17.9445C11.8053 17.9114 13.6268 18.2364 17.1113 19.6394L17.9168 17.4315C14.1815 15.928 12.0798 15.5438 8.50195 15.5805L8.52446 17.9445ZM8.52446 12.0345C11.8053 12.0014 13.6268 12.3265 17.1113 13.7295L17.9168 11.5215C14.1815 10.0181 12.0798 9.63391 8.50195 9.67055L8.52446 12.0345Z" fill="#485C78"/>
</svg>
