<svg width="40" height="49" viewBox="0 0 40 49" fill="none" xmlns="http://www.w3.org/2000/svg">
<path d="M2 28.3537C2.11373 29.0055 2.39442 29.6165 2.8145 30.1267C3.23459 30.6368 3.77964 31.0286 4.39615 31.2635C4.39615 31.2635 29.5376 44.7278 37.9208 46.9967M7.5283 20.1724C8.16402 19.9814 8.83652 19.9485 9.48772 20.0766C10.1389 20.2048 10.7493 20.49 11.2661 20.9077C11.2661 20.9077 31.8116 40.8889 38 47" stroke="#485C78" stroke-width="3" stroke-miterlimit="10" stroke-linecap="round"/>
<path d="M12.5 2.88154L13.4283 5.39011C13.6308 5.93755 14.0624 6.36917 14.6099 6.57175L17.1185 7.5L14.6099 8.42826C14.0624 8.63083 13.6308 9.06245 13.4283 9.60989L12.5 12.1185L11.5717 9.60989C11.3692 9.06245 10.9376 8.63083 10.3901 8.42826L7.88154 7.5L10.3901 6.57175C10.9376 6.36917 11.3692 5.93755 11.5717 5.39011L12.5 2.88154Z" stroke="#485C78" stroke-width="2"/>
</svg>
