<svg width="43" height="40" viewBox="0 0 43 40" fill="none" xmlns="http://www.w3.org/2000/svg">
<path d="M21.411 17.782C24.1982 16.6268 26.7289 14.9308 28.857 12.792C33.027 8.622 35.725 2 35.725 2M28.878 26.914C28.177 29.726 27.666 31.664 26.454 33.004C23.657 36.094 17.576 37.827 13.699 31.974C11.197 28.196 12.522 23.193 16.103 20.494C16.5658 20.1109 17.0688 19.779 17.603 19.504M41 8.868C38.2113 10.9422 35.639 13.2925 33.322 15.883C31.482 17.893 30.715 19.948 29.93 22.863M10.71 30.187C7.71485 31.6791 4.80683 33.3402 2 35.162" stroke="#485C78" stroke-width="3" stroke-linecap="round" stroke-linejoin="round"/>
<path d="M36.7995 14.771C38.2925 17.918 37.8975 20.781 36.0195 22.261C31.8895 25.512 26.8545 25.046 20.2235 26.627C18.2214 27.1161 16.2597 27.7576 14.3555 28.546M33.1995 9.896C33.9176 10.3879 34.5443 11.0015 35.0515 11.709" stroke="#485C78" stroke-width="3" stroke-linecap="round" stroke-linejoin="round"/>
<path d="M21.1446 24.4202C18.8966 19.7202 18.4236 14.8272 22.7246 10.4872C23.6422 9.47631 24.8245 8.74258 26.1377 8.36913C27.4509 7.99568 28.8424 7.99744 30.1546 8.3742M32.1926 38.2042C30.7756 36.8832 26.2526 33.2132 22.9806 28.0512" stroke="#485C78" stroke-width="3" stroke-linecap="round" stroke-linejoin="round"/>
</svg>
