<svg width="49" height="51" viewBox="0 0 49 51" fill="none" xmlns="http://www.w3.org/2000/svg">
<path fill-rule="evenodd" clip-rule="evenodd" d="M34.479 11.0605V29.89C34.479 31.936 33.7792 33.5561 32.6286 34.6319C31.5061 35.6796 30.058 36.1124 28.6725 36.0476C27.0711 35.9743 25.3982 35.2058 24.2745 33.7732C23.9846 36.3536 24.8198 38.0696 25.199 38.5222L26.0674 39.5557L24.1953 41.4734L23.3269 40.4398C22.2875 39.2018 21.1714 36.2845 21.8852 32.4732C20.7928 32.7271 19.6648 32.73 18.5714 32.4816C17.4259 32.2137 16.2996 31.637 15.4466 30.6683C14.5731 29.6771 14.047 28.3418 14.047 26.7344C14.047 24.4163 14.7966 22.7412 16.1362 21.5173C17.3749 20.385 19.0567 19.7054 20.7576 19.0977C21.156 18.9567 21.5634 18.8157 21.9784 18.6704C25.2207 17.5467 28.9049 16.2692 32.377 13.0261L34.479 11.0605ZM25.4902 29.8026C26.0278 28.714 26.7672 27.5494 27.7658 26.3241L28.6214 25.2764L26.7225 23.3898L25.8669 24.4374C24.6027 25.9885 23.6807 27.4972 23.0269 28.9284C22.0665 29.7067 20.5214 30.055 19.1001 29.7222C18.3301 29.5417 17.7005 29.1822 17.2765 28.7014C16.873 28.2445 16.601 27.6185 16.601 26.733C16.601 25.2017 17.0479 24.343 17.7643 23.6873C18.5803 22.9428 19.8126 22.3985 21.5443 21.7795C21.921 21.6456 22.3168 21.5088 22.7268 21.3664C25.3816 20.4513 28.6776 19.3148 31.925 16.9234V29.89C31.925 31.1802 31.5074 31.9853 30.98 32.4774C30.4245 32.9963 29.6353 33.2698 28.7797 33.2304C27.0839 33.1528 25.5745 31.9275 25.4902 29.8026Z" fill="#31C0C9"/>
<path fill-rule="evenodd" clip-rule="evenodd" d="M24.263 49.3508L23.7062 50.6199L23.7011 50.617L23.6858 50.6086L23.6309 50.579L23.4265 50.4662C23.2503 50.3675 22.9949 50.2208 22.6718 50.0291C18.8446 47.7425 15.2465 45.0164 11.9374 41.896C6.10916 36.3589 0 28.1483 0 17.9411C0 13.3543 1.37533 8.91135 3.73011 5.58933C6.09256 2.26027 9.49066 0 13.4877 0C18.2355 0 21.8392 2.97092 24.263 7.1601C26.688 2.97233 30.2904 0 35.0383 0C39.0353 0 42.4334 2.26027 44.7946 5.59075C47.1519 8.91135 48.526 13.3529 48.526 17.9426C48.526 27.7606 42.4066 35.9725 36.5975 41.5915C33.0667 44.9791 29.2216 47.9453 25.1262 50.4408C25.0588 50.4812 24.9911 50.5211 24.9232 50.5606L24.8683 50.5931L24.8542 50.6015L24.8478 50.6044L24.263 49.3508ZM5.74139 7.32789C3.75565 10.1282 2.554 13.9508 2.554 17.9411C2.554 26.8835 7.93783 34.3778 13.6026 39.7584C16.8771 42.8438 20.4461 45.5264 24.2464 47.7589L24.6218 47.5277C28.2851 45.2237 31.7328 42.5249 34.9144 39.4708C40.5971 33.9717 45.972 26.4803 45.972 17.9397C45.972 13.9494 44.7703 10.1282 42.7846 7.32789C40.8052 4.53746 38.098 2.82005 35.0383 2.82005C30.8063 2.82005 27.5295 5.87557 25.4097 10.6598L24.263 13.25L23.1162 10.6626C20.9964 5.87557 17.7196 2.82005 13.4877 2.82005C10.428 2.82005 7.72074 4.53746 5.74139 7.32789Z" fill="#31C0C9"/>
<path d="M24.2611 49.3516L24.846 50.6045L24.279 50.9259L23.7043 50.62L24.2611 49.3516Z" fill="#31C0C9"/>
</svg>
