<svg width="41" height="47" viewBox="0 0 41 47" fill="none" xmlns="http://www.w3.org/2000/svg">
<path d="M15.3596 3.70877C12.1762 3.70877 7.29579 5.73732 8.99295 18.2996C9.01895 18.4895 9.05295 18.6949 9.08796 18.9146C9.39799 20.804 9.87603 23.7293 6.83374 26.141C8.90294 28.0161 11.8502 29.89 15.4316 30.7017C15.29 31.5985 15.1125 32.4879 14.8995 33.3674C14.6085 34.5467 13.9984 35.3827 12.9083 35.7394C11.9482 36.053 10.9421 36.307 9.91203 36.5676C9.64701 36.6338 9.37998 36.7012 9.11196 36.7708C7.82684 37.1009 6.51671 37.4664 5.3556 37.9832C4.19149 38.5023 3.10939 39.2013 2.32731 40.2437C1.53124 41.3071 1.1052 42.6477 1.1342 44.324C1.1442 44.8452 1.54824 45.2626 2.04429 45.2626H38.2257C38.7218 45.2626 39.1258 44.8452 39.1358 44.324C39.1648 42.6477 38.7398 41.3071 37.9427 40.2437C37.1616 39.2013 36.0785 38.5012 34.9154 37.9832C33.7533 37.4653 32.4432 37.0998 31.157 36.7696L30.359 36.5676C29.3279 36.307 28.3218 36.053 27.3617 35.7394C26.2716 35.3827 25.6615 34.5467 25.3705 33.3674C25.1158 32.3203 24.9135 31.2586 24.7644 30.1871C27.5027 29.2771 30.413 27.6417 33.4363 25.0301L33.4223 25.0146C32.0031 23.515 29.3429 20.7036 29.1539 14.0293C29.1539 4.83955 23.8474 -3.23822 15.3596 3.70766V3.70877Z" stroke="#31C0C9" stroke-width="2" stroke-linejoin="round"/>
</svg>
