<svg width="40" height="40" viewBox="0 0 40 40" fill="none" xmlns="http://www.w3.org/2000/svg">
<path d="M20.0008 3.20005C19.046 3.20005 18.1303 3.57933 17.4552 4.25446C16.7801 4.9296 16.4008 5.84527 16.4008 6.80005C16.4008 7.75483 16.7801 8.6705 17.4552 9.34563C18.1303 10.0208 19.046 10.4 20.0008 10.4C20.9556 10.4 21.8712 10.0208 22.5464 9.34563C23.2215 8.6705 23.6008 7.75483 23.6008 6.80005C23.6008 5.84527 23.2215 4.9296 22.5464 4.25446C21.8712 3.57933 20.9556 3.20005 20.0008 3.20005ZM14.0008 6.80005C14.0008 5.20875 14.6329 3.68263 15.7581 2.55741C16.8834 1.43219 18.4095 0.800049 20.0008 0.800049C21.5921 0.800049 23.1182 1.43219 24.2434 2.55741C25.3686 3.68263 26.0008 5.20875 26.0008 6.80005C26.0008 8.39135 25.3686 9.91747 24.2434 11.0427C23.1182 12.1679 21.5921 12.8 20.0008 12.8C18.4095 12.8 16.8834 12.1679 15.7581 11.0427C14.6329 9.91747 14.0008 8.39135 14.0008 6.80005ZM33.2008 5.60005C32.5643 5.60005 31.9538 5.85291 31.5037 6.30299C31.0536 6.75308 30.8008 7.36353 30.8008 8.00005C30.8008 8.63657 31.0536 9.24702 31.5037 9.69711C31.9538 10.1472 32.5643 10.4 33.2008 10.4C33.8373 10.4 34.4478 10.1472 34.8978 9.69711C35.3479 9.24702 35.6008 8.63657 35.6008 8.00005C35.6008 7.36353 35.3479 6.75308 34.8978 6.30299C34.4478 5.85291 33.8373 5.60005 33.2008 5.60005ZM28.4008 8.00005C28.4008 6.72701 28.9065 5.50611 29.8067 4.60594C30.7068 3.70576 31.9277 3.20005 33.2008 3.20005C34.4738 3.20005 35.6947 3.70576 36.5949 4.60594C37.4951 5.50611 38.0008 6.72701 38.0008 8.00005C38.0008 9.27309 37.4951 10.494 36.5949 11.3942C35.6947 12.2943 34.4738 12.8 33.2008 12.8C31.9277 12.8 30.7068 12.2943 29.8067 11.3942C28.9065 10.494 28.4008 9.27309 28.4008 8.00005ZM4.40078 8.00005C4.40078 7.36353 4.65364 6.75308 5.10372 6.30299C5.55381 5.85291 6.16426 5.60005 6.80078 5.60005C7.4373 5.60005 8.04775 5.85291 8.49784 6.30299C8.94792 6.75308 9.20078 7.36353 9.20078 8.00005C9.20078 8.63657 8.94792 9.24702 8.49784 9.69711C8.04775 10.1472 7.4373 10.4 6.80078 10.4C6.16426 10.4 5.55381 10.1472 5.10372 9.69711C4.65364 9.24702 4.40078 8.63657 4.40078 8.00005ZM6.80078 3.20005C5.52774 3.20005 4.30684 3.70576 3.40667 4.60594C2.50649 5.50611 2.00078 6.72701 2.00078 8.00005C2.00078 9.27309 2.50649 10.494 3.40667 11.3942C4.30684 12.2943 5.52774 12.8 6.80078 12.8C8.07382 12.8 9.29472 12.2943 10.1949 11.3942C11.0951 10.494 11.6008 9.27309 11.6008 8.00005C11.6008 6.72701 11.0951 5.50611 10.1949 4.60594C9.29472 3.70576 8.07382 3.20005 6.80078 3.20005ZM8.24078 31.9953C7.59094 32.0278 6.94127 31.9279 6.33124 31.7015C5.72121 31.4752 5.16356 31.1273 4.69217 30.6788C4.22079 30.2303 3.8455 29.6906 3.58912 29.0926C3.33274 28.4946 3.20062 27.8507 3.20078 27.2001V18.2001C3.20078 18.0409 3.264 17.8883 3.37652 17.7758C3.48904 17.6633 3.64165 17.6 3.80078 17.6H8.03438C8.13038 16.7192 8.44238 15.9008 8.91038 15.2H3.80078C2.14478 15.2 0.800781 16.544 0.800781 18.2001V27.2001C0.800669 28.2275 1.02047 29.2431 1.44543 30.1786C1.87038 31.1141 2.49063 31.9478 3.26451 32.6237C4.03839 33.2996 4.94798 33.8021 5.93214 34.0973C6.91631 34.3925 7.95225 34.4736 8.97038 34.3353C8.64736 33.5824 8.40287 32.7983 8.24078 31.9953ZM31.0312 34.3353C32.0493 34.4736 33.0853 34.3925 34.0694 34.0973C35.0536 33.8021 35.9632 33.2996 36.7371 32.6237C37.5109 31.9478 38.1312 31.1141 38.5561 30.1786C38.9811 29.2431 39.2009 28.2275 39.2008 27.2001V18.2001C39.2008 16.544 37.8568 15.2 36.2008 15.2H31.0912C31.5616 15.9008 31.8712 16.7192 31.9672 17.6H36.2008C36.3599 17.6 36.5125 17.6633 36.625 17.7758C36.7376 17.8883 36.8008 18.0409 36.8008 18.2001V27.2001C36.8009 27.8507 36.6688 28.4946 36.4124 29.0926C36.1561 29.6906 35.7808 30.2303 35.3094 30.6788C34.838 31.1273 34.2804 31.4752 33.6703 31.7015C33.0603 31.9279 32.4106 32.0278 31.7608 31.9953C31.5986 32.7983 31.3542 33.5824 31.0312 34.3353ZM13.4008 15.2C11.7448 15.2 10.4008 16.544 10.4008 18.2001V29.6C10.4008 32.1461 11.4122 34.5879 13.2126 36.3883C15.0129 38.1886 17.4547 39.2001 20.0008 39.2001C22.5469 39.2001 24.9887 38.1886 26.789 36.3883C28.5894 34.5879 29.6008 32.1461 29.6008 29.6V18.2001C29.6008 16.544 28.2568 15.2 26.6008 15.2H13.4008ZM12.8008 18.2001C12.8008 18.0409 12.864 17.8883 12.9765 17.7758C13.089 17.6633 13.2417 17.6 13.4008 17.6H26.6008C26.7599 17.6 26.9125 17.6633 27.025 17.7758C27.1376 17.8883 27.2008 18.0409 27.2008 18.2001V29.6C27.2008 31.5096 26.4422 33.341 25.092 34.6912C23.7417 36.0415 21.9103 36.8 20.0008 36.8C18.0912 36.8 16.2599 36.0415 14.9096 34.6912C13.5594 33.341 12.8008 31.5096 12.8008 29.6V18.2001Z" fill="#485C78"/>
</svg>
