<svg width="46" height="38" viewBox="0 0 46 38" fill="none" xmlns="http://www.w3.org/2000/svg">
<path d="M2.11111 3.16667V0H27.4444V3.16667H2.11111ZM13.7222 29.5556H15.8333V22.6944H22.3811V20.5833H15.8333V14.7778H13.7222V20.5833H7.38889V22.6944H13.7222V29.5556ZM4.22222 38C3.06111 38 2.06748 37.5869 1.24133 36.7608C0.413778 35.9332 0 34.9389 0 33.7778V10.5556C0 9.39444 0.413778 8.40082 1.24133 7.57467C2.06748 6.74711 3.06111 6.33333 4.22222 6.33333H25.3333C26.4944 6.33333 27.4888 6.74711 28.3163 7.57467C29.1425 8.40082 29.5556 9.39444 29.5556 10.5556V33.7778C29.5556 34.9389 29.1425 35.9332 28.3163 36.7608C27.4888 37.5869 26.4944 38 25.3333 38H4.22222ZM3.16667 34.8333H26.3889V9.5H3.16667V34.8333Z" fill="#00C2FF"/>
<path d="M44.3522 18.4721C44.3522 22.4287 41.8305 25.1388 39.2689 25.1388C36.7073 25.1388 34.1855 22.4287 34.1855 18.4721C34.1855 14.5155 36.7073 11.8054 39.2689 11.8054C41.8305 11.8054 44.3522 14.5155 44.3522 18.4721Z" stroke="#00C2FF" stroke-width="2.5"/>
<line x1="39.4629" y1="25.5276" x2="39.4629" y2="36.7498" stroke="#00C2FF" stroke-width="2.5" stroke-linecap="round"/>
</svg>
