<svg width="36" height="42" viewBox="0 0 36 42" fill="none" xmlns="http://www.w3.org/2000/svg">
<path d="M32.091 33.0004C32.987 30.8498 33.2273 28.4824 32.7816 26.1956C32.3359 23.9089 31.2241 21.805 29.586 20.1484C30.0367 19.0125 30.1222 17.7644 29.8305 16.5777C29.5388 15.391 28.8845 14.3248 27.9585 13.5274L32.1225 9.36337C32.6846 8.80033 33.0004 8.03723 33.0004 7.24162C33.0004 6.446 32.6846 5.6829 32.1225 5.11987L27.8805 0.877868C27.3175 0.31573 26.5544 0 25.7588 0C24.9631 0 24.2 0.31573 23.637 0.877868L3.879 20.6359C3.31723 21.1991 3.00175 21.9621 3.00175 22.7576C3.00175 23.5531 3.31723 24.3161 3.879 24.8794L8.121 29.1214C8.68403 29.6835 9.44713 29.9992 10.2428 29.9992C11.0384 29.9992 11.8015 29.6835 12.3645 29.1214L19.527 21.9589C20.5427 23.1335 21.9805 23.8603 23.5286 23.9816C25.0767 24.1029 26.6102 23.6089 27.7965 22.6069C29.0297 24.0177 29.7871 25.7812 29.961 27.647C30.135 29.5127 29.7167 31.3859 28.7655 33.0004H18V39.0004H0V42.0004H36V33.0004H32.091ZM10.242 27.0004L6 22.7569L8.8185 19.9399L13.0605 24.1819L10.242 27.0004ZM18 18.0004C18.0021 18.3791 18.0403 18.7568 18.114 19.1284L15.1815 22.0609L10.9395 17.8189L25.7595 2.99887L30 7.24087L25.1265 12.1159C24.2588 11.9437 23.3636 11.9666 22.5059 12.1831C21.6481 12.3995 20.8492 12.804 20.1671 13.3673C19.4849 13.9305 18.9366 14.6385 18.5618 15.4398C18.187 16.2411 17.9951 17.1157 18 18.0004ZM24 21.0004C23.4067 21.0004 22.8266 20.8244 22.3333 20.4948C21.8399 20.1651 21.4554 19.6966 21.2284 19.1484C21.0013 18.6002 20.9419 17.997 21.0576 17.4151C21.1734 16.8332 21.4591 16.2986 21.8787 15.879C22.2982 15.4595 22.8328 15.1738 23.4147 15.058C23.9967 14.9423 24.5999 15.0017 25.1481 15.2287C25.6962 15.4558 26.1648 15.8403 26.4944 16.3337C26.8241 16.827 27 17.407 27 18.0004C26.9992 18.7958 26.6829 19.5584 26.1204 20.1208C25.558 20.6832 24.7954 20.9996 24 21.0004ZM33 39.0004H21V36.0004H33V39.0004Z" fill="#485C78"/>
</svg>
