<svg width="41" height="39" viewBox="0 0 41 39" fill="none" xmlns="http://www.w3.org/2000/svg">
<path d="M12 0C10.727 0 9.50606 0.505713 8.60589 1.40589C7.70571 2.30606 7.2 3.52696 7.2 4.8V21.6H9.6V4.8C9.6 4.16348 9.85286 3.55303 10.3029 3.10294C10.753 2.65286 11.3635 2.4 12 2.4H28.8C29.4365 2.4 30.047 2.65286 30.4971 3.10294C30.9471 3.55303 31.2 4.16348 31.2 4.8V31.2H24V33.6H33.6C35.5096 33.6 37.3409 32.8414 38.6912 31.4912C40.0414 30.1409 40.8 28.3096 40.8 26.4V21.6H33.6V4.8C33.6 3.52696 33.0943 2.30606 32.1941 1.40589C31.2939 0.505713 30.073 0 28.8 0H12ZM38.4 26.4C38.4 27.673 37.8943 28.8939 36.9941 29.7941C36.0939 30.6943 34.873 31.2 33.6 31.2V24H38.4V26.4ZM15.6 7.2C15.2817 7.2 14.9765 7.32643 14.7515 7.55147C14.5264 7.77652 14.4 8.08174 14.4 8.4C14.4 8.71826 14.5264 9.02349 14.7515 9.24853C14.9765 9.47357 15.2817 9.6 15.6 9.6H25.2C25.5183 9.6 25.8235 9.47357 26.0485 9.24853C26.2736 9.02349 26.4 8.71826 26.4 8.4C26.4 8.08174 26.2736 7.77652 26.0485 7.55147C25.8235 7.32643 25.5183 7.2 25.2 7.2H15.6ZM14.4 13.2C14.4 12.8817 14.5264 12.5765 14.7515 12.3515C14.9765 12.1264 15.2817 12 15.6 12H25.2C25.5183 12 25.8235 12.1264 26.0485 12.3515C26.2736 12.5765 26.4 12.8817 26.4 13.2C26.4 13.5183 26.2736 13.8235 26.0485 14.0485C25.8235 14.2736 25.5183 14.4 25.2 14.4H15.6C15.2817 14.4 14.9765 14.2736 14.7515 14.0485C14.5264 13.8235 14.4 13.5183 14.4 13.2ZM18 24C18.9548 24 19.8705 24.3793 20.5456 25.0544C21.2207 25.7295 21.6 26.6452 21.6 27.6V34.8C21.6 35.7548 21.2207 36.6705 20.5456 37.3456C19.8705 38.0207 18.9548 38.4 18 38.4H3.6C2.64522 38.4 1.72955 38.0207 1.05442 37.3456C0.379285 36.6705 0 35.7548 0 34.8V27.6C0 26.6452 0.379285 25.7295 1.05442 25.0544C1.72955 24.3793 2.64522 24 3.6 24H18ZM19.2 34.8V32.4C18.2452 32.4 17.3295 32.7793 16.6544 33.4544C15.9793 34.1296 15.6 35.0452 15.6 36H18C18 35.6817 18.1264 35.3765 18.3515 35.1515C18.5765 34.9264 18.8817 34.8 19.2 34.8ZM19.2 27.6C18.8817 27.6 18.5765 27.4736 18.3515 27.2485C18.1264 27.0235 18 26.7183 18 26.4H15.6C15.6 27.3548 15.9793 28.2705 16.6544 28.9456C17.3295 29.6207 18.2452 30 19.2 30V27.6ZM3.6 26.4C3.6 26.7183 3.47357 27.0235 3.24853 27.2485C3.02348 27.4736 2.71826 27.6 2.4 27.6V30C3.35478 30 4.27045 29.6207 4.94558 28.9456C5.62072 28.2705 6 27.3548 6 26.4H3.6ZM2.4 34.8C2.71826 34.8 3.02348 34.9264 3.24853 35.1515C3.47357 35.3765 3.6 35.6817 3.6 36H6C6 35.0452 5.62072 34.1296 4.94558 33.4544C4.27045 32.7793 3.35478 32.4 2.4 32.4V34.8ZM10.8 27.6C9.84522 27.6 8.92955 27.9793 8.25442 28.6544C7.57928 29.3295 7.2 30.2452 7.2 31.2C7.2 32.1548 7.57928 33.0704 8.25442 33.7456C8.92955 34.4207 9.84522 34.8 10.8 34.8C11.7548 34.8 12.6705 34.4207 13.3456 33.7456C14.0207 33.0704 14.4 32.1548 14.4 31.2C14.4 30.2452 14.0207 29.3295 13.3456 28.6544C12.6705 27.9793 11.7548 27.6 10.8 27.6Z" fill="#485C78"/>
</svg>
