<svg width="42" height="46" viewBox="0 0 42 46" fill="none" xmlns="http://www.w3.org/2000/svg">
<path d="M22 43.8267C22.5304 43.8267 23.0391 43.6159 23.4142 43.2409C23.7893 42.8658 24 42.3571 24 41.8267C24 41.2962 23.7893 40.7875 23.4142 40.4124C23.0391 40.0374 22.5304 39.8267 22 39.8267C21.4696 39.8267 20.9609 40.0374 20.5858 40.4124C20.2107 40.7875 20 41.2962 20 41.8267C20 42.3571 20.2107 42.8658 20.5858 43.2409C20.9609 43.6159 21.4696 43.8267 22 43.8267ZM4 13.8267C4.53043 13.8267 5.03914 13.6159 5.41421 13.2409C5.78929 12.8658 6 12.3571 6 11.8267C6 11.2962 5.78929 10.7875 5.41421 10.4124C5.03914 10.0374 4.53043 9.82666 4 9.82666C3.46957 9.82666 2.96086 10.0374 2.58579 10.4124C2.21071 10.7875 2 11.2962 2 11.8267C2 12.3571 2.21071 12.8658 2.58579 13.2409C2.96086 13.6159 3.46957 13.8267 4 13.8267ZM4 33.8267C4.53043 33.8267 5.03914 33.6159 5.41421 33.2409C5.78929 32.8658 6 32.3571 6 31.8267C6 31.2962 5.78929 30.7875 5.41421 30.4124C5.03914 30.0374 4.53043 29.8267 4 29.8267C3.46957 29.8267 2.96086 30.0374 2.58579 30.4124C2.21071 30.7875 2 31.2962 2 31.8267C2 32.3571 2.21071 32.8658 2.58579 33.2409C2.96086 33.6159 3.46957 33.8267 4 33.8267Z" fill="#485C78" stroke="#485C78" stroke-width="3" stroke-linecap="round" stroke-linejoin="round"/>
<path d="M40 12.5326V31.1206C40.0001 31.3348 39.9428 31.5452 39.8342 31.7299C39.7255 31.9145 39.5694 32.0667 39.382 32.1706L22.582 41.5026C22.4039 41.6013 22.2036 41.6532 22 41.6532C21.7964 41.6532 21.5961 41.6013 21.418 41.5026L4.618 32.1706C4.43063 32.0667 4.27451 31.9145 4.16583 31.7299C4.05716 31.5452 3.9999 31.3348 4 31.1206V12.5326C4.00025 12.3187 4.05768 12.1087 4.16634 11.9245C4.275 11.7402 4.43093 11.5883 4.618 11.4846L21.418 2.15058C21.5961 2.05182 21.7964 2 22 2C22.2036 2 22.4039 2.05182 22.582 2.15058L39.382 11.4846C39.5691 11.5883 39.725 11.7402 39.8337 11.9245C39.9423 12.1087 39.9997 12.3187 40 12.5326V12.5326Z" stroke="#485C78" stroke-width="3" stroke-linecap="round" stroke-linejoin="round"/>
<path d="M5.05664 12.4146L21.4166 21.5026C21.595 21.6017 21.7956 21.6537 21.9996 21.6537C22.2037 21.6537 22.4043 21.6017 22.5826 21.5026L39.0006 12.3826M22.0006 39.8266V21.8266" stroke="#485C78" stroke-width="3" stroke-linecap="round" stroke-linejoin="round"/>
</svg>
