<svg width="44" height="36" viewBox="0 0 44 36" fill="none" xmlns="http://www.w3.org/2000/svg">
<path d="M34 34L41.648 26.352C41.8731 26.1272 41.9997 25.8222 42 25.504V15C42 14.2044 41.6839 13.4413 41.1213 12.8787C40.5587 12.3161 39.7956 12 39 12V12C38.2044 12 37.4413 12.3161 36.8787 12.8787C36.3161 13.4413 36 14.2044 36 15V24" stroke="#485C78" stroke-width="3" stroke-linecap="round" stroke-linejoin="round"/>
<path d="M34 26L35.716 24.284C35.8062 24.194 35.8776 24.087 35.9264 23.9693C35.9751 23.8516 36.0001 23.7254 36 23.598C35.9997 23.4182 35.9494 23.2419 35.8548 23.089C35.7601 22.9361 35.6248 22.8125 35.464 22.732L34.578 22.29C33.8274 21.9147 32.9777 21.785 32.1493 21.9192C31.3209 22.0535 30.5557 22.4449 29.962 23.038L28.172 24.828C27.4218 25.578 27.0002 26.5952 27 27.656V34M10 34L2.352 26.352C2.12689 26.1272 2.00028 25.8222 2 25.504V15C2 14.2044 2.31607 13.4413 2.87868 12.8787C3.44129 12.3161 4.20435 12 5 12V12C5.79565 12 6.55871 12.3161 7.12132 12.8787C7.68393 13.4413 8 14.2044 8 15V24" stroke="#485C78" stroke-width="3" stroke-linecap="round" stroke-linejoin="round"/>
<path d="M10 26L8.284 24.284C8.19393 24.1939 8.1225 24.087 8.07377 23.9692C8.02504 23.8515 7.99997 23.7254 8 23.598V23.598C8 23.232 8.208 22.898 8.536 22.732L9.422 22.29C10.1726 21.9147 11.0223 21.785 11.8507 21.9192C12.6791 22.0535 13.4443 22.4449 14.038 23.038L15.828 24.828C16.5782 25.578 16.9998 26.5952 17 27.656V34M25.334 18H18.666V13.334H14V6.666H18.666V2H25.334V6.666H30V13.334H25.334V18V18Z" stroke="#485C78" stroke-width="3" stroke-linecap="round" stroke-linejoin="round"/>
</svg>
