<svg width="48" height="48" viewBox="0 0 48 48" fill="none" xmlns="http://www.w3.org/2000/svg">
<path d="M16.8208 29.92C16.4408 29.92 16.0808 29.86 15.7808 29.76C15.482 29.6608 15.2089 29.4969 14.9808 29.28C14.7608 29.08 14.5808 28.84 14.4608 28.54C14.3408 28.26 14.2808 27.94 14.2808 27.6H11.6808C11.6808 28.32 11.8208 28.96 12.1008 29.5C12.3808 30.04 12.7608 30.5 13.2208 30.88C13.7008 31.24 14.2408 31.52 14.8608 31.7C15.4608 31.9 16.1008 32 16.7808 32C17.5208 32 18.2208 31.9 18.8408 31.7C19.4808 31.5 20.0408 31.2 20.5008 30.82C20.9608 30.44 21.3408 29.96 21.6008 29.38C21.8608 28.8 22.0008 28.16 22.0008 27.44C22.0008 27.06 21.9608 26.68 21.8608 26.32C21.7659 25.9566 21.6104 25.6117 21.4008 25.3C21.2008 24.98 20.9208 24.7 20.6008 24.44C20.2608 24.18 19.8608 23.98 19.3808 23.82C20.1037 23.4979 20.7208 22.9779 21.1608 22.32C21.3608 22.02 21.5008 21.72 21.6008 21.4C21.7008 21.08 21.7408 20.76 21.7408 20.44C21.7408 19.72 21.6208 19.08 21.3808 18.52C21.1408 17.96 20.8008 17.5 20.3608 17.14C19.9608 16.76 19.4208 16.48 18.8208 16.28C18.2008 16.1 17.5208 16 16.7808 16C16.0608 16 15.4008 16.1 14.7808 16.32C14.1808 16.54 13.6408 16.84 13.2008 17.22C12.7808 17.6 12.4408 18.04 12.1808 18.56C11.9408 19.08 11.8208 19.64 11.8208 20.26H14.4208C14.4208 19.92 14.4808 19.62 14.6008 19.36C14.7208 19.1 14.8808 18.86 15.1008 18.68C15.3208 18.5 15.5608 18.34 15.8608 18.24C16.1608 18.14 16.4608 18.08 16.8208 18.08C17.6208 18.08 18.2208 18.28 18.6008 18.7C18.9808 19.1 19.1808 19.68 19.1808 20.42C19.1808 20.78 19.1208 21.1 19.0208 21.4C18.9208 21.7 18.7408 21.94 18.5208 22.14C18.3008 22.34 18.0208 22.5 17.7008 22.62C17.3808 22.74 16.9808 22.8 16.5408 22.8H15.0008V24.86H16.5408C16.9808 24.86 17.3808 24.9 17.7408 25C18.1008 25.1 18.4008 25.26 18.6408 25.46C18.8808 25.68 19.0808 25.94 19.2208 26.26C19.3608 26.58 19.4208 26.96 19.4208 27.4C19.4208 28.22 19.1808 28.84 18.7208 29.26C18.2608 29.72 17.6208 29.92 16.8208 29.92ZM35.4208 20.48C35.0608 19.54 34.5608 18.74 33.9208 18.08C33.2808 17.42 32.5208 16.9 31.6408 16.54C30.7808 16.18 29.8008 16 28.7208 16H24.0008V32H28.6008C29.7008 32 30.7208 31.82 31.6208 31.46C32.5208 31.1 33.3008 30.6 33.9408 29.94C34.5808 29.28 35.0808 28.48 35.4208 27.56C35.7608 26.62 35.9408 25.58 35.9408 24.42V23.62C35.9408 22.46 35.7608 21.42 35.4208 20.48ZM33.1608 24.4C33.1608 25.24 33.0608 25.98 32.8808 26.66C32.6808 27.32 32.4008 27.9 32.0208 28.36C31.6408 28.82 31.1608 29.18 30.6008 29.42C30.0208 29.66 29.3608 29.78 28.6208 29.78H26.8008V18.22H28.7408C30.1808 18.22 31.2808 18.68 32.0208 19.6C32.7808 20.52 33.1608 21.84 33.1608 23.58V24.4ZM30.3008 7.68L32.9608 5.02C39.1408 7.94 43.6408 13.76 44.7408 20.74C44.8608 21.56 45.6208 22.12 46.4608 21.98C47.2808 21.86 47.8408 21.08 47.7008 20.26C46.5008 12.64 41.7808 6.24 35.2208 2.76C31.3718 0.713557 27.0317 -0.227851 22.6808 0.0400011L30.3008 7.68ZM17.7008 40.3L15.0408 42.96C11.9449 41.498 9.25329 39.3015 7.20018 36.5617C5.14707 33.8219 3.7947 30.6218 3.26076 27.24C3.23248 27.0442 3.16505 26.856 3.06251 26.6868C2.95997 26.5176 2.8244 26.3707 2.66389 26.255C2.50338 26.1393 2.32122 26.0571 2.12826 26.0133C1.9353 25.9695 1.7355 25.9649 1.54076 26C0.720759 26.12 0.160759 26.9 0.300759 27.72C1.50076 35.34 6.22076 41.74 12.7808 45.22C16.1208 47 20.4408 48.24 25.3208 47.94L17.7008 40.3Z" fill="#485C78"/>
</svg>
