<svg width="32" height="40" viewBox="0 0 32 40" fill="none" xmlns="http://www.w3.org/2000/svg">
<path d="M16 27C16.8333 27 17.5413 26.708 18.124 26.1241C18.708 25.5414 19 24.8334 19 24V22H21C21.8333 22 22.5413 21.708 23.124 21.1241C23.708 20.5414 24 19.8334 24 19C24 18.1667 23.708 17.4587 23.124 16.876C22.5413 16.292 21.8333 16 21 16H19V14C19 13.1667 18.708 12.4587 18.124 11.876C17.5413 11.292 16.8333 11 16 11C15.1667 11 14.4587 11.292 13.876 11.876C13.292 12.4587 13 13.1667 13 14V16H11C10.1667 16 9.45867 16.292 8.876 16.876C8.292 17.4587 8 18.1667 8 19C8 19.8334 8.292 20.5414 8.876 21.1241C9.45867 21.708 10.1667 22 11 22H13V24C13 24.8334 13.292 25.5414 13.876 26.1241C14.4587 26.708 15.1667 27 16 27ZM16 39.85H15.5C15.3333 39.85 15.1833 39.8167 15.05 39.75C10.6833 38.3834 7.08333 35.6747 4.25 31.6241C1.41667 27.5747 0 23.1 0 18.2001V8.75005C0 7.91672 0.242 7.16672 0.726 6.50005C1.20867 5.83338 1.83333 5.35005 2.6 5.05005L14.6 0.550049C15.0667 0.383382 15.5333 0.300049 16 0.300049C16.4667 0.300049 16.9333 0.383382 17.4 0.550049L29.4 5.05005C30.1667 5.35005 30.792 5.83338 31.276 6.50005C31.7587 7.16672 32 7.91672 32 8.75005V18.2001C32 23.1 30.5833 27.5747 27.75 31.6241C24.9167 35.6747 21.3167 38.3834 16.95 39.75C16.7833 39.8167 16.4667 39.85 16 39.85ZM16 35.8C19.4667 34.7001 22.3333 32.5 24.6 29.2001C26.8667 25.9001 28 22.2334 28 18.2001V8.75005L16 4.25005L4 8.75005V18.2001C4 22.2334 5.13333 25.9001 7.4 29.2001C9.66667 32.5 12.5333 34.7001 16 35.8Z" fill="#485C78"/>
</svg>
