<svg width="49" height="49" viewBox="0 0 49 49" fill="none" xmlns="http://www.w3.org/2000/svg">
<path d="M23.5886 2.44734C23.943 1.66281 25.057 1.66282 25.4114 2.44733L31.5225 15.9782C31.8231 16.6438 32.3562 17.1769 33.0218 17.4775L46.5527 23.5886C47.3372 23.943 47.3372 25.057 46.5527 25.4114L33.0218 31.5225C32.3562 31.8231 31.8231 32.3562 31.5225 33.0218L25.4114 46.5527C25.057 47.3372 23.943 47.3372 23.5886 46.5527L17.4775 33.0218C17.1769 32.3562 16.6438 31.8231 15.9782 31.5225L2.44734 25.4114C1.66281 25.057 1.66282 23.943 2.44733 23.5886L15.9782 17.4775C16.6438 17.1769 17.1769 16.6438 17.4775 15.9782L23.5886 2.44734Z" stroke="white" stroke-width="2"/>
</svg>
