<svg width="652" height="82" viewBox="0 0 652 82" fill="none" xmlns="http://www.w3.org/2000/svg">
<path d="M306.089 4.44733C306.443 3.66282 307.557 3.66281 307.911 4.44733L311.378 12.1228L312.289 11.7112L311.378 12.1228C311.679 12.7884 312.212 13.3214 312.877 13.622L320.553 17.0886C321.337 17.443 321.337 18.557 320.553 18.9114L312.877 22.378C312.212 22.6786 311.679 23.2116 311.378 23.8772L307.911 31.5527C307.557 32.3372 306.443 32.3372 306.089 31.5527L302.622 23.8772C302.321 23.2116 301.788 22.6786 301.123 22.378L293.447 18.9114C292.663 18.557 292.663 17.443 293.447 17.0886L301.123 13.622C301.788 13.3214 302.321 12.7884 302.622 12.1228L306.089 4.44733Z" stroke="#6C88AE" stroke-width="2"/>
<path d="M271.089 50.4473C271.443 49.6628 272.557 49.6628 272.911 50.4473L276.378 58.1228L277.289 57.7112L276.378 58.1228C276.679 58.7884 277.212 59.3214 277.877 59.622L285.553 63.0886C286.337 63.443 286.337 64.557 285.553 64.9114L277.877 68.378C277.212 68.6786 276.679 69.2116 276.378 69.8772L272.911 77.5527C272.557 78.3372 271.443 78.3372 271.089 77.5527L267.622 69.8772C267.321 69.2116 266.788 68.6786 266.123 68.378L258.447 64.9114C257.663 64.557 257.663 63.443 258.447 63.0886L266.123 59.622C266.788 59.3214 267.321 58.7884 267.622 58.1228L271.089 50.4473Z" fill="#6C88AE" stroke="#6C88AE" stroke-width="2"/>
<path d="M378.089 4.44733C378.443 3.66282 379.557 3.66281 379.911 4.44733L383.378 12.1228L384.289 11.7112L383.378 12.1228C383.679 12.7884 384.212 13.3214 384.877 13.622L392.553 17.0886C393.337 17.443 393.337 18.557 392.553 18.9114L384.877 22.378C384.212 22.6786 383.679 23.2116 383.378 23.8772L379.911 31.5527C379.557 32.3372 378.443 32.3372 378.089 31.5527L374.622 23.8772C374.321 23.2116 373.788 22.6786 373.123 22.378L365.447 18.9114C364.663 18.557 364.663 17.443 365.447 17.0886L373.123 13.622C373.788 13.3214 374.321 12.7884 374.622 12.1228L378.089 4.44733Z" fill="#6C88AE" stroke="#6C88AE" stroke-width="2"/>
<path d="M343.089 50.4473C343.443 49.6628 344.557 49.6628 344.911 50.4473L348.378 58.1228L349.289 57.7112L348.378 58.1228C348.679 58.7884 349.212 59.3214 349.877 59.622L357.553 63.0886C358.337 63.443 358.337 64.557 357.553 64.9114L349.877 68.378C349.212 68.6786 348.679 69.2116 348.378 69.8772L344.911 77.5527C344.557 78.3372 343.443 78.3372 343.089 77.5527L339.622 69.8772C339.321 69.2116 338.788 68.6786 338.123 68.378L330.447 64.9114C329.663 64.557 329.663 63.443 330.447 63.0886L338.123 59.622C338.788 59.3214 339.321 58.7884 339.622 58.1228L343.089 50.4473Z" stroke="#6C88AE" stroke-width="2"/>
<path d="M451.089 4.44733C451.443 3.66282 452.557 3.66281 452.911 4.44733L456.378 12.1228L457.289 11.7112L456.378 12.1228C456.679 12.7884 457.212 13.3214 457.877 13.622L465.553 17.0886C466.337 17.443 466.337 18.557 465.553 18.9114L457.877 22.378C457.212 22.6786 456.679 23.2116 456.378 23.8772L452.911 31.5527C452.557 32.3372 451.443 32.3372 451.089 31.5527L447.622 23.8772C447.321 23.2116 446.788 22.6786 446.123 22.378L438.447 18.9114C437.663 18.557 437.663 17.443 438.447 17.0886L446.123 13.622C446.788 13.3214 447.321 12.7884 447.622 12.1228L451.089 4.44733Z" stroke="#6C88AE" stroke-width="2"/>
<path d="M17.0886 4.44733C17.443 3.66282 18.557 3.66281 18.9114 4.44733L22.378 12.1228L23.2893 11.7112L22.378 12.1228C22.6786 12.7884 23.2116 13.3214 23.8772 13.622L31.5527 17.0886C32.3372 17.443 32.3372 18.557 31.5527 18.9114L23.8772 22.378C23.2116 22.6786 22.6786 23.2116 22.378 23.8772L18.9114 31.5527C18.557 32.3372 17.443 32.3372 17.0886 31.5527L13.622 23.8772C13.3214 23.2116 12.7884 22.6786 12.1228 22.378L4.44733 18.9114C3.66282 18.557 3.66281 17.443 4.44733 17.0886L12.1228 13.622C12.7884 13.3214 13.3214 12.7884 13.622 12.1228L17.0886 4.44733Z" stroke="#6C88AE" stroke-width="2"/>
<path d="M415.593 50.3291C415.951 49.5571 417.049 49.5571 417.407 50.3291L421.031 58.1357C421.338 58.7979 421.877 59.3253 422.545 59.6191L430.431 63.0845C431.228 63.4347 431.228 64.5653 430.431 64.9155L422.545 68.3809C421.877 68.6747 421.338 69.2021 421.031 69.8643L417.407 77.6709C417.049 78.4429 415.951 78.4429 415.593 77.6709L411.969 69.8643C411.662 69.2021 411.123 68.6747 410.455 68.3809L402.569 64.9155C401.772 64.5653 401.772 63.4347 402.569 63.0845L410.455 59.6191C411.123 59.3253 411.662 58.7979 411.969 58.1357L415.593 50.3291Z" stroke="#6C88AE" stroke-width="2"/>
<path d="M523.593 4.32909C523.951 3.55714 525.049 3.55714 525.407 4.32908L529.031 12.1357C529.338 12.7979 529.877 13.3253 530.545 13.6191L538.431 17.0845C539.228 17.4347 539.228 18.5653 538.431 18.9155L530.545 22.3809C529.877 22.6747 529.338 23.2021 529.031 23.8643L525.407 31.6709C525.049 32.4429 523.951 32.4429 523.593 31.6709L519.969 23.8643C519.662 23.2021 519.123 22.6747 518.455 22.3809L510.569 18.9155C509.772 18.5653 509.772 17.4347 510.569 17.0845L518.455 13.6191C519.123 13.3253 519.662 12.7979 519.969 12.1357L523.593 4.32909Z" stroke="#6C88AE" stroke-width="2"/>
<path d="M89.593 4.32909C89.9513 3.55714 91.0487 3.55714 91.407 4.32908L95.0308 12.1357C95.3382 12.7979 95.8766 13.3253 96.545 13.6191L104.431 17.0845C105.228 17.4347 105.228 18.5653 104.431 18.9155L96.545 22.3809C95.8766 22.6747 95.3382 23.2021 95.0308 23.8643L91.407 31.6709C91.0487 32.4429 89.9513 32.4429 89.593 31.6709L85.9692 23.8643C85.6618 23.2021 85.1234 22.6747 84.455 22.3809L76.569 18.9155C75.7721 18.5653 75.7721 17.4347 76.569 17.0845L84.455 13.6191C85.1234 13.3253 85.6618 12.7979 85.9692 12.1357L89.593 4.32909Z" stroke="#6C88AE" stroke-width="2"/>
<path d="M488.089 50.4473C488.443 49.6628 489.557 49.6628 489.911 50.4473L493.378 58.1228L494.289 57.7112L493.378 58.1228C493.679 58.7884 494.212 59.3214 494.877 59.622L502.553 63.0886C503.337 63.443 503.337 64.557 502.553 64.9114L494.877 68.378C494.212 68.6786 493.679 69.2116 493.378 69.8772L489.911 77.5527C489.557 78.3372 488.443 78.3372 488.089 77.5527L484.622 69.8772C484.321 69.2116 483.788 68.6786 483.123 68.378L475.447 64.9114C474.663 64.557 474.663 63.443 475.447 63.0886L483.123 59.622C483.788 59.3214 484.321 58.7884 484.622 58.1228L488.089 50.4473Z" fill="#6C88AE" stroke="#6C88AE" stroke-width="2"/>
<path d="M54.0886 50.4473C54.443 49.6628 55.557 49.6628 55.9114 50.4473L59.378 58.1228L60.2893 57.7112L59.378 58.1228C59.6786 58.7884 60.2116 59.3214 60.8772 59.622L68.5527 63.0886C69.3372 63.443 69.3372 64.557 68.5527 64.9114L60.8772 68.378C60.2116 68.6786 59.6786 69.2116 59.378 69.8772L55.9114 77.5527C55.557 78.3372 54.443 78.3372 54.0886 77.5527L50.622 69.8772C50.3214 69.2116 49.7884 68.6786 49.1228 68.378L41.4473 64.9114C40.6628 64.557 40.6628 63.443 41.4473 63.0886L49.1228 59.622C49.7884 59.3214 50.3214 58.7884 50.622 58.1228L54.0886 50.4473Z" fill="#6C88AE" stroke="#6C88AE" stroke-width="2"/>
<path d="M596.089 4.44733C596.443 3.66282 597.557 3.66281 597.911 4.44733L601.378 12.1228L602.289 11.7112L601.378 12.1228C601.679 12.7884 602.212 13.3214 602.877 13.622L610.553 17.0886C611.337 17.443 611.337 18.557 610.553 18.9114L602.877 22.378C602.212 22.6786 601.679 23.2116 601.378 23.8772L597.911 31.5527C597.557 32.3372 596.443 32.3372 596.089 31.5527L592.622 23.8772C592.321 23.2116 591.788 22.6786 591.123 22.378L583.447 18.9114C582.663 18.557 582.663 17.443 583.447 17.0886L591.123 13.622C591.788 13.3214 592.321 12.7884 592.622 12.1228L596.089 4.44733Z" fill="#6C88AE" stroke="#6C88AE" stroke-width="2"/>
<path d="M162.089 4.44733C162.443 3.66282 163.557 3.66281 163.911 4.44733L167.378 12.1228L168.289 11.7112L167.378 12.1228C167.679 12.7884 168.212 13.3214 168.877 13.622L176.553 17.0886C177.337 17.443 177.337 18.557 176.553 18.9114L168.877 22.378C168.212 22.6786 167.679 23.2116 167.378 23.8772L163.911 31.5527C163.557 32.3372 162.443 32.3372 162.089 31.5527L158.622 23.8772C158.321 23.2116 157.788 22.6786 157.123 22.378L149.447 18.9114C148.663 18.557 148.663 17.443 149.447 17.0886L157.123 13.622C157.788 13.3214 158.321 12.7884 158.622 12.1228L162.089 4.44733Z" fill="#6C88AE" stroke="#6C88AE" stroke-width="2"/>
<path d="M561.089 50.4473C561.443 49.6628 562.557 49.6628 562.911 50.4473L566.378 58.1228L567.289 57.7112L566.378 58.1228C566.679 58.7884 567.212 59.3214 567.877 59.622L575.553 63.0886C576.337 63.443 576.337 64.557 575.553 64.9114L567.877 68.378C567.212 68.6786 566.679 69.2116 566.378 69.8772L562.911 77.5527C562.557 78.3372 561.443 78.3372 561.089 77.5527L557.622 69.8772C557.321 69.2116 556.788 68.6786 556.123 68.378L548.447 64.9114C547.663 64.557 547.663 63.443 548.447 63.0886L556.123 59.622C556.788 59.3214 557.321 58.7884 557.622 58.1228L561.089 50.4473Z" stroke="#6C88AE" stroke-width="2"/>
<path d="M127.089 50.4473C127.443 49.6628 128.557 49.6628 128.911 50.4473L132.378 58.1228L133.289 57.7112L132.378 58.1228C132.679 58.7884 133.212 59.3214 133.877 59.622L141.553 63.0886C142.337 63.443 142.337 64.557 141.553 64.9114L133.877 68.378C133.212 68.6786 132.679 69.2116 132.378 69.8772L128.911 77.5527C128.557 78.3372 127.443 78.3372 127.089 77.5527L123.622 69.8772C123.321 69.2116 122.788 68.6786 122.123 68.378L114.447 64.9114C113.663 64.557 113.663 63.443 114.447 63.0886L122.123 59.622C122.788 59.3214 123.321 58.7884 123.622 58.1228L127.089 50.4473Z" stroke="#6C88AE" stroke-width="2"/>
<path d="M234.089 4.44733C234.443 3.66282 235.557 3.66281 235.911 4.44733L239.378 12.1228L240.289 11.7112L239.378 12.1228C239.679 12.7884 240.212 13.3214 240.877 13.622L248.553 17.0886C249.337 17.443 249.337 18.557 248.553 18.9114L240.877 22.378C240.212 22.6786 239.679 23.2116 239.378 23.8772L235.911 31.5527C235.557 32.3372 234.443 32.3372 234.089 31.5527L230.622 23.8772C230.321 23.2116 229.788 22.6786 229.123 22.378L221.447 18.9114C220.663 18.557 220.663 17.443 221.447 17.0886L229.123 13.622C229.788 13.3214 230.321 12.7884 230.622 12.1228L234.089 4.44733Z" stroke="#6C88AE" stroke-width="2"/>
<path d="M633.089 50.4473C633.443 49.6628 634.557 49.6628 634.911 50.4473L638.378 58.1228L639.289 57.7112L638.378 58.1228C638.679 58.7884 639.212 59.3214 639.877 59.622L647.553 63.0886C648.337 63.443 648.337 64.557 647.553 64.9114L639.877 68.378C639.212 68.6786 638.679 69.2116 638.378 69.8772L634.911 77.5527C634.557 78.3372 633.443 78.3372 633.089 77.5527L629.622 69.8772C629.321 69.2116 628.788 68.6786 628.123 68.378L620.447 64.9114C619.663 64.557 619.663 63.443 620.447 63.0886L628.123 59.622C628.788 59.3214 629.321 58.7884 629.622 58.1228L633.089 50.4473Z" stroke="#6C88AE" stroke-width="2"/>
<path d="M199.089 50.4473C199.443 49.6628 200.557 49.6628 200.911 50.4473L204.378 58.1228L205.289 57.7112L204.378 58.1228C204.679 58.7884 205.212 59.3214 205.877 59.622L213.553 63.0886C214.337 63.443 214.337 64.557 213.553 64.9114L205.877 68.378C205.212 68.6786 204.679 69.2116 204.378 69.8772L200.911 77.5527C200.557 78.3372 199.443 78.3372 199.089 77.5527L195.622 69.8772C195.321 69.2116 194.788 68.6786 194.123 68.378L186.447 64.9114C185.663 64.557 185.663 63.443 186.447 63.0886L194.123 59.622C194.788 59.3214 195.321 58.7884 195.622 58.1228L199.089 50.4473Z" stroke="#6C88AE" stroke-width="2"/>
</svg>
