<svg width="20" height="20" viewBox="0 0 20 20" fill="none" xmlns="http://www.w3.org/2000/svg">
<path d="M10.9114 17.5527C10.557 18.3372 9.44297 18.3372 9.08864 17.5527L7.4888 14.0104C7.1882 13.3449 6.65514 12.8118 5.98956 12.5112L2.44733 10.9114C1.66281 10.557 1.66281 9.44296 2.44733 9.08864L5.98956 7.4888C6.65514 7.1882 7.1882 6.65513 7.48881 5.98956L9.08864 2.44733C9.44297 1.66281 10.557 1.66281 10.9114 2.44733L12.5112 5.98956C12.8118 6.65514 13.3449 7.1882 14.0104 7.4888L17.5527 9.08864C18.3372 9.44297 18.3372 10.557 17.5527 10.9114L14.0104 12.5112C13.3449 12.8118 12.8118 13.3449 12.5112 14.0104L10.9114 17.5527Z" fill="#00C2FF" stroke="#00C2FF" stroke-width="2"/>
</svg>
