<svg width="88" height="88" viewBox="0 0 88 88" fill="none" xmlns="http://www.w3.org/2000/svg">
<path d="M41.13 3.8637C41.993 1.02842 46.007 1.02841 46.87 3.8637L54.7895 29.8831C55.2747 31.4775 56.5225 32.7252 58.1169 33.2105L84.1363 41.13C86.9716 41.993 86.9716 46.007 84.1363 46.87L58.1169 54.7895C56.5225 55.2747 55.2747 56.5225 54.7895 58.1169L46.87 84.1363C46.007 86.9716 41.993 86.9716 41.13 84.1363L33.2105 58.1169C32.7252 56.5225 31.4775 55.2747 29.8831 54.7895L3.8637 46.87C1.02842 46.007 1.02841 41.993 3.8637 41.13L29.8831 33.2105C31.4775 32.7252 32.7252 31.4775 33.2105 29.8831L41.13 3.8637Z" stroke="#8496AE" stroke-width="2"/>
</svg>
