<svg width="34" height="34" viewBox="0 0 34 34" fill="none" xmlns="http://www.w3.org/2000/svg">
<path d="M16.0886 2.44733C16.443 1.66281 17.557 1.66282 17.9114 2.44733L21.6891 10.8117C21.9897 11.4772 22.5228 12.0103 23.1883 12.3109L31.5527 16.0886C32.3372 16.443 32.3372 17.557 31.5527 17.9114L23.1883 21.6891C22.5228 21.9897 21.9897 22.5227 21.6891 23.1883L17.9114 31.5527C17.557 32.3372 16.443 32.3372 16.0886 31.5527L12.3109 23.1883C12.0103 22.5228 11.4772 21.9897 10.8117 21.6891L10.4001 22.6004L10.8117 21.6891L2.44733 17.9114C1.66281 17.557 1.66282 16.443 2.44733 16.0886L10.8117 12.3109C11.4772 12.0103 12.0103 11.4772 12.3109 10.8117L16.0886 2.44733Z" stroke="white" stroke-width="2"/>
</svg>
