<svg width="16" height="16" viewBox="0 0 16 16" fill="none" xmlns="http://www.w3.org/2000/svg">
<path d="M8.91136 13.5527C8.55703 14.3372 7.44297 14.3372 7.08864 13.5527L6.11106 11.3882C5.81046 10.7226 5.27739 10.1895 4.61182 9.88894L2.44733 8.91136C1.66281 8.55703 1.66281 7.44296 2.44733 7.08864L4.61182 6.11106C5.27739 5.81045 5.81046 5.27739 6.11106 4.61182L7.08864 2.44733C7.44297 1.66281 8.55704 1.66281 8.91136 2.44733L9.88894 4.61182C10.1895 5.27739 10.7226 5.81045 11.3882 6.11106L13.5527 7.08864C14.3372 7.44297 14.3372 8.55703 13.5527 8.91136L11.3882 9.88894C10.7226 10.1895 10.1895 10.7226 9.88894 11.3882L8.91136 13.5527Z" fill="#485C78" stroke="#485C78" stroke-width="2"/>
</svg>
