<svg width="100" height="100" viewBox="0 0 100 100" fill="none" xmlns="http://www.w3.org/2000/svg">
<circle cx="50" cy="50" r="50" fill="url(#paint0_linear_818_348)"/>
<path d="M50 86.75C40.2533 86.75 30.9058 82.8781 24.0138 75.9862C17.1219 69.0942 13.25 59.7467 13.25 50C13.25 40.2533 17.1219 30.9058 24.0138 24.0138C30.9058 17.1219 40.2533 13.25 50 13.25C59.7467 13.25 69.0942 17.1219 75.9862 24.0138C82.8781 30.9058 86.75 40.2533 86.75 50C86.75 59.7467 82.8781 69.0942 75.9862 75.9862C69.0942 82.8781 59.7467 86.75 50 86.75ZM50 92C61.1391 92 71.822 87.575 79.6985 79.6985C87.575 71.822 92 61.1391 92 50C92 38.8609 87.575 28.178 79.6985 20.3015C71.822 12.425 61.1391 8 50 8C38.8609 8 28.178 12.425 20.3015 20.3015C12.425 28.178 8 38.8609 8 50C8 61.1391 12.425 71.822 20.3015 79.6985C28.178 87.575 38.8609 92 50 92Z" fill="white"/>
<path d="M30.3237 54.7484C30.9318 54.4036 31.6545 54.3102 32.3327 54.4887C33.011 54.6671 33.5893 55.1028 33.9404 55.7C35.5666 58.4682 37.9068 60.7667 40.7253 62.3642C43.5439 63.9618 46.7413 64.8019 49.9956 64.8C53.2499 64.8019 56.4473 63.9618 59.2658 62.3642C62.0843 60.7667 64.4245 58.4682 66.0508 55.7C66.2233 55.4019 66.4542 55.1403 66.7302 54.9302C67.0062 54.7201 67.3217 54.5657 67.6587 54.4759C67.9956 54.3861 68.3474 54.3626 68.6936 54.4068C69.0399 54.451 69.3738 54.562 69.6762 54.7334C69.9786 54.9049 70.2435 55.1334 70.4556 55.4057C70.6677 55.6781 70.8228 55.989 70.9121 56.3205C71.0013 56.652 71.0229 56.9976 70.9756 57.3373C70.9283 57.677 70.813 58.0042 70.6364 58.3C68.5455 61.8586 65.5368 64.8136 61.9134 66.8675C58.2899 68.9215 54.1794 70.0019 49.9956 70C45.8118 70.0019 41.7013 68.9215 38.0778 66.8675C34.4543 64.8136 31.4457 61.8586 29.3547 58.3C29.0036 57.7028 28.9085 56.9932 29.0902 56.3271C29.2719 55.6611 29.7156 55.0932 30.3237 54.7484ZM44.7003 38.8C44.7003 43.1056 42.3281 46.6 39.4051 46.6C36.4821 46.6 34.1098 43.1056 34.1098 38.8C34.1098 34.4944 36.4821 31 39.4051 31C42.3281 31 44.7003 34.4944 44.7003 38.8ZM65.8813 38.8C65.8813 43.1056 63.509 46.6 60.5861 46.6C57.6631 46.6 55.2908 43.1056 55.2908 38.8C55.2908 34.4944 57.6631 31 60.5861 31C63.509 31 65.8813 34.4944 65.8813 38.8Z" fill="white"/>
<defs>
<linearGradient id="paint0_linear_818_348" x1="-2.62481e-06" y1="113" x2="82.1218" y2="73.9914" gradientUnits="userSpaceOnUse">
<stop offset="0.0652767" stop-color="#74BDC0"/>
<stop offset="0.209011" stop-color="#ABF8FD"/>
<stop offset="0.786806" stop-color="#74BDC0"/>
</linearGradient>
</defs>
</svg>
