<svg width="590" height="31" viewBox="0 0 590 31" fill="none" xmlns="http://www.w3.org/2000/svg">
<path d="M434.084 26.4067C434.433 27.206 435.567 27.206 435.916 26.4067L438.448 20.614C438.741 19.945 439.267 19.4057 439.928 19.0969L445.694 16.4062C446.463 16.0471 446.463 14.9529 445.694 14.5938L439.928 11.9031C439.267 11.5943 438.741 11.055 438.448 10.386L435.916 4.59334C435.567 3.794 434.433 3.794 434.084 4.59335L431.552 10.386C431.259 11.055 430.733 11.5943 430.072 11.9031L424.306 14.5938C423.537 14.9529 423.537 16.0471 424.306 16.4062L430.072 19.0969C430.733 19.4057 431.259 19.945 431.552 20.614L434.084 26.4067Z" fill="#485C78" stroke="#536680" stroke-width="2"/>
<path d="M574.084 26.4067C574.433 27.206 575.567 27.206 575.916 26.4067L578.448 20.614C578.741 19.945 579.267 19.4057 579.928 19.0969L585.694 16.4062C586.463 16.0471 586.463 14.9529 585.694 14.5938L579.928 11.9031C579.267 11.5943 578.741 11.055 578.448 10.386L575.916 4.59334C575.567 3.794 574.433 3.794 574.084 4.59335L571.552 10.386C571.259 11.055 570.733 11.5943 570.072 11.9031L564.306 14.5938C563.537 14.9529 563.537 16.0471 564.306 16.4062L570.072 19.0969C570.733 19.4057 571.259 19.945 571.552 20.614L574.084 26.4067Z" fill="#485C78" stroke="#536680" stroke-width="2"/>
<path d="M294.084 26.4067C294.433 27.206 295.567 27.206 295.916 26.4067L298.448 20.614C298.741 19.945 299.267 19.4057 299.928 19.0969L305.694 16.4062C306.463 16.0471 306.463 14.9529 305.694 14.5938L299.928 11.9031C299.267 11.5943 298.741 11.055 298.448 10.386L295.916 4.59334C295.567 3.794 294.433 3.794 294.084 4.59335L291.552 10.386C291.259 11.055 290.733 11.5943 290.072 11.9031L284.306 14.5938C283.537 14.9529 283.537 16.0471 284.306 16.4062L290.072 19.0969C290.733 19.4057 291.259 19.945 291.552 20.614L294.084 26.4067Z" fill="#485C78" stroke="#536680" stroke-width="2"/>
<path d="M154.084 26.4067C154.433 27.206 155.567 27.206 155.916 26.4067L158.448 20.614C158.741 19.945 159.267 19.4057 159.928 19.0969L165.694 16.4062C166.463 16.0471 166.463 14.9529 165.694 14.5938L159.928 11.9031C159.267 11.5943 158.741 11.055 158.448 10.386L155.916 4.59334C155.567 3.794 154.433 3.794 154.084 4.59335L151.552 10.386C151.259 11.055 150.733 11.5943 150.072 11.9031L144.306 14.5938C143.537 14.9529 143.537 16.0471 144.306 16.4062L150.072 19.0969C150.733 19.4057 151.259 19.945 151.552 20.614L154.084 26.4067Z" fill="#485C78" stroke="#536680" stroke-width="2"/>
<path d="M14.0837 26.4067C14.4331 27.206 15.5669 27.206 15.9163 26.4067L18.4482 20.614C18.7405 19.945 19.2668 19.4057 19.9283 19.0969L25.6938 16.4062C26.4632 16.0471 26.4632 14.9529 25.6938 14.5938L19.9283 11.9031C19.2668 11.5943 18.7405 11.055 18.4482 10.386L15.9163 4.59334C15.5669 3.794 14.4331 3.794 14.0837 4.59335L11.5518 10.386C11.2595 11.055 10.7332 11.5943 10.0717 11.9031L4.30622 14.5938C3.53676 14.9529 3.53677 16.0471 4.30621 16.4062L10.0717 19.0969C10.7332 19.4057 11.2595 19.945 11.5518 20.614L14.0837 26.4067Z" fill="#485C78" stroke="#536680" stroke-width="2"/>
</svg>
