<svg width="38" height="342" viewBox="0 0 38 342" fill="none" xmlns="http://www.w3.org/2000/svg">
<path d="M19.9114 261.553C19.557 262.337 18.443 262.337 18.0886 261.553L14.3109 253.188C14.0103 252.523 13.4773 251.99 12.8117 251.689L4.44734 247.911C3.66282 247.557 3.66282 246.443 4.44734 246.089L12.8117 242.311C13.4772 242.01 14.0103 241.477 14.3109 240.812L18.0886 232.447C18.443 231.663 19.557 231.663 19.9114 232.447L23.6891 240.812C23.9897 241.477 24.5228 242.01 25.1883 242.311L25.5999 241.4L25.1883 242.311L33.5527 246.089C34.3372 246.443 34.3372 247.557 33.5527 247.911L25.1883 251.689C24.5228 251.99 23.9897 252.523 23.6891 253.188L19.9114 261.553Z" stroke="#485C78" stroke-width="2"/>
<path d="M19.9114 337.553C19.557 338.337 18.443 338.337 18.0886 337.553L14.3109 329.188C14.0103 328.523 13.4773 327.99 12.8117 327.689L4.44734 323.911C3.66282 323.557 3.66282 322.443 4.44734 322.089L12.8117 318.311C13.4772 318.01 14.0103 317.477 14.3109 316.812L18.0886 308.447C18.443 307.663 19.557 307.663 19.9114 308.447L23.6891 316.812C23.9897 317.477 24.5228 318.01 25.1883 318.311L25.5999 317.4L25.1883 318.311L33.5527 322.089C34.3372 322.443 34.3372 323.557 33.5527 323.911L25.1883 327.689C24.5228 327.99 23.9897 328.523 23.6891 329.188L19.9114 337.553Z" stroke="#485C78" stroke-width="2"/>
<path d="M19.9114 185.553C19.557 186.337 18.443 186.337 18.0886 185.553L14.3109 177.188C14.0103 176.523 13.4773 175.99 12.8117 175.689L4.44734 171.911C3.66282 171.557 3.66282 170.443 4.44734 170.089L12.8117 166.311C13.4772 166.01 14.0103 165.477 14.3109 164.812L18.0886 156.447C18.443 155.663 19.557 155.663 19.9114 156.447L23.6891 164.812C23.9897 165.477 24.5228 166.01 25.1883 166.311L25.5999 165.4L25.1883 166.311L33.5527 170.089C34.3372 170.443 34.3372 171.557 33.5527 171.911L25.1883 175.689C24.5228 175.99 23.9897 176.523 23.6891 177.188L19.9114 185.553Z" stroke="#485C78" stroke-width="2"/>
<path d="M19.9114 109.553C19.557 110.337 18.443 110.337 18.0886 109.553L14.3109 101.188C14.0103 100.523 13.4773 99.9897 12.8117 99.6891L4.44734 95.9114C3.66282 95.557 3.66282 94.443 4.44734 94.0886L12.8117 90.3109C13.4772 90.0103 14.0103 89.4772 14.3109 88.8117L18.0886 80.4473C18.443 79.6628 19.557 79.6628 19.9114 80.4473L23.6891 88.8117C23.9897 89.4772 24.5228 90.0103 25.1883 90.3109L25.5999 89.3996L25.1883 90.3109L33.5527 94.0886C34.3372 94.443 34.3372 95.557 33.5527 95.9114L25.1883 99.6891C24.5228 99.9897 23.9897 100.523 23.6891 101.188L19.9114 109.553Z" stroke="#485C78" stroke-width="2"/>
<path d="M19.9114 33.5527C19.557 34.3372 18.443 34.3372 18.0886 33.5527L14.3109 25.1883C14.0103 24.5228 13.4773 23.9897 12.8117 23.6891L4.44734 19.9114C3.66282 19.557 3.66282 18.443 4.44734 18.0886L12.8117 14.3109C13.4772 14.0103 14.0103 13.4772 14.3109 12.8117L18.0886 4.44733C18.443 3.66281 19.557 3.66281 19.9114 4.44733L23.6891 12.8117C23.9897 13.4772 24.5228 14.0103 25.1883 14.3109L25.5999 13.3996L25.1883 14.3109L33.5527 18.0886C34.3372 18.443 34.3372 19.557 33.5527 19.9114L25.1883 23.6891C24.5228 23.9897 23.9897 24.5228 23.6891 25.1883L19.9114 33.5527Z" stroke="#485C78" stroke-width="2"/>
</svg>
