<svg width="106" height="139" viewBox="0 0 106 139" fill="none" xmlns="http://www.w3.org/2000/svg">
<path d="M45.8368 42.2217C66.1655 42.2217 82.6441 58.6403 82.6441 78.8868C82.6441 99.1333 66.1655 115.552 45.8368 115.552C25.5082 115.552 9.0296 99.1333 9.0296 78.8868C9.0296 58.6403 25.5082 42.2217 45.8368 42.2217ZM45.8368 48.3338C28.9239 48.3338 15.1654 62.0392 15.1654 78.8868C15.1654 95.7344 28.9239 109.44 45.8368 109.44C62.7497 109.44 76.5083 95.7344 76.5083 78.8868C76.5083 62.0392 62.7497 48.3338 45.8368 48.3338ZM44.5609 57.8737C45.228 57.8737 45.8725 58.1144 46.3753 58.5511C46.878 58.9879 47.205 59.5912 47.2957 60.2496L47.3215 60.6236V79.8727H59.2838C59.9833 79.873 60.6565 80.1376 61.1676 80.6133C61.6787 81.0889 61.9894 81.7401 62.0371 82.4352C62.0848 83.1303 61.8658 83.8175 61.4244 84.358C60.983 84.8984 60.3522 85.2519 59.6593 85.3468L59.2838 85.3725H44.5609C43.8939 85.3725 43.2494 85.1318 42.7466 84.6951C42.2439 84.2583 41.9169 83.6549 41.8262 82.9966L41.8004 82.6226V60.6236C41.8004 59.8942 42.0912 59.1948 42.6089 58.6791C43.1267 58.1634 43.8288 57.8737 44.5609 57.8737Z" fill="white"/>
<path d="M87.0496 113.086C87.2314 112.709 87.7686 112.709 87.9504 113.086L88.3616 113.939C88.5089 114.244 88.7557 114.491 89.0614 114.638L89.9143 115.05C90.2915 115.231 90.2915 115.769 89.9143 115.95L89.0614 116.362C88.7557 116.509 88.5089 116.756 88.3616 117.061L87.9504 117.914C87.7686 118.291 87.2314 118.291 87.0496 117.914L86.6384 117.061C86.4911 116.756 86.2443 116.509 85.9386 116.362L85.0857 115.95C84.7085 115.769 84.7085 115.231 85.0857 115.05L85.9386 114.638C86.2443 114.491 86.4911 114.244 86.6384 113.939L87.0496 113.086Z" stroke="white"/>
<path d="M22.1111 28.9006C22.299 28.5462 22.8067 28.5462 22.9946 28.9006L23.1982 29.2848C23.3388 29.5499 23.5557 29.7668 23.8209 29.9074L24.205 30.1111C24.5594 30.299 24.5594 30.8067 24.205 30.9946L23.8209 31.1982C23.5557 31.3388 23.3388 31.5557 23.1982 31.8209L22.9946 32.205C22.8067 32.5594 22.299 32.5594 22.1111 32.205L21.9074 31.8209C21.7668 31.5557 21.5499 31.3388 21.2848 31.1982L20.9006 30.9946C20.5462 30.8067 20.5462 30.299 20.9006 30.1111L21.2848 29.9074C21.5499 29.7668 21.7668 29.5499 21.9074 29.2848L22.1111 28.9006Z" stroke="white"/>
<path d="M4.11291 20.6322C4.27643 20.2028 4.88393 20.2028 5.04745 20.6322L5.21641 21.0759L5.68368 20.898L5.21641 21.0759C5.36869 21.4758 5.68452 21.7917 6.08444 21.944L6.52815 22.1129C6.95758 22.2764 6.95758 22.8839 6.52815 23.0474L6.08443 23.2164C5.68452 23.3687 5.36868 23.6845 5.21641 24.0844L5.04745 24.5281C4.88393 24.9576 4.27643 24.9576 4.11291 24.5281L3.94395 24.0844C3.79167 23.6845 3.47584 23.3687 3.07592 23.2164L2.63221 23.0474C2.20278 22.8839 2.20278 22.2764 2.63221 22.1129L3.07592 21.944C3.47584 21.7917 3.79167 21.4758 3.94395 21.0759L4.11291 20.6322Z" stroke="white"/>
<path d="M98.6436 128.632C98.8071 128.203 99.4146 128.203 99.5781 128.632L100.169 130.184C100.321 130.584 100.637 130.9 101.037 131.053L102.589 131.644C103.019 131.807 103.019 132.415 102.589 132.578L101.037 133.169C100.637 133.321 100.321 133.637 100.169 134.037L99.5781 135.589C99.4146 136.019 98.8071 136.019 98.6436 135.589L98.0525 134.037C97.9002 133.637 97.5844 133.321 97.1845 133.169L95.6322 132.578C95.2028 132.415 95.2028 131.807 95.6322 131.644L97.1845 131.053C97.5844 130.9 97.9002 130.584 98.0525 130.184L98.6436 128.632Z" stroke="white"/>
<path d="M16.2683 2.63221C16.4318 2.20278 17.0393 2.20278 17.2028 2.63221L17.9662 4.63691C18.1185 5.03682 18.4343 5.35266 18.8342 5.50494L20.8389 6.26829C21.2683 6.4318 21.2683 7.03931 20.8389 7.20283L18.8342 7.96618C18.4343 8.11845 18.1185 8.43429 17.9662 8.83421L17.2028 10.8389C17.0393 11.2683 16.4318 11.2683 16.2683 10.8389L15.5049 8.83421C15.3527 8.43429 15.0368 8.11845 14.6369 7.96618L12.6322 7.20283C12.2028 7.03931 12.2028 6.4318 12.6322 6.26829L14.6369 5.50494C15.0368 5.35266 15.3527 5.03682 15.5049 4.63691L16.2683 2.63221Z" stroke="white"/>
</svg>
