<svg width="273" height="524" viewBox="0 0 273 524" fill="none" xmlns="http://www.w3.org/2000/svg">
<path d="M136.724 294.969H178.811C178.811 294.969 178.811 294.969 178.811 294.969C180.893 294.97 182.897 295.758 184.417 297.172C185.937 298.587 186.86 300.522 187.001 302.587C187.143 304.652 186.493 306.694 185.181 308.301C183.878 309.895 182.02 310.943 179.977 311.236L178.76 311.319H127.011C125.025 311.319 123.107 310.602 121.611 309.303C120.128 308.015 119.161 306.24 118.882 304.303L118.799 303.092V225.744C118.799 223.578 119.662 221.499 121.202 219.965C122.742 218.432 124.831 217.569 127.011 217.569C128.997 217.569 130.915 218.286 132.411 219.585C133.894 220.873 134.861 222.648 135.14 224.584L135.224 225.796V293.469V294.969H136.724ZM131.5 162.5C202.2 162.5 259.5 219.6 259.5 290C259.5 360.4 202.2 417.5 131.5 417.5C60.8002 417.5 3.5 360.4 3.5 290C3.5 219.6 60.8002 162.5 131.5 162.5ZM131.5 181.004C71.1718 181.004 22.0877 229.891 22.0877 290C22.0877 350.109 71.1718 398.996 131.5 398.996C191.828 398.996 240.912 350.109 240.912 290C240.912 229.891 191.828 181.004 131.5 181.004Z" fill="#6C88AE" stroke="#6C88AE" stroke-width="3"/>
<path d="M82.4602 114.711L83.0776 116.078L82.4602 114.711C81.6837 115.062 81.0618 115.684 80.7111 116.46L82.0781 117.078L80.7111 116.46L78.9557 120.347C78.7785 120.739 78.2215 120.739 78.0443 120.347L76.2889 116.46C75.9382 115.684 75.3163 115.062 74.5398 114.711L73.9224 116.078L74.5398 114.711L70.6531 112.956C70.2609 112.779 70.2609 112.221 70.6531 112.044L74.5398 110.289C75.3163 109.938 75.9382 109.316 76.2889 108.54L78.0443 104.653C78.2215 104.261 78.7785 104.261 78.9557 104.653L80.7111 108.54L82.0781 107.922L80.7111 108.54C81.0618 109.316 81.6837 109.938 82.4602 110.289L86.3469 112.044C86.7391 112.221 86.7391 112.779 86.3469 112.956L82.4602 114.711Z" stroke="#6C88AE" stroke-width="3"/>
<path d="M44.5443 4.65313C44.7215 4.26088 45.2785 4.26087 45.4557 4.65314L51.7224 18.5285L53.0895 17.911L51.7224 18.5285C52.0731 19.305 52.695 19.9269 53.4715 20.2776L67.3469 26.5443C67.7391 26.7215 67.7391 27.2785 67.3469 27.4557L53.4715 33.7224C52.695 34.0731 52.0731 34.695 51.7224 35.4715L45.4557 49.3469C45.2785 49.7391 44.7215 49.7391 44.5443 49.3469L38.2776 35.4715C37.9269 34.695 37.305 34.0731 36.5285 33.7224L22.6531 27.4557C22.2609 27.2785 22.2609 26.7215 22.6531 26.5443L36.5285 20.2776C37.305 19.9269 37.9269 19.305 38.2776 18.5285L36.9105 17.911L38.2776 18.5285L44.5443 4.65313Z" stroke="#6C88AE" stroke-width="3"/>
<path d="M221.46 470.711L222.078 472.078L221.46 470.711C220.684 471.062 220.062 471.684 219.711 472.46L221.078 473.078L219.711 472.46L217.956 476.347C217.779 476.739 217.221 476.739 217.044 476.347L215.289 472.46C214.938 471.684 214.316 471.062 213.54 470.711L212.922 472.078L213.54 470.711L209.653 468.956C209.261 468.779 209.261 468.221 209.653 468.044L213.54 466.289C214.316 465.938 214.938 465.316 215.289 464.54L217.044 460.653C217.221 460.261 217.779 460.261 217.956 460.653L219.711 464.54L221.078 463.922L219.711 464.54C220.062 465.316 220.684 465.938 221.46 466.289L225.347 468.044C225.739 468.221 225.739 468.779 225.347 468.956L221.46 470.711Z" stroke="#6C88AE" stroke-width="3"/>
<path d="M251.044 485.653C251.221 485.261 251.779 485.261 251.956 485.653L256.511 495.74L257.878 495.122L256.511 495.74C256.862 496.516 257.484 497.138 258.26 497.489L268.347 502.044C268.739 502.221 268.739 502.779 268.347 502.956L258.26 507.511L258.878 508.878L258.26 507.511C257.484 507.862 256.862 508.484 256.511 509.26L257.878 509.878L256.511 509.26L251.956 519.347C251.779 519.739 251.221 519.739 251.044 519.347L246.489 509.26C246.138 508.484 245.516 507.862 244.74 507.511L244.122 508.878L244.74 507.511L234.653 502.956C234.261 502.779 234.261 502.221 234.653 502.044L244.74 497.489C245.516 497.138 246.138 496.516 246.489 495.74L251.044 485.653Z" stroke="#6C88AE" stroke-width="3"/>
<path d="M18.0443 67.6531C18.2215 67.2609 18.7785 67.2609 18.9557 67.6531L22.5778 75.673L23.9449 75.0556L22.5778 75.673C22.9285 76.4495 23.5505 77.0715 24.327 77.4222L32.3469 81.0443C32.7391 81.2215 32.7391 81.7785 32.3469 81.9557L24.327 85.5778L24.9444 86.9449L24.327 85.5778C23.5505 85.9285 22.9285 86.5505 22.5778 87.327L18.9557 95.3469C18.7785 95.7391 18.2215 95.7391 18.0443 95.3469L14.4222 87.327C14.0715 86.5505 13.4495 85.9285 12.673 85.5778L12.0556 86.9449L12.673 85.5778L4.65314 81.9557C4.26088 81.7785 4.26088 81.2215 4.65314 81.0443L12.673 77.4222C13.4495 77.0715 14.0715 76.4495 14.4222 75.673L18.0443 67.6531Z" stroke="#6C88AE" stroke-width="3"/>
</svg>
